<svg width="24" height="24" viewBox="0 0 24 24" fill="none" xmlns="http://www.w3.org/2000/svg">
<path fill-rule="evenodd" clip-rule="evenodd" d="M23.219 0.781048C23.719 1.28115 24 1.95942 24 2.66667V21.3333C24 22.0406 23.719 22.7189 23.219 23.219C22.7189 23.719 22.0406 24 21.3333 24H2.66667C1.95942 24 1.28115 23.719 0.781048 23.219C0.280951 22.7189 0 22.0406 0 21.3333V2.66667C0 1.95942 0.280951 1.28115 0.781048 0.781048C1.28115 0.280951 1.95942 0 2.66667 0H21.3333C22.0406 0 22.7189 0.280951 23.219 0.781048ZM19.7604 6.81468C20.7859 8.34954 21.3333 10.154 21.3333 12C21.3333 14.4754 20.35 16.8493 18.5997 18.5997C16.8493 20.35 14.4754 21.3333 12 21.3333C10.154 21.3333 8.34954 20.7859 6.81468 19.7604C5.27982 18.7348 4.08354 17.2772 3.37712 15.5717C2.67071 13.8663 2.48588 11.9896 2.846 10.1792C3.20613 8.36867 4.09505 6.70563 5.40034 5.40034C6.70563 4.09505 8.36867 3.20613 10.1792 2.846C11.9896 2.48588 13.8663 2.67071 15.5717 3.37712C17.2772 4.08354 18.7348 5.27982 19.7604 6.81468ZM7.93333 13.8667H4.77333C4.45126 12.6431 4.45126 11.3569 4.77333 10.1333H7.93333C7.85251 10.7524 7.80799 11.3757 7.8 12C7.80799 12.6243 7.85251 13.2476 7.93333 13.8667ZM5.54667 8.26667H8.26667C8.57708 7.11475 9.01537 6.00116 9.57333 4.94667C7.87246 5.5276 6.44116 6.70772 5.54667 8.26667ZM12 19.4267C12.7923 18.3008 13.3958 17.0534 13.7867 15.7333H10.2133C10.6042 17.0534 11.2077 18.3008 12 19.4267ZM12 4.56C11.2064 5.68992 10.6029 6.94199 10.2133 8.26667H13.7867C13.3971 6.94199 12.7936 5.68992 12 4.56ZM5.54667 15.7333C6.44585 17.2883 7.87546 18.467 9.57333 19.0533C9.01537 17.9988 8.57708 16.8853 8.26667 15.7333H5.54667ZM16.2 12C16.192 12.6243 16.1475 13.2476 16.0667 13.8667H19.2267C19.5487 12.6431 19.5487 11.3569 19.2267 10.1333H16.0667C16.1475 10.7524 16.192 11.3757 16.2 12ZM14.4133 19.0533C16.115 18.4677 17.549 17.2892 18.4533 15.7333H15.7067C15.4121 16.8884 14.9778 18.0033 14.4133 19.0533ZM9.81333 10.1333C9.61408 11.3698 9.61408 12.6302 9.81333 13.8667H14.1867C14.2792 13.2487 14.3282 12.6249 14.3333 12C14.3282 11.3751 14.2792 10.7514 14.1867 10.1333H9.81333Z" fill="white"/>
<path fill-rule="evenodd" clip-rule="evenodd" d="M21.3333 12C21.3333 10.154 20.7859 8.34954 19.7604 6.81468C18.7348 5.27982 17.2772 4.08354 15.5717 3.37712C13.8663 2.67071 11.9896 2.48588 10.1792 2.846C8.36867 3.20613 6.70563 4.09505 5.40034 5.40034C4.09505 6.70563 3.20613 8.36867 2.846 10.1792C2.48588 11.9896 2.67071 13.8663 3.37712 15.5717C4.08354 17.2772 5.27982 18.7348 6.81468 19.7604C8.34954 20.7859 10.154 21.3333 12 21.3333C14.4754 21.3333 16.8493 20.35 18.5997 18.5997C20.35 16.8493 21.3333 14.4754 21.3333 12ZM4.77333 13.8667H7.93333C7.85251 13.2476 7.80799 12.6243 7.8 12C7.80799 11.3757 7.85251 10.7524 7.93333 10.1333H4.77333C4.45126 11.3569 4.45126 12.6431 4.77333 13.8667ZM8.26667 8.26667H5.54667C6.44116 6.70772 7.87246 5.5276 9.57333 4.94667C9.01537 6.00116 8.57708 7.11475 8.26667 8.26667ZM14.4133 4.94667C16.1162 5.53018 17.5509 6.7092 18.4533 8.26667H15.7067C15.4121 7.11155 14.9778 5.99666 14.4133 4.94667ZM13.7867 15.7333C13.3958 17.0534 12.7923 18.3008 12 19.4267C11.2077 18.3008 10.6042 17.0534 10.2133 15.7333H13.7867ZM10.2133 8.26667C10.6029 6.94199 11.2064 5.68992 12 4.56C12.7936 5.68992 13.3971 6.94199 13.7867 8.26667H10.2133ZM9.57333 19.0533C7.87546 18.467 6.44585 17.2883 5.54667 15.7333H8.26667C8.57708 16.8853 9.01537 17.9988 9.57333 19.0533ZM16.0667 13.8667C16.1475 13.2476 16.192 12.6243 16.2 12C16.192 11.3757 16.1475 10.7524 16.0667 10.1333H19.2267C19.5487 11.3569 19.5487 12.6431 19.2267 13.8667H16.0667ZM18.4533 15.7333C17.549 17.2892 16.115 18.4677 14.4133 19.0533C14.9778 18.0033 15.4121 16.8884 15.7067 15.7333H18.4533ZM9.81333 13.8667C9.61408 12.6302 9.61408 11.3698 9.81333 10.1333H14.1867C14.2792 10.7514 14.3282 11.3751 14.3333 12C14.3282 12.6249 14.2792 13.2487 14.1867 13.8667H9.81333Z" fill="black"/>
</svg>
