<svg width="24" height="24" viewBox="0 0 24 24" fill="none" xmlns="http://www.w3.org/2000/svg">
<path d="M14 19C17.771 19 19.657 19 20.828 17.828C22 16.657 22 14.771 22 11C22 7.229 22 5.343 20.828 4.172C19.657 3 17.771 3 14 3H10C6.229 3 4.343 3 3.172 4.172C2 5.343 2 7.229 2 11C2 14.771 2 16.657 3.172 17.828C3.825 18.482 4.7 18.771 6 18.898" stroke="white" stroke-width="2" stroke-linecap="round" stroke-linejoin="round"/>
<path d="M14 19C12.764 19 11.402 19.5 10.159 20.145C8.161 21.182 7.162 21.701 6.67 21.37C6.178 21.04 6.271 20.015 6.458 17.966L6.5 17.5" stroke="white" stroke-width="2" stroke-linecap="round"/>
<path d="M9.63672 12.8633C9.63672 12.9023 9.63021 12.931 9.61719 12.9492C9.60417 12.9674 9.58594 12.9805 9.5625 12.9883C9.54167 12.9961 9.51562 13 9.48438 13C9.45312 13 9.41797 13 9.37891 13H5.73047C5.70443 13 5.6849 12.9987 5.67188 12.9961C5.65885 12.9935 5.64844 12.987 5.64062 12.9766C5.63542 12.9661 5.63151 12.9531 5.62891 12.9375C5.62891 12.9193 5.62891 12.8945 5.62891 12.8633V8.83203C5.62891 8.79297 5.62891 8.76172 5.62891 8.73828C5.63151 8.71484 5.63672 8.69661 5.64453 8.68359C5.65234 8.67057 5.66536 8.66146 5.68359 8.65625C5.70443 8.65104 5.73438 8.64844 5.77344 8.64844H9.33984C9.37891 8.64844 9.41536 8.64844 9.44922 8.64844C9.48307 8.64844 9.51302 8.65234 9.53906 8.66016C9.56771 8.66797 9.58984 8.68099 9.60547 8.69922C9.62109 8.71745 9.62891 8.74609 9.62891 8.78516C9.62891 8.81641 9.62109 8.84115 9.60547 8.85938C9.58984 8.875 9.56771 8.88672 9.53906 8.89453C9.51302 8.90234 9.48307 8.90625 9.44922 8.90625C9.41536 8.90625 9.37891 8.90625 9.33984 8.90625H5.96094V10.6172H9.32031C9.3776 10.6172 9.42578 10.625 9.46484 10.6406C9.50391 10.6562 9.52344 10.6901 9.52344 10.7422C9.52344 10.7995 9.50651 10.8372 9.47266 10.8555C9.44141 10.8737 9.39974 10.8828 9.34766 10.8828H5.96094V12.7422H9.34766C9.38672 12.7422 9.42318 12.7422 9.45703 12.7422C9.49089 12.7422 9.52083 12.7461 9.54688 12.7539C9.57552 12.7617 9.59766 12.7747 9.61328 12.793C9.62891 12.8086 9.63672 12.832 9.63672 12.8633ZM13.643 12.7188C13.643 12.7526 13.6404 12.7865 13.6352 12.8203C13.6299 12.8542 13.6208 12.8841 13.6078 12.9102C13.5974 12.9362 13.5818 12.9583 13.5609 12.9766C13.5401 12.9922 13.5141 13 13.4828 13C13.4437 13 13.4138 12.9922 13.393 12.9766C13.3747 12.9583 13.3604 12.9362 13.35 12.9102C13.3396 12.8841 13.3331 12.8542 13.3305 12.8203C13.3305 12.7865 13.3305 12.7526 13.3305 12.7188V11.3672C13.3305 11.1641 13.3148 10.987 13.2836 10.8359C13.2549 10.6849 13.1964 10.5599 13.1078 10.4609C13.0219 10.3594 12.9008 10.2839 12.7445 10.2344C12.5909 10.1849 12.3891 10.1602 12.1391 10.1602C11.9854 10.1602 11.8227 10.1732 11.6508 10.1992C11.4789 10.2227 11.3148 10.2656 11.1586 10.3281C11.0023 10.388 10.8643 10.4688 10.7445 10.5703C10.6247 10.6719 10.5414 10.7995 10.4945 10.9531V12.7188C10.4945 12.7526 10.4932 12.7865 10.4906 12.8203C10.488 12.8542 10.4815 12.8841 10.4711 12.9102C10.4607 12.9362 10.4451 12.9583 10.4242 12.9766C10.406 12.9922 10.3812 13 10.35 13C10.3135 13 10.2836 12.9922 10.2602 12.9766C10.2393 12.9583 10.2224 12.9362 10.2094 12.9102C10.199 12.8841 10.1911 12.8542 10.1859 12.8203C10.1833 12.7865 10.182 12.7526 10.182 12.7188V10.1875C10.182 10.1432 10.1911 10.1029 10.2094 10.0664C10.2276 10.0273 10.2732 10.0078 10.3461 10.0078C10.4112 10.0078 10.4516 10.026 10.4672 10.0625C10.4854 10.0964 10.4945 10.138 10.4945 10.1875V10.6797C10.5674 10.513 10.669 10.3802 10.7992 10.2812C10.9294 10.1797 11.0714 10.1042 11.225 10.0547C11.3812 10.0026 11.5388 9.96875 11.6977 9.95312C11.8591 9.9375 12.0062 9.92969 12.1391 9.92969C12.4203 9.92969 12.656 9.95443 12.8461 10.0039C13.0388 10.0508 13.1937 10.1302 13.3109 10.2422C13.4307 10.3542 13.5154 10.5026 13.5648 10.6875C13.6169 10.8698 13.643 11.0964 13.643 11.3672V12.7188ZM16.3445 10.1992C16.0346 10.1992 15.769 10.2227 15.5477 10.2695C15.3289 10.3138 15.1492 10.388 15.0086 10.4922C14.868 10.5938 14.7651 10.7279 14.7 10.8945C14.6349 11.0612 14.6023 11.2643 14.6023 11.5039C14.6023 11.7435 14.6297 11.9466 14.6844 12.1133C14.7391 12.2799 14.8276 12.4154 14.95 12.5195C15.075 12.6211 15.2378 12.6953 15.4383 12.7422C15.6414 12.7865 15.8901 12.8086 16.1844 12.8086C16.3198 12.8086 16.4552 12.8021 16.5906 12.7891C16.7286 12.7734 16.8641 12.75 16.9969 12.7188C17.1297 12.6849 17.2573 12.6432 17.3797 12.5938C17.5021 12.5443 17.6167 12.4844 17.7234 12.4141V10.9531C17.7052 10.8802 17.6714 10.8008 17.6219 10.7148C17.575 10.6263 17.4995 10.5443 17.3953 10.4688C17.2937 10.3906 17.1583 10.3268 16.9891 10.2773C16.8198 10.2253 16.6049 10.1992 16.3445 10.1992ZM16.243 14.0547C16.4565 14.0547 16.6531 14.0352 16.8328 13.9961C17.0151 13.9596 17.1714 13.9023 17.3016 13.8242C17.4344 13.7461 17.5372 13.6458 17.6102 13.5234C17.6857 13.4036 17.7234 13.2591 17.7234 13.0898V12.625C17.6115 12.7031 17.4917 12.7695 17.3641 12.8242C17.2365 12.8763 17.1049 12.918 16.9695 12.9492C16.8367 12.9805 16.7013 13.0026 16.5633 13.0156C16.4279 13.0312 16.2964 13.0391 16.1687 13.0391C15.8719 13.0391 15.6076 13.0169 15.3758 12.9727C15.144 12.9258 14.9474 12.8451 14.7859 12.7305C14.6245 12.6159 14.5008 12.4596 14.4148 12.2617C14.3315 12.0612 14.2898 11.8086 14.2898 11.5039C14.2898 11.1992 14.338 10.9466 14.4344 10.7461C14.5307 10.543 14.6674 10.3815 14.8445 10.2617C15.0216 10.1393 15.2339 10.0534 15.4812 10.0039C15.7312 9.95443 16.0086 9.92969 16.3133 9.92969C16.5815 9.92969 16.8016 9.95573 16.9734 10.0078C17.1479 10.0573 17.2872 10.1198 17.3914 10.1953C17.4982 10.2682 17.575 10.349 17.6219 10.4375C17.6714 10.526 17.7052 10.6068 17.7234 10.6797C17.7234 10.6328 17.7208 10.5794 17.7156 10.5195C17.713 10.457 17.7117 10.3958 17.7117 10.3359C17.7117 10.2474 17.7195 10.1706 17.7352 10.1055C17.7534 10.0404 17.7911 10.0078 17.8484 10.0078C17.8875 10.0078 17.9187 10.0169 17.9422 10.0352C17.9656 10.0508 17.9839 10.0716 17.9969 10.0977C18.0125 10.1237 18.0229 10.1536 18.0281 10.1875C18.0333 10.2188 18.0359 10.25 18.0359 10.2812V13.0898C18.0359 13.5013 17.8797 13.8099 17.5672 14.0156C17.2573 14.224 16.8159 14.3281 16.243 14.3281C16.0555 14.3281 15.8875 14.319 15.7391 14.3008C15.5932 14.2826 15.463 14.2578 15.3484 14.2266C15.2365 14.1979 15.1362 14.1641 15.0477 14.125C14.9591 14.0859 14.8797 14.0469 14.8094 14.0078C14.7807 14 14.7469 13.9792 14.7078 13.9453C14.6687 13.9141 14.6492 13.8763 14.6492 13.832C14.6492 13.7826 14.6661 13.7474 14.7 13.7266C14.7365 13.7057 14.7625 13.6953 14.7781 13.6953C14.8016 13.6953 14.8289 13.7031 14.8602 13.7188C14.8914 13.737 14.9266 13.7565 14.9656 13.7773C15.0073 13.8008 15.0529 13.8242 15.1023 13.8477C15.1518 13.8737 15.2065 13.8945 15.2664 13.9102C15.3758 13.9466 15.5086 13.9792 15.6648 14.0078C15.8211 14.0391 16.0138 14.0547 16.243 14.0547Z" fill="white"/>
</svg>
