<svg width="24" height="24" viewBox="0 0 24 24" fill="none" xmlns="http://www.w3.org/2000/svg">
<path d="M14 19C17.771 19 19.657 19 20.828 17.828C22 16.657 22 14.771 22 11C22 7.229 22 5.343 20.828 4.172C19.657 3 17.771 3 14 3H10C6.229 3 4.343 3 3.172 4.172C2 5.343 2 7.229 2 11C2 14.771 2 16.657 3.172 17.828C3.825 18.482 4.7 18.771 6 18.898" stroke="#333333" stroke-width="2" stroke-linecap="round" stroke-linejoin="round"/>
<path d="M14 19C12.764 19 11.402 19.5 10.159 20.145C8.161 21.182 7.162 21.701 6.67 21.37C6.178 21.04 6.271 20.015 6.458 17.966L6.5 17.5" stroke="#333333" stroke-width="2" stroke-linecap="round"/>
<path d="M7.89141 11.1602L8.60625 11.0977C8.6401 11.3841 8.71823 11.6198 8.84062 11.8047C8.96562 11.987 9.15833 12.1354 9.41875 12.25C9.67917 12.362 9.97214 12.418 10.2977 12.418C10.5867 12.418 10.8419 12.375 11.0633 12.2891C11.2846 12.2031 11.4487 12.0859 11.5555 11.9375C11.6648 11.7865 11.7195 11.6224 11.7195 11.4453C11.7195 11.2656 11.6674 11.1094 11.5633 10.9766C11.4591 10.8411 11.2872 10.7279 11.0477 10.6367C10.894 10.5768 10.5542 10.4844 10.0281 10.3594C9.50208 10.2318 9.13359 10.112 8.92266 10C8.64922 9.85677 8.44479 9.67969 8.30937 9.46875C8.17656 9.25521 8.11016 9.01693 8.11016 8.75391C8.11016 8.46484 8.19219 8.19531 8.35625 7.94531C8.52031 7.69271 8.7599 7.5013 9.075 7.37109C9.3901 7.24089 9.74036 7.17578 10.1258 7.17578C10.5503 7.17578 10.924 7.24479 11.2469 7.38281C11.5724 7.51823 11.8224 7.71875 11.9969 7.98438C12.1714 8.25 12.2651 8.55078 12.2781 8.88672L11.5516 8.94141C11.5125 8.57943 11.3797 8.30599 11.1531 8.12109C10.9292 7.9362 10.5971 7.84375 10.157 7.84375C9.6987 7.84375 9.36406 7.92839 9.15312 8.09766C8.94479 8.26432 8.84062 8.46615 8.84062 8.70312C8.84062 8.90885 8.91484 9.07812 9.06328 9.21094C9.20911 9.34375 9.58932 9.48047 10.2039 9.62109C10.8211 9.75911 11.2443 9.88021 11.4734 9.98438C11.8068 10.138 12.0529 10.3333 12.2117 10.5703C12.3706 10.8047 12.45 11.0755 12.45 11.3828C12.45 11.6875 12.3628 11.9753 12.1883 12.2461C12.0138 12.5143 11.7625 12.724 11.4344 12.875C11.1089 13.0234 10.7417 13.0977 10.3328 13.0977C9.81458 13.0977 9.37969 13.0221 9.02812 12.8711C8.67917 12.7201 8.40443 12.4935 8.20391 12.1914C8.00599 11.8867 7.90182 11.543 7.89141 11.1602ZM14.1477 13L12.5695 8.85156H13.3117L14.2023 11.3359C14.2987 11.6042 14.3872 11.8828 14.468 12.1719C14.5305 11.9531 14.6177 11.6901 14.7297 11.3828L15.6516 8.85156H16.3742L14.8039 13H14.1477Z" fill="#333333"/>
</svg>
