<svg width="24" height="24" viewBox="0 0 24 24" fill="none" xmlns="http://www.w3.org/2000/svg">
<path d="M14 19C17.771 19 19.657 19 20.828 17.828C22 16.657 22 14.771 22 11C22 7.229 22 5.343 20.828 4.172C19.657 3 17.771 3 14 3H10C6.229 3 4.343 3 3.172 4.172C2 5.343 2 7.229 2 11C2 14.771 2 16.657 3.172 17.828C3.825 18.482 4.7 18.771 6 18.898" stroke="#333333" stroke-width="2" stroke-linecap="round" stroke-linejoin="round"/>
<path d="M14 19C12.764 19 11.402 19.5 10.159 20.145C8.161 21.182 7.162 21.701 6.67 21.37C6.178 21.04 6.271 20.015 6.458 17.966L6.5 17.5" stroke="#333333" stroke-width="2" stroke-linecap="round"/>
<path d="M5.63281 13V7.27344H9.77344V7.94922H6.39062V9.70312H9.55859V10.375H6.39062V12.3242H9.90625V13H5.63281ZM10.4633 13V8.85156H11.0961V9.44141C11.4008 8.98568 11.8409 8.75781 12.4164 8.75781C12.6664 8.75781 12.8956 8.80339 13.1039 8.89453C13.3148 8.98307 13.4724 9.10026 13.5766 9.24609C13.6807 9.39193 13.7536 9.5651 13.7953 9.76562C13.8214 9.89583 13.8344 10.1237 13.8344 10.4492V13H13.1312V10.4766C13.1312 10.1901 13.1039 9.97656 13.0492 9.83594C12.9945 9.69271 12.8969 9.57943 12.7562 9.49609C12.6182 9.41016 12.4555 9.36719 12.268 9.36719C11.9685 9.36719 11.7094 9.46224 11.4906 9.65234C11.2745 9.84245 11.1664 10.2031 11.1664 10.7344V13H10.4633ZM14.3875 13.3438L15.0711 13.4453C15.0997 13.6562 15.1792 13.8099 15.3094 13.9062C15.4839 14.0365 15.7221 14.1016 16.0242 14.1016C16.3497 14.1016 16.601 14.0365 16.7781 13.9062C16.9552 13.776 17.075 13.5938 17.1375 13.3594C17.174 13.2161 17.1909 12.9154 17.1883 12.457C16.881 12.819 16.4982 13 16.0398 13C15.4695 13 15.0281 12.7943 14.7156 12.3828C14.4031 11.9714 14.2469 11.4779 14.2469 10.9023C14.2469 10.5065 14.3185 10.1419 14.4617 9.80859C14.6049 9.47266 14.812 9.21354 15.0828 9.03125C15.3562 8.84896 15.6766 8.75781 16.0437 8.75781C16.5333 8.75781 16.937 8.95573 17.2547 9.35156V8.85156H17.9031V12.4375C17.9031 13.0833 17.8367 13.5404 17.7039 13.8086C17.5737 14.0794 17.3654 14.293 17.0789 14.4492C16.7951 14.6055 16.4448 14.6836 16.0281 14.6836C15.5333 14.6836 15.1336 14.5716 14.8289 14.3477C14.5242 14.1263 14.3771 13.7917 14.3875 13.3438ZM14.9695 10.8516C14.9695 11.3958 15.0776 11.793 15.2937 12.043C15.5099 12.293 15.7807 12.418 16.1062 12.418C16.4292 12.418 16.7 12.2943 16.9187 12.0469C17.1375 11.7969 17.2469 11.4062 17.2469 10.875C17.2469 10.3672 17.1336 9.98438 16.907 9.72656C16.6831 9.46875 16.4122 9.33984 16.0945 9.33984C15.782 9.33984 15.5164 9.46745 15.2977 9.72266C15.0789 9.97526 14.9695 10.3516 14.9695 10.8516Z" fill="#333333"/>
</svg>
