<svg width="24" height="24" viewBox="0 0 24 24" fill="none" xmlns="http://www.w3.org/2000/svg">
<path d="M14 19C17.771 19 19.657 19 20.828 17.828C22 16.657 22 14.771 22 11C22 7.229 22 5.343 20.828 4.172C19.657 3 17.771 3 14 3H10C6.229 3 4.343 3 3.172 4.172C2 5.343 2 7.229 2 11C2 14.771 2 16.657 3.172 17.828C3.825 18.482 4.7 18.771 6 18.898" stroke="white" stroke-width="2" stroke-linecap="round" stroke-linejoin="round"/>
<path d="M14 19C12.764 19 11.402 19.5 10.159 20.145C8.161 21.182 7.162 21.701 6.67 21.37C6.178 21.04 6.271 20.015 6.458 17.966L6.5 17.5" stroke="white" stroke-width="2" stroke-linecap="round"/>
<path d="M12.8602 11.7852C12.8602 11.9518 12.8302 12.1003 12.7703 12.2305C12.7104 12.3581 12.6271 12.4701 12.5203 12.5664C12.4135 12.6602 12.2859 12.7409 12.1375 12.8086C11.9917 12.8737 11.8328 12.9271 11.6609 12.9688C11.4891 13.0078 11.3055 13.0352 11.1102 13.0508C10.9174 13.069 10.7221 13.0781 10.5242 13.0781C10.2456 13.0781 9.96823 13.0638 9.69219 13.0352C9.41615 13.0065 9.15833 12.9714 8.91875 12.9297C8.67917 12.8854 8.46693 12.8385 8.28203 12.7891C8.09974 12.7396 7.96172 12.6927 7.86797 12.6484C7.83151 12.6302 7.80417 12.6081 7.78594 12.582C7.77031 12.5534 7.7625 12.5247 7.7625 12.4961C7.7625 12.4648 7.77031 12.4388 7.78594 12.418C7.80417 12.3945 7.83021 12.3828 7.86406 12.3828C7.87969 12.3828 7.89792 12.3867 7.91875 12.3945C8.02031 12.4362 8.16615 12.4818 8.35625 12.5312C8.54635 12.5807 8.7612 12.6276 9.00078 12.6719C9.24297 12.7135 9.49948 12.7487 9.77031 12.7773C10.0437 12.806 10.3146 12.8203 10.5828 12.8203C10.8432 12.8203 11.0906 12.8034 11.325 12.7695C11.5594 12.7357 11.7651 12.6784 11.9422 12.5977C12.1219 12.5169 12.2638 12.4102 12.368 12.2773C12.4747 12.1445 12.5281 11.9805 12.5281 11.7852C12.5281 11.6211 12.4826 11.487 12.3914 11.3828C12.3029 11.276 12.1818 11.1914 12.0281 11.1289C11.8745 11.0638 11.6948 11.0156 11.4891 10.9844C11.2833 10.9505 11.0646 10.9258 10.8328 10.9102C10.6036 10.8919 10.3667 10.8789 10.1219 10.8711C9.87708 10.8607 9.6388 10.8451 9.40703 10.8242C9.17786 10.8034 8.96042 10.7734 8.75469 10.7344C8.54896 10.6953 8.36927 10.638 8.21562 10.5625C8.06198 10.487 7.93958 10.3893 7.84844 10.2695C7.7599 10.1497 7.71562 9.9987 7.71562 9.81641C7.71562 9.64974 7.74687 9.5026 7.80937 9.375C7.87187 9.2474 7.95781 9.13802 8.06719 9.04688C8.17656 8.95312 8.30547 8.8763 8.45391 8.81641C8.60495 8.75391 8.76771 8.70443 8.94219 8.66797C9.11927 8.63151 9.30417 8.60547 9.49687 8.58984C9.69219 8.57422 9.8875 8.56641 10.0828 8.56641C10.325 8.56641 10.5633 8.57812 10.7977 8.60156C11.032 8.6224 11.2521 8.65234 11.4578 8.69141C11.6635 8.72786 11.8484 8.76953 12.0125 8.81641C12.1766 8.86068 12.3081 8.90625 12.407 8.95312C12.4279 8.96354 12.4435 8.97917 12.4539 9C12.4643 9.01823 12.4695 9.03776 12.4695 9.05859C12.4695 9.09505 12.4565 9.12891 12.4305 9.16016C12.407 9.19141 12.3732 9.20703 12.3289 9.20703C12.3029 9.20703 12.2807 9.20182 12.2625 9.19141C12.1245 9.13411 11.9708 9.08333 11.8016 9.03906C11.6349 8.99219 11.4578 8.95312 11.2703 8.92188C11.0828 8.89062 10.8888 8.86719 10.6883 8.85156C10.4904 8.83333 10.2937 8.82422 10.0984 8.82422C9.8276 8.82422 9.56849 8.83984 9.32109 8.87109C9.0737 8.90234 8.85495 8.95573 8.66484 9.03125C8.47734 9.10417 8.3276 9.20312 8.21562 9.32812C8.10365 9.45052 8.04766 9.60547 8.04766 9.79297C8.04766 9.9362 8.09193 10.0534 8.18047 10.1445C8.27161 10.2331 8.39401 10.3047 8.54766 10.3594C8.7013 10.4141 8.88099 10.4557 9.08672 10.4844C9.29245 10.5104 9.5099 10.5312 9.73906 10.5469C9.97083 10.5625 10.2091 10.5768 10.4539 10.5898C10.6987 10.6003 10.9357 10.6198 11.1648 10.6484C11.3966 10.6745 11.6154 10.7122 11.8211 10.7617C12.0268 10.8086 12.2065 10.875 12.3602 10.9609C12.5138 11.0469 12.6349 11.1576 12.7234 11.293C12.8146 11.4258 12.8602 11.5898 12.8602 11.7852ZM14.7141 13.0391C14.6542 13.0391 14.6099 13.0208 14.5812 12.9844C14.5526 12.9479 14.5305 12.9154 14.5148 12.8867L12.9914 10.2852C12.9758 10.2591 12.9654 10.2357 12.9602 10.2148C12.9549 10.1914 12.9523 10.1693 12.9523 10.1484C12.9523 10.1042 12.9654 10.0703 12.9914 10.0469C13.0174 10.0208 13.0487 10.0078 13.0852 10.0078C13.1138 10.0078 13.1437 10.0182 13.175 10.0391C13.2062 10.0573 13.2336 10.0872 13.257 10.1289L14.7141 12.7148L16.1711 10.1289C16.1945 10.0872 16.2219 10.0573 16.2531 10.0391C16.2844 10.0182 16.3143 10.0078 16.343 10.0078C16.3794 10.0078 16.4107 10.0208 16.4367 10.0469C16.4628 10.0703 16.4758 10.1042 16.4758 10.1484C16.4758 10.1901 16.4628 10.2357 16.4367 10.2852L14.9133 12.8867C14.8951 12.9154 14.8703 12.9479 14.8391 12.9844C14.8078 13.0208 14.7661 13.0391 14.7141 13.0391Z" fill="white"/>
</svg>
