<svg width="2002" height="1701" viewBox="0 0 2002 1701" fill="none" xmlns="http://www.w3.org/2000/svg">
<path d="M147 873.5H6L3.5 877L1 873.5V1700H2001V893H1984V890.5H1980L1978.5 893H1974L1973 894V891H1970V893H1967.5H1966L1960.5 901.5H1957.5V910L1953.5 912L1952 917L1951 914V901.5L1946 895L1944.5 891.5H1928V890H1924.5L1923 891.5H1916.5L1914 890V891.5H1908V893H1901.5V891.5H1899V893H1896.5L1886.5 901.5V912H1884.5V872L1886.5 870.5V868H1877.5L1871.5 866L1845.5 864.5L1844 852L1842 864.5H1832H1819L1812.5 866H1806.5L1805.5 868H1804.5L1803.5 866H1802L1800.5 870.5L1799.5 883H1792.5L1789.5 888.5H1787.5L1784.5 883H1767.5V881H1762.5L1761.5 883H1749.5L1746.5 879V877.5L1762.5 873.5V872L1746.5 874.5L1743 848H1741.5L1741 873.5L1727.84 872.5L1727.89 876L1740.5 877.5L1739.5 883H1728L1727.89 876L1727.84 872.5L1727.58 856L1726 754.5L1733 748.5L1741 747.5L1745.5 744H1739L1733 743L1729 741.5V739.5H1727.5V741.5L1719.5 740.5V728L1720.5 727.5V725.5L1717.5 723V638L1714 723L1711 725.5V727.5L1712 728V739.5L1698 736L1685 731L1672 722L1669 719L1668 716L1667 715.5V712H1666V709.5V705.5V704L1667 703V702H1668V701L1669 700H1672V699H1673V698L1676.5 694.5L1678 692.5V691L1676.5 690V680H1673V662H1669L1666 658L1665.5 654.5V650L1666 649V640.5L1668 640V638H1666V635H1664.5L1664 631H1662V635H1660V638L1658.5 640L1660 640.5L1659.5 652.5L1660 653L1659.5 658L1654.5 656V654.5V642.5V627V605.5V591.5V569.5V555.5V543V538L1655.5 536.5V534L1656.5 532L1660 531.5V529H1669V528H1670V527H1673H1674V526H1676V525H1677V524H1678V523H1679V522H1673V521H1670V518.5H1666.5V520H1660V516H1657.5L1656.5 513.5H1655.5V513L1656.5 512L1654 510V507.5L1649.5 501V496H1651.5V495H1650L1648.5 493L1647.5 488.5L1646.5 492L1644.5 494.5V496.5L1646.5 497V497.5L1645.5 501L1642.5 504.5L1642 508L1640.5 508.5V504.5L1638.5 503V498.5L1639.5 497.5V495L1636.5 493.5V489.5H1635.5V493.5L1632.5 496V498H1635L1635.5 499.5L1634 503L1616 478.5L1615.5 476V473.5L1616.5 472L1615.5 471.5L1616 465.5L1618.5 459L1630 449V436H1629L1616.5 421.5L1611.5 411L1611 401L1615 397V394L1614 391.5L1611 388V384L1611.5 382.5V380.5L1610 378.5V350.304L1635 335L1640 327H1648.5L1650 323L1654 319.5L1652 318H1647L1646.5 321.5L1642.5 319.5V318H1644L1643.5 316H1642L1640.5 313.5L1638 316H1636.5V318L1638 318.5V319.5L1636 321H1633.5V318L1631.5 317.5H1628.5L1627 319L1627.5 320.5L1628.5 321.5L1630 322.5L1630.5 326L1631.5 327H1637.5L1633 334L1610 347.5V341H1616.5L1621.5 335V332.5H1615.5L1615 335.5L1612 335V332H1613V331L1609 328L1604.5 331V332.5H1607L1605.5 335H1602V334L1602.5 332.5H1601.5L1601 331.5H1598.5L1597.5 333H1596V335H1597.5L1599 336.5V341H1607.5V347.5L1586 333L1582.5 329L1581 326H1587.5L1588.5 322L1592 320V318.5L1590 317H1585.5V319H1581V317H1582.5V315.5L1579 313L1575 315.5V317H1577V319H1572.5L1572 316H1567.5L1566 317V319L1569 321V324.5L1569.5 326H1578.5L1579 328.5L1584 334.5L1607.5 350.304V378.5L1605.5 380.5V382.5L1606.5 384V388L1602.5 391.5L1601.5 393V396L1602.5 397.5L1606 401L1605.5 411L1585 436.5V446.5L1593 454.5L1597 459.5L1600 467.5L1598.5 476.5L1581 501.5L1577.5 498V496L1579.5 495V493L1577 491V486H1576V491L1573 494V495H1576V499L1569.5 505L1567.5 502V497L1569 496.5V495L1566.5 493V488.5H1565.5V493L1563.5 494.5V497H1565.5V502L1562 504.5L1561.5 508.5L1558.5 510.5L1558 515.5L1552 519H1547.5L1547 516.5H1542.5V519.5L1535 520.5V523L1544 527L1555.5 527.5L1552.5 529.5V531.5H1556L1556.5 536L1558 537.5L1556 654L1551.5 657.5H1549.5V655.5L1548.5 654L1549.5 651.5L1549 636V630.5H1545.5L1545 639.5H1543.5L1543 637L1541 637.5L1541.5 640.5L1543.5 643V655.5L1537 662V677L1532.5 679V688L1531 690L1535.5 695V697.5H1538.5L1541.5 701.5V711.5L1527.5 725.5L1495 736V723.5L1497 722L1493 718V635L1490 718L1486 722L1488 723.5V737.5L1463 740.5L1467.5 745.5H1475.5L1481.5 752L1476 871H1459.5V866.5H1450L1437.5 861.5L1418.5 860L1408.5 854.5L1396 850L1384.5 849L1353 837L1343.5 835.5L1331 831L1329.5 760H1320L1318.5 829.5H1310.5L1294 835.5L1252 833L1224 834L1214 835.5L1126.5 862.5V821.5L1125.5 867L1115 847L1109.5 852L1105 844L1099.5 848.5L1092 844V839.5H1085.5V841.5L1071.5 834L1050.5 844L1049.5 829.5L1047.5 844H1045.5V839.5L1042 836L1040 841.5L1037.5 845V842.5L1033.5 839.5L1031 842.5H1025V845H1023V841.5L1018 839.5H1004.5V834L1006 831V782.5L1004.5 780H1001L999.5 782.5V790H997V782.5L994.5 780H989L987 782.5V790H984.5V726L982.5 790H980.5V782.5L978.5 780H973L972 782.5V790H968V782.5L966.5 780H963L961.5 782.5V844H959V839.5L956 837.5H947.5V841.5L945.5 842.5V847H929V851H922.5V844H918.5L915 847V851L909.5 849V844H901V850H893.5V844H884.5V847H881.5V850H875.5V844H869V850L865 849V844H849.5V849H841L839.5 847V830.5L834.5 822.25L829 831.5V844H823.5V852.5H820.5V814L812.5 804L812 794.5L811.5 780H807.5L796 769L795.5 761H792V736.5L786 728L785 701L778.5 695.5L771.5 702.5L771 728L766 734.5V761H760.5V769L750 780H745V789.5L743 790.5V803L734.5 811L732.5 823.5V842L722.5 822.25L720.5 812L717 823.5H712V791L684 669.5L654 791V801L649 817L641 823.5L634 817H626L618.5 823.5H599V828.5H594.5V823.5H579.5V891.5L573.5 884L549.5 878H516L509 884V875H502V880L494.5 872V865.5L482.571 863.5L479.5 817L473 871L469 865.5L459 867V878L455.5 859.5V837.5V812L452 801V775.5L447.5 762.5L439.5 650.5L435.5 580.5L429.5 650.5L427 660V669.5L424.5 680.5V694.5L421.5 708V725.5L418.5 746.5V762.5L414.5 771V801L411 812V837.5L410 845.5L408 851L406 854.5V870H392L387.5 817H389.5V815H387.5V804.5L386.5 815H385V817H386.5L382.5 863.5L380.5 870H377.5L376 867H366V870H355.5V867H352V862H346V867H340.5L337 863.5L333 865.5V868H331V862H329V865.5H327L319.5 859.5L316.5 865.5H298.5V857.5H290V862H285V865.5H273.5V868H270.5V865.5H264.5V863.5H257.5V868H249.5V865.5H242.5V863.5H233V868H231V871H226V868H219V871L216.5 872L206 878V872L203.5 873.5V875V880H199L198 873.5H196V875H192V880H168V873.5H166V876.5L158.5 873.5V880L147 873.5Z" fill="#303030"/>
<path d="M435.5 580.5L429.5 650.5L427 660V669.5L424.5 680.5V694.5L421.5 708V725.5L418.5 746.5V762.5L414.5 771V801L411 812V837.5L410 845.5L408 851L406 854.5V870H392L387.5 817H389.5V815H387.5V804.5L386.5 815H385V817H386.5L382.5 863.5L380.5 870H377.5L376 867H366V870H355.5V867H352V862H346V867H340.5L337 863.5L333 865.5V868H331V862H329V865.5H327L319.5 859.5L316.5 865.5H298.5V857.5H290V862H285V865.5H273.5V868H270.5V865.5H264.5V863.5H257.5V868H249.5V865.5H242.5V863.5H233V868H231V871H226V868H219V871L216.5 872L206 878V872L203.5 873.5V875V880H199L198 873.5H196V875H192V880H168V873.5H166V876.5L158.5 873.5V880L147 873.5H6L3.5 877L1 873.5V1700H2001V893H1984V890.5H1980L1978.5 893H1974L1973 894V891H1970V893H1967.5H1966L1960.5 901.5H1957.5V910L1953.5 912L1952 917L1951 914V901.5L1946 895L1944.5 891.5H1928V890H1924.5L1923 891.5H1916.5L1914 890V891.5H1908V893H1901.5V891.5H1899V893H1896.5L1886.5 901.5V912H1884.5V872L1886.5 870.5V868H1877.5L1871.5 866L1845.5 864.5L1844 852L1842 864.5H1832H1819L1812.5 866H1806.5L1805.5 868H1804.5L1803.5 866H1802L1800.5 870.5L1799.5 883H1792.5L1789.5 888.5H1787.5L1784.5 883H1767.5V881H1762.5L1761.5 883H1749.5L1746.5 879V877.5L1762.5 873.5V872M435.5 580.5V559.5M435.5 580.5L439.5 650.5L447.5 762.5L452 775.5V801L455.5 812V837.5V859.5L459 878V867L469 865.5L473 871L479.5 817L482.571 863.5M432 565.5H439.5M483 870L482.571 863.5M482.571 863.5L494.5 865.5V872L502 880V875H509V884L516 878H549.5L573.5 884L579.5 891.5V823.5H594.5V828.5H599V823.5H618.5L626 817H634L641 823.5L649 817L654 801V791L684 669.5L712 791V823.5H717L720.5 812L722.5 822.25M724.5 832.5L722.5 822.25M722.5 822.25L732.5 842V823.5L734.5 811L743 803V790.5L745 789.5V780H750L760.5 769V761H766V734.5L771 728L771.5 702.5L778.5 695.5M778.5 695.5V665.5M778.5 695.5L785 701L786 728L792 736.5V761H795.5L796 769L807.5 780H811.5L812 794.5L812.5 804L820.5 814V852.5H823.5V844H829V831.5L834.5 822.25M776 673.5H782.5M834.5 822.25V814M834.5 822.25L839.5 830.5V847L841 849H849.5V844H865V849L869 850V844H875.5V850H881.5V847H884.5V844H893.5V850H901V844H909.5V849L915 851V847L918.5 844H922.5V851H929V847H945.5V842.5L947.5 841.5V837.5H956L959 839.5V844H961.5V782.5L963 780H966.5L968 782.5V790H972V782.5L973 780H978.5L980.5 782.5V790H982.5L984.5 726V790H987V782.5L989 780H994.5L997 782.5V790H999.5V782.5L1001 780H1004.5L1006 782.5V831L1004.5 834V839.5H1018L1023 841.5V845H1025V842.5H1031L1033.5 839.5L1037.5 842.5V845L1040 841.5L1042 836L1045.5 839.5V844H1047.5L1049.5 829.5L1050.5 844L1071.5 834L1085.5 841.5V839.5H1092V844L1099.5 848.5L1105 844L1109.5 852L1115 847L1125.5 867L1126.5 821.5V862.5L1214 835.5M1214 835.5L1215 817.5M1214 835.5L1224 834M1210.5 820H1228M1223 817.5L1224 834M1224 834L1252 833L1294 835.5L1310.5 829.5H1318.5L1320 760H1329.5L1331 831L1343.5 835.5L1353 837L1384.5 849L1396 850L1408.5 854.5L1418.5 860L1437.5 861.5L1450 866.5H1459.5V871H1476L1481.5 752L1475.5 745.5H1467.5L1463 740.5L1488 737.5V723.5L1486 722L1490 718L1493 635V718L1497 722L1495 723.5V736L1527.5 725.5L1541.5 711.5V701.5L1538.5 697.5H1535.5V695L1531 690L1532.5 688V679L1537 677V662L1543.5 655.5V643L1541.5 640.5L1541 637.5L1543 637L1543.5 639.5H1545L1545.5 630.5H1549V636L1549.5 651.5L1548.5 654L1549.5 655.5V657.5H1551.5L1556 654L1558 537.5L1556.5 536L1556 531.5H1552.5V529.5L1555.5 527.5L1544 527L1535 523V520.5L1542.5 519.5V516.5H1547L1547.5 519H1552L1558 515.5L1558.5 510.5L1561.5 508.5L1562 504.5L1565.5 502V497H1563.5V494.5L1565.5 493V488.5H1566.5V493L1569 495V496.5L1567.5 497V502L1569.5 505L1576 499V495H1573V494L1576 491V486H1577V491L1579.5 493V495L1577.5 496V498L1581 501.5L1598.5 476.5L1600 467.5L1597 459.5L1593 454.5L1585 446.5V436.5L1605.5 411L1606 401L1602.5 397.5L1601.5 396V393L1602.5 391.5L1606.5 388V384L1605.5 382.5V380.5L1607.5 378.5V350.304L1584 334.5L1579 328.5L1578.5 326H1569.5L1569 324.5V321L1566 319V317L1567.5 316H1572L1572.5 319H1577V317H1575V315.5L1579 313L1582.5 315.5V317H1581V319H1585.5V317H1590L1592 318.5V320L1588.5 322L1587.5 326H1581L1582.5 329L1586 333L1607.5 347.5V341H1599V336.5L1597.5 335H1596V333H1597.5L1598.5 331.5H1601L1601.5 332.5H1602.5L1602 334V335H1605.5L1607 332.5H1604.5V331L1609 328L1613 331V332H1612V335L1615 335.5L1615.5 332.5H1621.5V335L1616.5 341H1610V347.5L1633 334L1637.5 327H1631.5L1630.5 326L1630 322.5L1628.5 321.5L1627.5 320.5L1627 319L1628.5 317.5H1631.5L1633.5 318V321H1636L1638 319.5V318.5L1636.5 318V316H1638L1640.5 313.5L1642 316H1643.5L1644 318H1642.5V319.5L1646.5 321.5L1647 318H1652L1654 319.5L1650 323L1648.5 327H1640L1635 335L1610 350.304V378.5L1611.5 380.5V382.5L1611 384V388L1614 391.5L1615 394V397L1611 401L1611.5 411L1616.5 421.5L1629 436H1630V449L1618.5 459L1616 465.5L1615.5 471.5L1616.5 472L1615.5 473.5V476L1616 478.5L1634 503L1635.5 499.5L1635 498H1632.5V496L1635.5 493.5V489.5H1636.5V493.5L1639.5 495V497.5L1638.5 498.5V503L1640.5 504.5V508.5L1642 508L1642.5 504.5L1645.5 501L1646.5 497.5V497L1644.5 496.5V494.5L1646.5 492L1647.5 488.5L1648.5 493L1650 495H1651.5V496H1649.5V501L1654 507.5V510L1656.5 512L1655.5 513V513.5H1656.5L1657.5 516H1660V520H1666.5V518.5H1670V521H1673V522H1679V523H1678V524H1677V525H1676V526H1674V527H1673H1670V528H1669V529H1660V531.5L1656.5 532L1655.5 534V536.5L1654.5 538V543V555.5V569.5V591.5V605.5V627V642.5V654.5V656L1659.5 658L1660 653L1659.5 652.5L1660 640.5L1658.5 640L1660 638V635H1662V631H1664L1664.5 635H1666V638H1668V640L1666 640.5V649L1665.5 650V654.5L1666 658L1669 662H1673V680H1676.5V690L1678 691V692.5L1676.5 694.5L1673 698V699H1672V700H1669L1668 701V702H1667V703L1666 704V705.5V709.5V712H1667V715.5L1668 716L1669 719L1672 722L1685 731L1698 736L1712 739.5V728L1711 727.5V725.5L1714 723L1717.5 638V723L1720.5 725.5V727.5L1719.5 728V740.5L1727.5 741.5V739.5H1729V741.5L1733 743L1739 744H1745.5L1741 747.5L1733 748.5L1726 754.5L1727.58 856M1727.89 876L1728 883H1739.5L1740.5 877.5L1727.89 876ZM1727.89 876L1727.84 872.5M1727.84 872.5L1741 873.5L1741.5 848M1727.84 872.5L1727.58 856M1741.5 848H1743M1741.5 848L1727.58 856M1743 848L1746.5 874.5L1762.5 872M1743 848L1762.5 872" stroke="#9A9A9A"/>
<path d="M1057 914.5L1052 920L1031.5 938V989.5V1005.5L1057 1018.5L1072 1009.5L1087.5 1016L1106 1021L1119 1014.5L1125.5 1018.5L1142 1012.5V996.5L1147 995.5L1152 988.5L1158 999V1009.5L1161 1014.5L1173 1016L1178 1009.5L1189.5 1012.5L1206.5 1023.5L1216 1012.5H1222.5L1227 1016L1243 1018.5L1249.5 1028.5H1274L1283.5 1034V1042H1292V1032L1295.5 1028.5L1307.5 1044L1317.5 1025L1322.5 1023.5L1315.5 1047L1353 1053.5H1363.5L1360.5 1036.5H1367.5V1021H1375.5V1009.5L1383.5 999L1406 996.5V981.5H1427.5L1429 995.5L1451.5 984.5L1472.37 970L1473.5 928.5H1467.5L1454.5 925V916.5L1448.5 915.5V912.5L1446 910.5L1443.5 907.5L1445 906.5V905L1442.5 902.5L1441.5 880.5V877L1436.5 871H1431.5L1429 873.5L1426.5 877V882.5L1427.5 883.5L1426.5 902.5H1424L1421 901.5L1413.5 903.5H1410.5V899H1406V902L1400 905L1392 904L1391.5 900H1390L1389 899H1388V904H1386.5L1383.5 902.5L1378 910.5L1372.5 906.5L1371.73 902.5L1370 902L1369 906L1367.5 904L1363.5 899H1360.5L1359.5 900.5H1357V902.5H1353V907.5H1348.5V902.5L1346 900.5L1345.5 903.5V907.5H1343L1342.5 902.5H1339.5H1336.5L1335.5 885L1335 902.5H1330V907.5H1324V903.5L1322.5 902V894.5L1322 893.5H1320L1318.5 894.5V903.5H1320V907.5H1315.5V901.5H1314.5V904.5H1311V902.5L1310.5 901.5H1309L1308.5 902.5V907.5H1306V904.5L1303 905.5V901.5H1300V899L1295.5 896.5L1294.5 894L1292.77 896.5L1293 905.5L1291 905L1290 901.5V897.5L1287 896.5H1286L1284 897.5V899.5L1283.5 901L1278 900L1274 901L1273 905.5L1269 908L1267.5 907L1265.5 904L1265 896.5H1259V903L1258 905.5H1256.5L1256 898L1254.5 896.5L1251.5 897.5V906L1250.5 907.5L1249 903H1241.5V907.5H1227V903.5L1222.5 903L1221.5 903.5L1217 904.5H1216V907.5H1204.5V903L1203.5 901L1202 900.5L1200.5 902L1195 910H1192.5L1189.5 911V913L1178 918.5L1173 920L1168.5 916.5L1165.5 918H1164.5L1161 916L1153 917.5H1146L1137 920L1135.5 918.5L1135 914H1132L1131 917L1128 913H1125.5V914V916H1123.5V914.5L1122.5 913L1119 912.5L1116 914.5H1114L1113 912L1111.5 912.5L1110.5 914.5L1109.5 916L1106 911L1102 914.5L1098 911L1095 912.5L1096 917L1095 917.5H1083V912L1080.5 908.5L1070 910.5V914.5H1063.5V904.5H1057V914.5Z" fill="#505050"/>
<path d="M163.5 1066L1 1048.5V1699.5H2001V951H1962.5L1953 941L1950.5 944L1936 944.5L1914.5 917H1884.5H1874L1873.5 914.5H1868L1867.5 916.5L1830.5 916H1820.5L1817 912.5L1813 916L1809 916.5L1808.5 913H1806L1805 916H1796L1795 914H1789V915.5H1756V914H1751V915.5H1739L1728.5 930L1728 1168.5L1762 1170L1765.5 1159V1156.5V1151.5L1763 1150.5L1762 1147.5L1762.5 1144.5L1767.5 1147.5V1144.5L1768.5 1143L1771.5 1144V1146.5L1775.5 1150V1153H1771.5V1157.5V1162.5L1772 1164V1165L1771.5 1166.5V1168.5L1772.5 1170L1889 1175.5L1888.5 1173V1172H1889V1169.5L1888.5 1168L1890 1166.5L1891.5 1165L1895 1163.5L1898.5 1161.5L1902.5 1159L1905 1155.5V1150.5L1903.5 1149.5V1147L1904 1144L1905 1142.5V1141L1905.5 1137H1905L1903.5 1136.5V1133.5V1131L1904 1129L1905 1127.5H1906.5L1908 1128.5L1909 1130.5V1133.5L1908.5 1136.5V1142.5L1910 1144V1157L1913 1158L1914 1160.5L1917.5 1163.5L1921 1167.5L1923.5 1170V1174L1922.5 1176.5H1929L1932.5 1174V1172V1168L1934.5 1163.5V1161.5L1933 1159.5V1157L1934 1154L1936 1152L1936.5 1148H1938.5V1152L1940 1153.5V1159V1162.5L1945 1175.5L1999 1178.5V1192.5L1299.5 1171H1250.5V1166.5V1163L1248.5 1159L1249.5 1153L1252 1150V1148L1248.5 1147L1249.5 1143L1246.5 1138.5L1245 1135L1243 1138.5V1143L1241.5 1147V1154.5V1163V1177L1208 1211L1178 1232.5V1151L1184.5 1143H1178L1168.5 1135L1173 1131.5L1168.5 1117L1161 1113L1164.5 1107.5L1156.5 1102.5V1090L1161 1086L1156.5 1076L1153 1059L1146 1034L1142 1059L1132 1086L1135 1090V1102.5L1131 1107.5V1117L1122.5 1122V1138.5L1106 1147L1116 1154.5L1109.5 1257L1096 1270L1109.5 1278V1317.5L1096 1330.5H1052L1037.5 1317.5H1010.5L996 1330.5H978.5V1353H959.5L942 1330.5L894.5 1278V1154.5L901.5 1151L810 1117L727.5 1115H673.5L630 1097L624.5 1070.5V1004.5H730.5V1112L806 1110L868 1131.5V1001.5L928.5 999H978.5L1031.5 989.5V938L1052 920L968 924L959.5 858L948.5 931L921.5 933.5V940L948.5 942V963.5L942 968.5V975L945 977.5V989.5H868L861 984.5L858.5 975L847 968.5H830V967L820 963.5V957.5H818V955.5L822 953.5V951H818L816.5 948.5L803.5 944L794.5 946L782.5 951L778.5 953.5V962.5L723.5 962V960L721 954.5L723.5 952.5L700 949L690 951V953.5H694L695 962L650.5 962.5V964.5H648L642 962L638 960V956.5L636.5 952.5L634 956.5V944L632 940L627.5 938H599.5L591.5 940L590.5 944L591.5 964.5L598 968V976.5L591.5 977.5H579.5V987L576 990V999L596 1004.5V1063.5L585.5 1070.5L569.5 1063.5L555.5 1067L547 1063.5L531.5 1067L516 1070.5L513 1067L507.5 1052V980.5H482.5V990V996L485 999L489 1001L488.5 1003L485.5 1004.5V1035.5L491.5 1043V1110L434.5 1129L366.5 1117L368.5 1080.5V1045.5L366.5 1043L375 1035.5L373.5 1004.5L371 1001.5V999.5L376.5 996.5V990L378 984V977.5H351L348 986H298L301.5 976.5H263L261.5 977.5L242 959.5H230.5L233 955.5L232.5 951L229.5 947.5L229 939L226 937L223 939V944L220 941L221 939L223 937V935.5L221.5 932L217.5 930H213L209.5 933.5V937L211 939.5V942L206 947L205 945.5V942.5V939.5L201 937L199 942V947L201 950L199 954.5L200 959.5H180.5L163.5 1021V1066Z" fill="#505050"/>
<path d="M1052 920L968 924L959.5 858L948.5 931L921.5 933.5V940L948.5 942V963.5L942 968.5V975L945 977.5V989.5H868L861 984.5L858.5 975L847 968.5H830V967L820 963.5V957.5H818V955.5L822 953.5V951H818L816.5 948.5L803.5 944L794.5 946L782.5 951L778.5 953.5V962.5L723.5 962V960L721 954.5L723.5 952.5L700 949L690 951V953.5H694L695 962L650.5 962.5V964.5H648L642 962L638 960V956.5L636.5 952.5L634 956.5V944L632 940L627.5 938H599.5L591.5 940L590.5 944L591.5 964.5L598 968V976.5L591.5 977.5H579.5V987L576 990V999L596 1004.5V1063.5L585.5 1070.5L569.5 1063.5L555.5 1067L547 1063.5L531.5 1067L516 1070.5L513 1067L507.5 1052V980.5H482.5V990V996L485 999L489 1001L488.5 1003L485.5 1004.5V1035.5L491.5 1043V1110L434.5 1129L366.5 1117L368.5 1080.5V1045.5L366.5 1043L375 1035.5L373.5 1004.5L371 1001.5V999.5L376.5 996.5V990L378 984V977.5H351L348 986H298L301.5 976.5H263L261.5 977.5L242 959.5H230.5L233 955.5L232.5 951L229.5 947.5L229 939L226 937L223 939V944L220 941L221 939L223 937V935.5L221.5 932L217.5 930H213L209.5 933.5V937L211 939.5V942L206 947L205 945.5V942.5V939.5L201 937L199 942V947L201 950L199 954.5L200 959.5H180.5L163.5 1021V1066L1 1048.5V1699.5H2001V951H1962.5L1953 941L1950.5 944L1936 944.5L1914.5 917H1884.5H1874L1873.5 914.5H1868L1867.5 916.5L1830.5 916H1820.5L1817 912.5L1813 916L1809 916.5L1808.5 913H1806L1805 916H1796L1795 914H1789V915.5H1756V914H1751V915.5H1739L1728.5 930L1728 1168.5L1762 1170L1765.5 1159V1156.5V1151.5L1763 1150.5L1762 1147.5L1762.5 1144.5L1767.5 1147.5V1144.5L1768.5 1143L1771.5 1144V1146.5L1775.5 1150V1153H1771.5V1157.5V1162.5L1772 1164V1165L1771.5 1166.5V1168.5L1772.5 1170L1889 1175.5L1888.5 1173V1172H1889V1169.5L1888.5 1168L1890 1166.5L1891.5 1165L1895 1163.5L1898.5 1161.5L1902.5 1159L1905 1155.5V1150.5L1903.5 1149.5V1147L1904 1144L1905 1142.5V1141L1905.5 1137H1905L1903.5 1136.5V1133.5V1131L1904 1129L1905 1127.5H1906.5L1908 1128.5L1909 1130.5V1133.5L1908.5 1136.5V1142.5L1910 1144V1157L1913 1158L1914 1160.5L1917.5 1163.5L1921 1167.5L1923.5 1170V1174L1922.5 1176.5H1929L1932.5 1174V1172V1168L1934.5 1163.5V1161.5L1933 1159.5V1157L1934 1154L1936 1152L1936.5 1148H1938.5V1152L1940 1153.5V1159V1162.5L1945 1175.5L1999 1178.5V1192.5L1299.5 1171M1052 920L1057 914.5V904.5H1063.5V914.5H1070V910.5L1080.5 908.5L1083 912V917.5H1095L1096 917L1095 912.5L1098 911L1102 914.5L1106 911L1109.5 916L1110.5 914.5L1111.5 912.5L1113 912L1114 914.5H1116L1119 912.5L1122.5 913L1123.5 914.5V916H1125.5V914V913H1128L1131 917L1132 914H1135L1135.5 918.5L1137 920L1146 917.5H1153L1161 916L1164.5 918H1165.5L1168.5 916.5L1173 920L1178 918.5L1189.5 913V911L1192.5 910H1195L1200.5 902L1202 900.5L1203.5 901L1204.5 903V907.5H1216V904.5H1217L1221.5 903.5L1222.5 903L1227 903.5V907.5H1241.5V903H1249L1250.5 907.5L1251.5 906V897.5L1254.5 896.5L1256 898L1256.5 905.5H1258L1259 903V896.5H1265L1265.5 904L1267.5 907L1269 908L1273 905.5L1274 901L1278 900L1283.5 901L1284 899.5V897.5L1286 896.5H1287L1290 897.5V901.5L1291 905L1293 905.5L1292.77 896.5L1294.5 894L1295.5 896.5L1300 899V901.5H1303V905.5L1306 904.5V907.5H1308.5V902.5L1309 901.5H1310.5L1311 902.5V904.5H1314.5V901.5H1315.5V907.5H1320V903.5H1318.5V894.5L1320 893.5H1322L1322.5 894.5V902L1324 903.5V907.5H1330V902.5H1335L1335.5 885L1336.5 902.5H1339.5H1342.5L1343 907.5H1345.5V903.5L1346 900.5L1348.5 902.5V907.5H1353V902.5H1357V900.5H1359.5L1360.5 899H1363.5L1367.5 904L1369 906L1370 902L1371.73 902.5L1372.5 906.5L1378 910.5L1383.5 902.5L1386.5 904H1388V899H1389L1390 900H1391.5L1392 904L1400 905L1406 902V899H1410.5V903.5H1413.5L1421 901.5L1424 902.5H1426.5L1427.5 883.5L1426.5 882.5V877L1429 873.5L1431.5 871H1436.5L1441.5 877V880.5L1442.5 902.5L1445 905V906.5L1443.5 907.5L1446 910.5L1448.5 912.5V915.5L1454.5 916.5V925L1467.5 928.5H1473.5L1472.37 970M1052 920L1031.5 938V989.5M1299.5 1171L1467 1167.5L1472.37 970M1299.5 1171H1250.5V1166.5V1163L1248.5 1159L1249.5 1153L1252 1150V1148L1248.5 1147L1249.5 1143L1246.5 1138.5L1245 1135L1243 1138.5V1143L1241.5 1147V1154.5V1163V1177L1208 1211L1178 1232.5V1151L1184.5 1143H1178L1168.5 1135L1173 1131.5L1168.5 1117L1161 1113L1164.5 1107.5L1156.5 1102.5V1090L1161 1086L1156.5 1076L1153 1059L1146 1034L1142 1059L1132 1086L1135 1090V1102.5L1131 1107.5V1117L1122.5 1122V1138.5L1106 1147L1116 1154.5L1109.5 1257L1096 1270L1109.5 1278V1317.5L1096 1330.5H1052L1037.5 1317.5H1010.5L996 1330.5H978.5V1353H959.5L942 1330.5L894.5 1278V1154.5L901.5 1151L810 1117L727.5 1115H673.5L630 1097L624.5 1070.5V1004.5M624.5 1004.5H634H730.5M624.5 1004.5H730.5M730.5 1004.5V1112L806 1110L868 1131.5V1001.5L928.5 999H978.5L1031.5 989.5M1031.5 989.5V1005.5L1057 1018.5L1072 1009.5L1087.5 1016L1106 1021L1119 1014.5L1125.5 1018.5L1142 1012.5V996.5L1147 995.5L1152 988.5L1158 999V1009.5L1161 1014.5L1173 1016L1178 1009.5L1189.5 1012.5L1206.5 1023.5L1216 1012.5H1222.5L1227 1016L1243 1018.5L1249.5 1028.5H1274L1283.5 1034V1042H1292V1032L1295.5 1028.5L1307.5 1044L1317.5 1025L1322.5 1023.5L1315.5 1047L1353 1053.5H1363.5L1360.5 1036.5H1367.5V1021H1375.5V1009.5L1383.5 999L1406 996.5V981.5H1427.5L1429 995.5L1451.5 984.5L1472.37 970" stroke="#505050"/>
<path d="M1 1144H10.5L42 1126.5L64.5 1107H80L83.5 1090L88 1083V1057.5L94.5 1042.5L100 978.5L104.5 1042.5L109.5 1057.5V1080L115.5 1086.5V1104L121.5 1100.5H127V1107H135.5L134.5 1098.5H150.5V1104L163.5 1107V1033.5L165 1107H176.5V1100.5L180.5 1098.5L182.25 1102.75H187.5L190.5 1107L198 1100.5L202 1104L206 1111.5H218.5L237 1107V1100.5H244.5L251 1114.5V1104H261.5L265 1111.5H272.5L278 1102.75L281.5 1104V1131L316.5 1126.5L333.5 1139L361 1122L371 1123L374.5 1116.5V1105L371 1102L374.5 1095.5L383.5 1089.5L384.5 1080.5L382.5 1077L386 1071L389.5 1077L388 1080.5L389.5 1089.5L398 1095.5L400.5 1102L399 1105V1116.5V1121L406 1123V1125L410.5 1129.5L424.5 1125H459.5L461 1115.5L459.5 1114V1112H467L470.5 1116.5L475 1118.5L482 1121H486V1112H484.5V1109.5L489.5 1106L496 1102L504.5 1099V1088L501.5 1084.5L508.5 1076.5V1074L506.5 1072V1070L508.5 1068.5H512.5L514 1070V1072L512.5 1074V1076.5L519 1079.5V1086L517.5 1090V1099L526 1102L531 1106L534.5 1112H533V1118.5L538 1123L545.5 1127.5L548.5 1125L562 1123V1115.5L566.5 1114L571 1116.5V1114L584 1116.5H586L586.5 1114L593 1114.5L594.5 1116.5H601.5L602.5 1114.5L609.5 1114L610 1116.5L611.5 1118L612.5 1116V1112L617 1109.5L617.5 1107L618 1103L621 1101H622.5L624.5 1105L626 1108.5L626.5 1112L626 1114L624.5 1114.5L624 1115.5L624.5 1116H626L631 1116.5L635 1123L633.5 1127.5L637.5 1133L640 1139L652.5 1147.5V1131L649.5 1125L652.5 1123V1116.5L656.5 1109.5H660L662 1115.5L664 1118V1123V1125L670 1121.5V1118L677 1112L681 1114V1109.5L679.5 1107L696.5 1092.5V1083L702.5 1074L699 1067L704.5 1064L709.5 1067L707 1074L713.5 1083V1092.5L729.5 1107L726.5 1114L812.5 1118L900.5 1147.5L893 1155.5V1280.5V1346L967.5 1367V1346L990.5 1322.5H1005.5V1333.5H1054H1092L1099 1325.5L1151 1329V1322.5L1181 1318.5V1329H1193.5V1322.5H1250.5V1333.5L1309.5 1337V1325.5L1323 1321.5V1308.5H1328L1329.5 1323L1332.5 1318.5V1306H1337V1318.5H1346.5L1358 1315L1354.5 1304L1358 1298.5H1373.5L1379 1287.5V1281.5L1384.5 1278.5L1417.5 1270V1259.5L1415.5 1257L1458 1246L1465 1243.5V1242L1461.5 1240.5L1466 1217H1478L1482.5 1226.5V1238L1479.5 1242H1482.5L1532.5 1232L1565 1230.5L1567 1213H1586.5V1230.5H1594.5L1598 1235.5H1636.5L1639 1224.5H1646.5L1659.5 1217L1670 1226.5L1681.5 1217L1693 1224.5L1706 1217L1716 1226.5L1729.5 1217L1739.5 1226.5L1752 1217L1763 1226.5V1230.5L1771.5 1232L1775 1242H1795.5L1804 1248L1814.5 1242V1230.5V1224.5L1820 1208H1839.5L1841.5 1213H1854L1857 1224.5L1864.5 1235.5L1866.5 1242L1878 1248L1885 1240L1891 1246L1897.5 1242V1235.5V1230.5H1907L1910 1235.5V1240V1246H1920V1237.5L1924.5 1235.5H1939V1230.5V1226.5L1942.5 1224.5H1958.5L1960.5 1246L1973 1237.5L2001 1248V1700H1V1144Z" fill="#808080"/>
<path d="M184 1107L182.25 1102.75M182.25 1102.75L180.5 1098.5L176.5 1100.5V1107H165L163.5 1033.5V1107L150.5 1104V1098.5H134.5L135.5 1107H127V1100.5H121.5L115.5 1104V1086.5L109.5 1080V1057.5L104.5 1042.5L100 978.5L94.5 1042.5L88 1057.5V1083L83.5 1090L80 1107H64.5L42 1126.5L10.5 1144H1V1700H2001V1248L1973 1237.5L1960.5 1246L1958.5 1224.5H1942.5L1939 1226.5V1230.5V1235.5H1924.5L1920 1237.5V1246H1910V1240V1235.5L1907 1230.5H1897.5V1235.5V1242L1891 1246L1885 1240L1878 1248L1866.5 1242L1864.5 1235.5L1857 1224.5L1854 1213H1841.5L1839.5 1208H1820L1814.5 1224.5V1230.5V1242L1804 1248L1795.5 1242H1775L1771.5 1232L1763 1230.5V1226.5L1752 1217L1739.5 1226.5L1729.5 1217L1716 1226.5L1706 1217L1693 1224.5L1681.5 1217L1670 1226.5L1659.5 1217L1646.5 1224.5H1639L1636.5 1235.5H1598L1594.5 1230.5H1586.5V1213H1567L1565 1230.5L1532.5 1232L1482.5 1242H1479.5L1482.5 1238V1226.5L1478 1217H1466L1461.5 1240.5L1465 1242V1243.5L1458 1246L1415.5 1257L1417.5 1259.5V1270L1384.5 1278.5L1379 1281.5V1287.5L1373.5 1298.5H1358L1354.5 1304L1358 1315L1346.5 1318.5H1337V1306H1332.5V1318.5L1329.5 1323L1328 1308.5H1323V1321.5L1309.5 1325.5V1337L1250.5 1333.5V1322.5H1193.5V1329H1181V1318.5L1151 1322.5V1329L1099 1325.5L1092 1333.5H1054H1005.5V1322.5H990.5L967.5 1346V1367L893 1346V1280.5V1155.5L900.5 1147.5L812.5 1118L726.5 1114L729.5 1107L713.5 1092.5V1083L707 1074L709.5 1067L704.5 1064L699 1067L702.5 1074L696.5 1083V1092.5L679.5 1107L681 1109.5V1114L677 1112L670 1118V1121.5L664 1125V1123V1118L662 1115.5L660 1109.5H656.5L652.5 1116.5V1123L649.5 1125L652.5 1131V1147.5L640 1139L637.5 1133L633.5 1127.5L635 1123L631 1116.5L626 1116H624.5L624 1115.5L624.5 1114.5L626 1114L626.5 1112L626 1108.5L624.5 1105L622.5 1101H621L618 1103L617.5 1107L617 1109.5L612.5 1112V1116L611.5 1118L610 1116.5L609.5 1114L602.5 1114.5L601.5 1116.5H594.5L593 1114.5L586.5 1114L586 1116.5H584L571 1114V1116.5L566.5 1114L562 1115.5V1123L548.5 1125L545.5 1127.5L538 1123L533 1118.5V1112H534.5L531 1106L526 1102L517.5 1099V1090L519 1086V1079.5L512.5 1076.5V1074L514 1072V1070L512.5 1068.5H508.5L506.5 1070V1072L508.5 1074V1076.5L501.5 1084.5L504.5 1088V1099L496 1102L489.5 1106L484.5 1109.5V1112H486V1121H482L475 1118.5L470.5 1116.5L467 1112H459.5V1114L461 1115.5L459.5 1125H424.5L410.5 1129.5L406 1125V1123L399 1121V1116.5V1105L400.5 1102L398 1095.5L389.5 1089.5L388 1080.5L389.5 1077L386 1071L382.5 1077L384.5 1080.5L383.5 1089.5L374.5 1095.5L371 1102L374.5 1105V1116.5L371 1123L361 1122L333.5 1139L316.5 1126.5L281.5 1131V1104L278 1102.75L272.5 1111.5H265L261.5 1104H251V1114.5L244.5 1100.5H237V1107L218.5 1111.5H206L202 1104L198 1100.5L190.5 1107L187.5 1102.75H182.25Z" stroke="#808080"/>
<path fill-rule="evenodd" clip-rule="evenodd" d="M10 1516L1 1515V1700H656L657 1596L659 1595V1581.5H648L622 1578L621 1420L623 1418V1415L620.5 1413L619.5 1411H617.5L616.5 1413L613.5 1415.5L614.5 1418L617.5 1420V1424L616 1427.5L605.5 1452L597 1487L588.5 1520.5L583.5 1534L580.5 1546L578 1559.58L580.5 1571.89L591 1563V1556.5L597 1546L605.5 1534L616 1527.5V1576L580.5 1571.89L474 1559.58V1526.5L479 1520.5L480.5 1485.5L475.5 1448V1416L477.5 1413.5V1411L473.5 1407L469 1411V1413.5L471.5 1416V1422L431.5 1480.5L436 1559.58L467 1527.5V1563L436 1559.58L313 1546V1410L314.5 1408V1405V1403.5H311.5V1401H308.5V1403.5L306 1405V1408L308.5 1410V1414.5L289.5 1458L286.5 1462L281 1477L278 1481L276.5 1487L275 1491.5L272.5 1494.5L271.5 1497.5L269.5 1499.5L268.5 1502.5H267V1505L265 1506.5L262.5 1513L256.5 1525V1530.5L258 1534V1540.5L168 1532L170.5 1404.5L172.5 1402.5V1399L170 1396.5L168 1394L166 1397L163.5 1399.5V1402.5L166 1404.5V1411.5L160.5 1420L156.5 1428.5L152 1440.5L144 1459.5L140.5 1464.5L142.5 1468.5L140 1471.5L139.5 1477L138.5 1481.5L136.5 1483L135.5 1485.5L135 1491.5V1496L132 1501.5L129.5 1506L127 1508L125 1509V1513.5L123.5 1515V1518.5L122 1522H120.5L120 1527.5L16 1517L16.5 1401L18.5 1399V1397.5L16 1394H15L12.5 1397.5V1399L14 1401L13.5 1413L12 1411L1 1426V1493L10 1496V1516ZM299 1510L294 1544L306 1545V1506.5L299 1510ZM162.5 1503L161 1531L139 1529V1527.5V1525.5L139.5 1520.5L141 1518.5L142 1514L143.5 1511.5L148 1508L159 1501L161.5 1500.5L162.5 1503Z" fill="#9A9A9A"/>
<path d="M699.5 1683L697.5 1700H2001V1465L1974 1429L1890 1544.5H1783.5L1602 1559V1544.5L1610 1528L1602 1511H1593.5V1503H1590V1511H1584L1578 1528L1584 1544.5V1559H1565V1586H1537.5H1520V1559H1496L1487 1562.5V1586L1385.5 1582V1556.5H1377.5V1549.5H1369.5V1556.5L1359 1559V1556.5H1338V1578.5L1322 1575H1305.5L1301.5 1549.5L1293 1544.5L1278 1549.5L1273 1559V1592L1268 1612H1250V1578.5L1240 1575L1233.5 1567L1223 1575H1207.5V1684L1188.5 1680.5V1655L1181 1636.5H1174.5L1169.5 1644L1161.5 1666.5H1143.5L1128 1655L1117.5 1644H1085.5L1071 1657.5L1046 1636.5L1032 1660.5L1006.5 1655L991.5 1625.5L984.5 1612L979 1600.5L977 1592L979 1590L977 1588V1586.5V1563L981.5 1559L961 1544.5L955 1527.5L950.5 1499L932.5 1469L915.5 1442L909.5 1417V1395.5H853L848.5 1426.5L843.5 1442L828.5 1461L812 1483L805 1504L802 1527.5L794.5 1541L789 1538H785.5L782 1536L777.5 1538V1544.5H769L764 1541V1556.5L775 1559L782 1563L780 1581.5L777.5 1586.5L780 1588L761 1622H756L750.5 1624.5L748.5 1631L745.5 1636.5V1642.5L743.5 1650.5L736.5 1660.5L738.5 1656L735 1653.5V1650.5L736.5 1646.5L732.5 1644L729.5 1646.5L731 1650.5V1653.5L727.5 1656L729.5 1660.5H721.5V1657.5L724.5 1653.5L717.5 1646.5L713.5 1642.5V1639.5L717.5 1634.5V1631L713.5 1626L709.5 1624.5L705 1626L702.5 1631V1634.5L705 1639.5L702.5 1646.5L694.5 1650.5V1653.5L699.5 1660.5L697.5 1672.5V1679L699.5 1683Z" fill="#9A9A9A"/>
<path d="M1 1515L1.05522 1514.5L0.5 1514.44V1515H1ZM10 1516L9.94478 1516.5L10.5 1516.56V1516H10ZM10 1496H10.5V1495.64L10.1581 1495.53L10 1496ZM1 1493H0.5V1493.36L0.841886 1493.47L1 1493ZM1 1426L0.596798 1425.7L0.5 1425.84V1426H1ZM12 1411L12.4 1410.7L11.9955 1410.16L11.5968 1410.7L12 1411ZM13.5 1413L13.1 1413.3L13.9412 1414.42L13.9996 1413.02L13.5 1413ZM14 1401L14.4996 1401.02L14.507 1400.84L14.4 1400.7L14 1401ZM12.5 1399H12V1399.17L12.1 1399.3L12.5 1399ZM12.5 1397.5L12.0931 1397.21L12 1397.34V1397.5H12.5ZM15 1394V1393.5H14.7427L14.5931 1393.71L15 1394ZM16 1394L16.4069 1393.71L16.2573 1393.5H16V1394ZM18.5 1397.5H19V1397.34L18.9069 1397.21L18.5 1397.5ZM18.5 1399L18.8536 1399.35L19 1399.21V1399H18.5ZM16.5 1401L16.1464 1400.65L16.0009 1400.79L16 1401L16.5 1401ZM16 1517L15.5 1517L15.498 1517.45L15.9498 1517.5L16 1517ZM120 1527.5L119.95 1528L120.452 1528.05L120.498 1527.55L120 1527.5ZM120.5 1522V1521.5H120.043L120.002 1521.95L120.5 1522ZM122 1522V1522.5H122.33L122.46 1522.2L122 1522ZM123.5 1518.5L123.96 1518.7L124 1518.6V1518.5H123.5ZM123.5 1515L123.146 1514.65L123 1514.79V1515H123.5ZM125 1513.5L125.354 1513.85L125.5 1513.71V1513.5H125ZM125 1509L124.776 1508.55L124.5 1508.69V1509H125ZM127 1508L127.224 1508.45L127.271 1508.42L127.312 1508.39L127 1508ZM129.5 1506L129.812 1506.39L129.889 1506.33L129.937 1506.24L129.5 1506ZM132 1501.5L132.437 1501.74L132.439 1501.74L132 1501.5ZM135 1496L135.439 1496.24L135.5 1496.13V1496H135ZM135 1491.5L134.502 1491.46L134.5 1491.48V1491.5H135ZM135.5 1485.5L135.036 1485.31L135.008 1485.38L135.002 1485.46L135.5 1485.5ZM136.5 1483L136.2 1482.6L136.088 1482.68L136.036 1482.81L136.5 1483ZM138.5 1481.5L138.8 1481.9L138.948 1481.79L138.988 1481.61L138.5 1481.5ZM139.5 1477L139.988 1477.11L139.995 1477.08L139.998 1477.05L139.5 1477ZM140 1471.5L139.616 1471.18L139.516 1471.3L139.502 1471.45L140 1471.5ZM142.5 1468.5L142.884 1468.82L143.093 1468.57L142.947 1468.28L142.5 1468.5ZM140.5 1464.5L140.09 1464.21L139.92 1464.46L140.053 1464.72L140.5 1464.5ZM144 1459.5L144.41 1459.79L144.44 1459.74L144.461 1459.69L144 1459.5ZM152 1440.5L152.461 1440.69L152.465 1440.68L152.468 1440.68L152 1440.5ZM156.5 1428.5L156.048 1428.29L156.039 1428.31L156.032 1428.32L156.5 1428.5ZM160.5 1420L160.08 1419.73L160.062 1419.76L160.048 1419.79L160.5 1420ZM166 1411.5L166.42 1411.77L166.5 1411.65V1411.5H166ZM166 1404.5H166.5V1404.26L166.312 1404.11L166 1404.5ZM163.5 1402.5H163V1402.74L163.188 1402.89L163.5 1402.5ZM163.5 1399.5L163.146 1399.15L163 1399.29V1399.5H163.5ZM166 1397L166.354 1397.35L166.389 1397.32L166.416 1397.28L166 1397ZM168 1394L168.39 1393.69L167.963 1393.15L167.584 1393.72L168 1394ZM170 1396.5L169.61 1396.81L169.627 1396.83L169.646 1396.85L170 1396.5ZM172.5 1399H173V1398.79L172.854 1398.65L172.5 1399ZM172.5 1402.5L172.854 1402.85L173 1402.71V1402.5H172.5ZM170.5 1404.5L170.146 1404.15L170.004 1404.29L170 1404.49L170.5 1404.5ZM168 1532L167.5 1531.99L167.491 1532.45L167.953 1532.5L168 1532ZM258 1540.5L257.953 1541L258.5 1541.05V1540.5H258ZM258 1534H258.5V1533.9L258.46 1533.8L258 1534ZM256.5 1530.5H256V1530.6L256.04 1530.7L256.5 1530.5ZM256.5 1525L256.053 1524.78L256 1524.88V1525H256.5ZM262.5 1513L262.947 1513.22L262.958 1513.2L262.967 1513.18L262.5 1513ZM265 1506.5L264.7 1506.1L264.585 1506.19L264.533 1506.32L265 1506.5ZM267 1505L267.3 1505.4L267.5 1505.25V1505H267ZM267 1502.5V1502H266.5V1502.5H267ZM268.5 1502.5V1503H268.86L268.974 1502.66L268.5 1502.5ZM269.5 1499.5L269.146 1499.15L269.063 1499.23L269.026 1499.34L269.5 1499.5ZM271.5 1497.5L271.854 1497.85L271.937 1497.77L271.974 1497.66L271.5 1497.5ZM272.5 1494.5L272.116 1494.18L272.055 1494.25L272.026 1494.34L272.5 1494.5ZM275 1491.5L275.384 1491.82L275.445 1491.75L275.474 1491.66L275 1491.5ZM276.5 1487L276.974 1487.16L276.98 1487.14L276.985 1487.12L276.5 1487ZM278 1481L277.6 1480.7L277.539 1480.78L277.515 1480.88L278 1481ZM281 1477L281.4 1477.3L281.444 1477.24L281.469 1477.17L281 1477ZM286.5 1462L286.1 1461.7L286.056 1461.76L286.031 1461.83L286.5 1462ZM289.5 1458L289.9 1458.3L289.935 1458.25L289.958 1458.2L289.5 1458ZM308.5 1414.5L308.958 1414.7L309 1414.6V1414.5H308.5ZM308.5 1410H309V1409.76L308.812 1409.61L308.5 1410ZM306 1408H305.5V1408.24L305.688 1408.39L306 1408ZM306 1405L305.743 1404.57L305.5 1404.72V1405H306ZM308.5 1403.5L308.757 1403.93L309 1403.78V1403.5H308.5ZM308.5 1401V1400.5H308V1401H308.5ZM311.5 1401H312V1400.5H311.5V1401ZM311.5 1403.5H311V1404H311.5V1403.5ZM314.5 1403.5H315V1403H314.5V1403.5ZM314.5 1408L314.9 1408.3L315 1408.17V1408H314.5ZM313 1410L312.6 1409.7L312.5 1409.83V1410H313ZM313 1546H312.5V1546.45L312.945 1546.5L313 1546ZM467 1563L466.945 1563.5L467.5 1563.56V1563H467ZM467 1527.5H467.5V1526.26L466.64 1527.15L467 1527.5ZM436 1559.58L435.945 1560.07L435.945 1560.07L436 1559.58ZM431.5 1480.5L431.087 1480.22L430.991 1480.36L431.001 1480.53L431.5 1480.5ZM471.5 1422L471.913 1422.28L472 1422.15V1422H471.5ZM471.5 1416H472V1415.79L471.854 1415.65L471.5 1416ZM469 1413.5H468.5V1413.71L468.646 1413.85L469 1413.5ZM469 1411L468.668 1410.63L468.5 1410.78V1411H469ZM473.5 1407L473.854 1406.65L473.52 1406.31L473.168 1406.63L473.5 1407ZM477.5 1411H478V1410.79L477.854 1410.65L477.5 1411ZM477.5 1413.5L477.89 1413.81L478 1413.68V1413.5H477.5ZM475.5 1416L475.11 1415.69L475 1415.82V1416H475.5ZM475.5 1448H475V1448.03L475.004 1448.07L475.5 1448ZM480.5 1485.5L481 1485.52L481.001 1485.48L480.996 1485.43L480.5 1485.5ZM479 1520.5L479.384 1520.82L479.492 1520.69L479.5 1520.52L479 1520.5ZM474 1526.5L473.616 1526.18L473.5 1526.32V1526.5H474ZM474 1559.58H473.5V1560.02L473.943 1560.07L474 1559.58ZM616 1576L615.943 1576.5L616.5 1576.56V1576H616ZM616 1527.5H616.5V1526.6L615.737 1527.07L616 1527.5ZM605.5 1534L605.237 1533.57L605.151 1533.63L605.092 1533.71L605.5 1534ZM597 1546L596.592 1545.71L596.578 1545.73L596.566 1545.75L597 1546ZM591 1556.5L590.566 1556.25L590.5 1556.37V1556.5H591ZM591 1563L591.323 1563.38L591.5 1563.23V1563H591ZM580.5 1571.89L580.443 1572.39L580.443 1572.39L580.5 1571.89ZM578 1559.58L577.508 1559.49L577.491 1559.58L577.51 1559.68L578 1559.58ZM580.5 1546L580.015 1545.88L580.011 1545.89L580.008 1545.91L580.5 1546ZM583.5 1534L583.031 1533.83L583.022 1533.85L583.015 1533.88L583.5 1534ZM588.5 1520.5L588.969 1520.67L588.978 1520.65L588.985 1520.62L588.5 1520.5ZM597 1487L597.485 1487.12L597.486 1487.12L597 1487ZM605.5 1452L605.04 1451.8L605.024 1451.84L605.014 1451.88L605.5 1452ZM617.5 1424L617.96 1424.2L618 1424.1V1424H617.5ZM617.5 1420H618V1419.73L617.777 1419.58L617.5 1420ZM614.5 1418L614.036 1418.19L614.093 1418.33L614.223 1418.42L614.5 1418ZM613.5 1415.5L613.18 1415.12L612.901 1415.35L613.036 1415.69L613.5 1415.5ZM616.5 1413L616.82 1413.38L616.9 1413.32L616.947 1413.22L616.5 1413ZM617.5 1411V1410.5H617.191L617.053 1410.78L617.5 1411ZM619.5 1411L619.947 1410.78L619.809 1410.5H619.5V1411ZM620.5 1413L620.053 1413.22L620.102 1413.32L620.188 1413.39L620.5 1413ZM623 1415H623.5V1414.76L623.312 1414.61L623 1415ZM623 1418L623.354 1418.35L623.5 1418.21V1418H623ZM621 1420L620.646 1419.65L620.499 1419.79L620.5 1420L621 1420ZM622 1578L621.5 1578L621.503 1578.44L621.933 1578.5L622 1578ZM648 1581.5L647.933 1582L647.966 1582H648V1581.5ZM659 1581.5H659.5V1581H659V1581.5ZM659 1595L659.224 1595.45L659.5 1595.31V1595H659ZM657 1596L656.776 1595.55L656.503 1595.69L656.5 1596L657 1596ZM699.5 1683L699.997 1683.06L700.014 1682.91L699.947 1682.78L699.5 1683ZM697.5 1679H697V1679.12L697.053 1679.22L697.5 1679ZM697.5 1672.5L697.007 1672.42L697 1672.46V1672.5H697.5ZM699.5 1660.5L699.993 1660.58L700.027 1660.38L699.907 1660.21L699.5 1660.5ZM694.5 1653.5H694V1653.66L694.093 1653.79L694.5 1653.5ZM694.5 1650.5L694.276 1650.05L694 1650.19V1650.5H694.5ZM702.5 1646.5L702.724 1646.95L702.903 1646.86L702.971 1646.67L702.5 1646.5ZM705 1639.5L705.471 1639.67L705.543 1639.47L705.447 1639.28L705 1639.5ZM702.5 1634.5H702V1634.62L702.053 1634.72L702.5 1634.5ZM702.5 1631L702.053 1630.78L702 1630.88V1631H702.5ZM705 1626L704.842 1625.53L704.645 1625.59L704.553 1625.78L705 1626ZM709.5 1624.5L709.676 1624.03L709.51 1623.97L709.342 1624.03L709.5 1624.5ZM713.5 1626L713.89 1625.69L713.804 1625.58L713.676 1625.53L713.5 1626ZM717.5 1631H718V1630.82L717.89 1630.69L717.5 1631ZM717.5 1634.5L717.89 1634.81L718 1634.68V1634.5H717.5ZM713.5 1639.5L713.11 1639.19L713 1639.32V1639.5H713.5ZM713.5 1642.5H713V1642.71L713.146 1642.85L713.5 1642.5ZM724.5 1653.5L724.9 1653.8L725.16 1653.45L724.854 1653.15L724.5 1653.5ZM721.5 1657.5L721.1 1657.2L721 1657.33V1657.5H721.5ZM721.5 1660.5H721V1661H721.5V1660.5ZM729.5 1660.5V1661H730.269L729.957 1660.3L729.5 1660.5ZM727.5 1656L727.209 1655.59L726.877 1655.83L727.043 1656.2L727.5 1656ZM731 1653.5L731.291 1653.91L731.5 1653.76V1653.5H731ZM731 1650.5H731.5V1650.41L731.468 1650.32L731 1650.5ZM729.5 1646.5L729.18 1646.12L728.907 1646.34L729.032 1646.68L729.5 1646.5ZM732.5 1644L732.765 1643.58L732.458 1643.38L732.18 1643.62L732.5 1644ZM736.5 1646.5L736.968 1646.68L737.112 1646.29L736.765 1646.08L736.5 1646.5ZM735 1650.5L734.532 1650.32L734.5 1650.41V1650.5H735ZM735 1653.5H734.5V1653.76L734.709 1653.91L735 1653.5ZM738.5 1656L738.957 1656.2L739.123 1655.83L738.791 1655.59L738.5 1656ZM736.5 1660.5L736.043 1660.3L736.91 1660.79L736.5 1660.5ZM743.5 1650.5L743.91 1650.79L743.963 1650.71L743.985 1650.62L743.5 1650.5ZM745.5 1642.5L745.985 1642.62L746 1642.56V1642.5H745.5ZM745.5 1636.5L745.061 1636.26L745 1636.37V1636.5H745.5ZM748.5 1631L748.939 1631.24L748.963 1631.2L748.978 1631.15L748.5 1631ZM750.5 1624.5L750.293 1624.04L750.088 1624.14L750.022 1624.35L750.5 1624.5ZM756 1622V1621.5H755.892L755.793 1621.54L756 1622ZM761 1622V1622.5H761.293L761.436 1622.24L761 1622ZM780 1588L780.436 1588.24L780.673 1587.82L780.257 1587.57L780 1588ZM777.5 1586.5L777.053 1586.28L776.846 1586.69L777.243 1586.93L777.5 1586.5ZM780 1581.5L780.447 1581.72L780.487 1581.64L780.497 1581.55L780 1581.5ZM782 1563L782.497 1563.05L782.532 1562.73L782.248 1562.57L782 1563ZM775 1559L775.248 1558.57L775.183 1558.53L775.111 1558.51L775 1559ZM764 1556.5H763.5V1556.9L763.889 1556.99L764 1556.5ZM764 1541L764.287 1540.59L763.5 1540.04V1541H764ZM769 1544.5L768.713 1544.91L768.842 1545H769V1544.5ZM777.5 1544.5V1545H778V1544.5H777.5ZM777.5 1538L777.297 1537.54L777 1537.68V1538H777.5ZM782 1536L782.248 1535.57L782.028 1535.44L781.797 1535.54L782 1536ZM785.5 1538L785.252 1538.43L785.367 1538.5H785.5V1538ZM789 1538L789.239 1537.56L789.127 1537.5H789V1538ZM794.5 1541L794.261 1541.44L794.696 1541.68L794.937 1541.24L794.5 1541ZM802 1527.5L802.437 1527.74L802.484 1527.66L802.496 1527.56L802 1527.5ZM805 1504L804.526 1503.84L804.51 1503.89L804.504 1503.94L805 1504ZM812 1483L811.6 1482.7L811.551 1482.76L811.526 1482.84L812 1483ZM828.5 1461L828.107 1460.69L828.1 1460.7L828.5 1461ZM843.5 1442L843.892 1442.31L843.948 1442.24L843.976 1442.15L843.5 1442ZM848.5 1426.5L848.976 1426.65L848.989 1426.61L848.995 1426.57L848.5 1426.5ZM853 1395.5V1395H852.567L852.505 1395.43L853 1395.5ZM909.5 1395.5H910V1395H909.5V1395.5ZM909.5 1417H909V1417.06L909.014 1417.12L909.5 1417ZM915.5 1442L915.014 1442.12L915.033 1442.2L915.077 1442.27L915.5 1442ZM932.5 1469L932.929 1468.74L932.923 1468.73L932.5 1469ZM950.5 1499L950.994 1498.92L950.979 1498.83L950.929 1498.74L950.5 1499ZM955 1527.5L954.506 1527.58L954.513 1527.62L954.529 1527.67L955 1527.5ZM961 1544.5L960.529 1544.67L960.581 1544.82L960.711 1544.91L961 1544.5ZM981.5 1559L981.832 1559.37L982.303 1558.96L981.789 1558.59L981.5 1559ZM977 1563L976.668 1562.63L976.5 1562.78V1563H977ZM977 1588H976.5V1588.21L976.646 1588.35L977 1588ZM979 1590L979.354 1590.35L979.707 1590L979.354 1589.65L979 1590ZM977 1592L976.646 1591.65L976.449 1591.84L976.513 1592.11L977 1592ZM979 1600.5L978.513 1600.61L978.526 1600.67L978.549 1600.72L979 1600.5ZM984.5 1612L984.049 1612.22L984.052 1612.22L984.056 1612.23L984.5 1612ZM991.5 1625.5L991.946 1625.27L991.944 1625.27L991.5 1625.5ZM1006.5 1655L1006.05 1655.23L1006.16 1655.44L1006.39 1655.49L1006.5 1655ZM1032 1660.5L1031.89 1660.99L1032.25 1661.07L1032.43 1660.75L1032 1660.5ZM1046 1636.5L1046.32 1636.12L1045.87 1635.74L1045.57 1636.25L1046 1636.5ZM1071 1657.5L1070.68 1657.88L1071.02 1658.17L1071.34 1657.87L1071 1657.5ZM1085.5 1644V1643.5H1085.3L1085.16 1643.63L1085.5 1644ZM1117.5 1644L1117.86 1643.65L1117.71 1643.5H1117.5V1644ZM1128 1655L1127.64 1655.35L1127.67 1655.38L1127.7 1655.4L1128 1655ZM1143.5 1666.5L1143.2 1666.9L1143.33 1667H1143.5V1666.5ZM1161.5 1666.5V1667H1161.85L1161.97 1666.67L1161.5 1666.5ZM1169.5 1644L1169.08 1643.72L1169.05 1643.77L1169.03 1643.83L1169.5 1644ZM1174.5 1636.5V1636H1174.23L1174.08 1636.22L1174.5 1636.5ZM1181 1636.5L1181.46 1636.31L1181.34 1636H1181V1636.5ZM1188.5 1655H1189V1654.9L1188.96 1654.81L1188.5 1655ZM1188.5 1680.5H1188V1680.92L1188.41 1680.99L1188.5 1680.5ZM1207.5 1684L1207.41 1684.49L1208 1684.6V1684H1207.5ZM1207.5 1575V1574.5H1207V1575H1207.5ZM1223 1575V1575.5H1223.17L1223.3 1575.4L1223 1575ZM1233.5 1567L1233.89 1566.68L1233.58 1566.31L1233.2 1566.6L1233.5 1567ZM1240 1575L1239.61 1575.32L1239.7 1575.43L1239.83 1575.47L1240 1575ZM1250 1578.5H1250.5V1578.15L1250.17 1578.03L1250 1578.5ZM1250 1612H1249.5V1612.5H1250V1612ZM1268 1612V1612.5H1268.39L1268.49 1612.12L1268 1612ZM1273 1592L1273.49 1592.12L1273.5 1592.06V1592H1273ZM1273 1559L1272.56 1558.77L1272.5 1558.88V1559H1273ZM1278 1549.5L1277.84 1549.03L1277.65 1549.09L1277.56 1549.27L1278 1549.5ZM1293 1544.5L1293.25 1544.07L1293.06 1543.95L1292.84 1544.03L1293 1544.5ZM1301.5 1549.5L1301.99 1549.42L1301.96 1549.19L1301.75 1549.07L1301.5 1549.5ZM1305.5 1575L1305.01 1575.08L1305.07 1575.5H1305.5V1575ZM1322 1575L1322.11 1574.51L1322.05 1574.5H1322V1575ZM1338 1578.5L1337.89 1578.99L1338.5 1579.12V1578.5H1338ZM1338 1556.5V1556H1337.5V1556.5H1338ZM1359 1556.5H1359.5V1556H1359V1556.5ZM1359 1559H1358.5V1559.63L1359.12 1559.49L1359 1559ZM1369.5 1556.5L1369.62 1556.99L1370 1556.89V1556.5H1369.5ZM1369.5 1549.5V1549H1369V1549.5H1369.5ZM1377.5 1549.5H1378V1549H1377.5V1549.5ZM1377.5 1556.5H1377V1557H1377.5V1556.5ZM1385.5 1556.5H1386V1556H1385.5V1556.5ZM1385.5 1582H1385V1582.48L1385.48 1582.5L1385.5 1582ZM1487 1586L1486.98 1586.5L1487.5 1586.52V1586H1487ZM1487 1562.5L1486.82 1562.03L1486.5 1562.16V1562.5H1487ZM1496 1559V1558.5H1495.91L1495.82 1558.53L1496 1559ZM1520 1559H1520.5V1558.5H1520V1559ZM1520 1586H1519.5V1586.5H1520V1586ZM1565 1586V1586.5H1565.5V1586H1565ZM1565 1559V1558.5H1564.5V1559H1565ZM1584 1559V1559.5H1584.5V1559H1584ZM1584 1544.5H1584.5V1544.41L1584.47 1544.33L1584 1544.5ZM1578 1528L1577.53 1527.83L1577.47 1528L1577.53 1528.17L1578 1528ZM1584 1511V1510.5H1583.65L1583.53 1510.83L1584 1511ZM1590 1511V1511.5H1590.5V1511H1590ZM1590 1503V1502.5H1589.5V1503H1590ZM1593.5 1503H1594V1502.5H1593.5V1503ZM1593.5 1511H1593V1511.5H1593.5V1511ZM1602 1511L1602.45 1510.79L1602.32 1510.5H1602V1511ZM1610 1528L1610.45 1528.22L1610.55 1528L1610.45 1527.79L1610 1528ZM1602 1544.5L1601.55 1544.28L1601.5 1544.39V1544.5H1602ZM1602 1559H1601.5V1559.54L1602.04 1559.5L1602 1559ZM1783.5 1544.5V1544H1783.48L1783.46 1544L1783.5 1544.5ZM1890 1544.5V1545H1890.25L1890.4 1544.79L1890 1544.5ZM1974 1429L1974.4 1428.7L1973.99 1428.16L1973.6 1428.71L1974 1429ZM2001 1465H2001.5V1464.83L2001.4 1464.7L2001 1465ZM2001 1700V1700.5H2001.5V1700H2001ZM1 1700H0.5V1700.5H1V1700ZM294 1544L293.505 1543.93L293.428 1544.45L293.958 1544.5L294 1544ZM299 1510L298.776 1509.55L298.543 1509.67L298.505 1509.93L299 1510ZM306 1506.5H306.5V1505.69L305.776 1506.05L306 1506.5ZM306 1545L305.958 1545.5L306.5 1545.54V1545H306ZM161 1531L160.955 1531.5L161.472 1531.54L161.499 1531.03L161 1531ZM162.5 1503L162.999 1503.03L163.005 1502.92L162.964 1502.81L162.5 1503ZM161.5 1500.5L161.964 1500.31L161.81 1499.93L161.402 1500.01L161.5 1500.5ZM159 1501L158.902 1500.51L158.81 1500.53L158.732 1500.58L159 1501ZM148 1508L147.732 1507.58L147.712 1507.59L147.693 1507.61L148 1508ZM143.5 1511.5L143.193 1511.11L143.119 1511.16L143.071 1511.24L143.5 1511.5ZM142 1514L141.571 1513.74L141.53 1513.81L141.512 1513.89L142 1514ZM141 1518.5L141.4 1518.8L141.465 1518.71L141.488 1518.61L141 1518.5ZM139.5 1520.5L139.1 1520.2L139.016 1520.31L139.002 1520.45L139.5 1520.5ZM139 1525.5L138.502 1525.45L138.5 1525.48V1525.5H139ZM139 1529H138.5V1529.46L138.955 1529.5L139 1529ZM0.944784 1515.5L9.94478 1516.5L10.0552 1515.5L1.05522 1514.5L0.944784 1515.5ZM10.5 1516V1496H9.5V1516H10.5ZM10.1581 1495.53L1.15811 1492.53L0.841886 1493.47L9.84189 1496.47L10.1581 1495.53ZM1.5 1493V1426H0.5V1493H1.5ZM1.4032 1426.3L12.4032 1411.3L11.5968 1410.7L0.596798 1425.7L1.4032 1426.3ZM11.6 1411.3L13.1 1413.3L13.9 1412.7L12.4 1410.7L11.6 1411.3ZM13.9996 1413.02L14.4996 1401.02L13.5004 1400.98L13.0004 1412.98L13.9996 1413.02ZM14.4 1400.7L12.9 1398.7L12.1 1399.3L13.6 1401.3L14.4 1400.7ZM13 1399V1397.5H12V1399H13ZM12.9069 1397.79L15.4069 1394.29L14.5931 1393.71L12.0931 1397.21L12.9069 1397.79ZM15 1394.5H16V1393.5H15V1394.5ZM15.5931 1394.29L18.0931 1397.79L18.9069 1397.21L16.4069 1393.71L15.5931 1394.29ZM18 1397.5V1399H19V1397.5H18ZM18.1464 1398.65L16.1464 1400.65L16.8536 1401.35L18.8536 1399.35L18.1464 1398.65ZM16 1401L15.5 1517L16.5 1517L17 1401L16 1401ZM15.9498 1517.5L119.95 1528L120.05 1527L16.0502 1516.5L15.9498 1517.5ZM120.498 1527.55L120.998 1522.05L120.002 1521.95L119.502 1527.45L120.498 1527.55ZM120.5 1522.5H122V1521.5H120.5V1522.5ZM122.46 1522.2L123.96 1518.7L123.04 1518.3L121.54 1521.8L122.46 1522.2ZM124 1518.5V1515H123V1518.5H124ZM123.854 1515.35L125.354 1513.85L124.646 1513.15L123.146 1514.65L123.854 1515.35ZM125.5 1513.5V1509H124.5V1513.5H125.5ZM125.224 1509.45L127.224 1508.45L126.776 1507.55L124.776 1508.55L125.224 1509.45ZM127.312 1508.39L129.812 1506.39L129.188 1505.61L126.688 1507.61L127.312 1508.39ZM129.937 1506.24L132.437 1501.74L131.563 1501.26L129.063 1505.76L129.937 1506.24ZM132.439 1501.74L135.439 1496.24L134.561 1495.76L131.561 1501.26L132.439 1501.74ZM135.5 1496V1491.5H134.5V1496H135.5ZM135.498 1491.54L135.998 1485.54L135.002 1485.46L134.502 1491.46L135.498 1491.54ZM135.964 1485.69L136.964 1483.19L136.036 1482.81L135.036 1485.31L135.964 1485.69ZM136.8 1483.4L138.8 1481.9L138.2 1481.1L136.2 1482.6L136.8 1483.4ZM138.988 1481.61L139.988 1477.11L139.012 1476.89L138.012 1481.39L138.988 1481.61ZM139.998 1477.05L140.498 1471.55L139.502 1471.45L139.002 1476.95L139.998 1477.05ZM140.384 1471.82L142.884 1468.82L142.116 1468.18L139.616 1471.18L140.384 1471.82ZM142.947 1468.28L140.947 1464.28L140.053 1464.72L142.053 1468.72L142.947 1468.28ZM140.91 1464.79L144.41 1459.79L143.59 1459.21L140.09 1464.21L140.91 1464.79ZM144.461 1459.69L152.461 1440.69L151.539 1440.31L143.539 1459.31L144.461 1459.69ZM152.468 1440.68L156.968 1428.68L156.032 1428.32L151.532 1440.32L152.468 1440.68ZM156.952 1428.71L160.952 1420.21L160.048 1419.79L156.048 1428.29L156.952 1428.71ZM160.92 1420.27L166.42 1411.77L165.58 1411.23L160.08 1419.73L160.92 1420.27ZM166.5 1411.5V1404.5H165.5V1411.5H166.5ZM166.312 1404.11L163.812 1402.11L163.188 1402.89L165.688 1404.89L166.312 1404.11ZM164 1402.5V1399.5H163V1402.5H164ZM163.854 1399.85L166.354 1397.35L165.646 1396.65L163.146 1399.15L163.854 1399.85ZM166.416 1397.28L168.416 1394.28L167.584 1393.72L165.584 1396.72L166.416 1397.28ZM167.61 1394.31L169.61 1396.81L170.39 1396.19L168.39 1393.69L167.61 1394.31ZM169.646 1396.85L172.146 1399.35L172.854 1398.65L170.354 1396.15L169.646 1396.85ZM172 1399V1402.5H173V1399H172ZM172.146 1402.15L170.146 1404.15L170.854 1404.85L172.854 1402.85L172.146 1402.15ZM170 1404.49L167.5 1531.99L168.5 1532.01L171 1404.51L170 1404.49ZM167.953 1532.5L257.953 1541L258.047 1540L168.047 1531.5L167.953 1532.5ZM258.5 1540.5V1534H257.5V1540.5H258.5ZM258.46 1533.8L256.96 1530.3L256.04 1530.7L257.54 1534.2L258.46 1533.8ZM257 1530.5V1525H256V1530.5H257ZM256.947 1525.22L262.947 1513.22L262.053 1512.78L256.053 1524.78L256.947 1525.22ZM262.967 1513.18L265.467 1506.68L264.533 1506.32L262.033 1512.82L262.967 1513.18ZM265.3 1506.9L267.3 1505.4L266.7 1504.6L264.7 1506.1L265.3 1506.9ZM267.5 1505V1502.5H266.5V1505H267.5ZM267 1503H268.5V1502H267V1503ZM268.974 1502.66L269.974 1499.66L269.026 1499.34L268.026 1502.34L268.974 1502.66ZM269.854 1499.85L271.854 1497.85L271.146 1497.15L269.146 1499.15L269.854 1499.85ZM271.974 1497.66L272.974 1494.66L272.026 1494.34L271.026 1497.34L271.974 1497.66ZM272.884 1494.82L275.384 1491.82L274.616 1491.18L272.116 1494.18L272.884 1494.82ZM275.474 1491.66L276.974 1487.16L276.026 1486.84L274.526 1491.34L275.474 1491.66ZM276.985 1487.12L278.485 1481.12L277.515 1480.88L276.015 1486.88L276.985 1487.12ZM278.4 1481.3L281.4 1477.3L280.6 1476.7L277.6 1480.7L278.4 1481.3ZM281.469 1477.17L286.969 1462.17L286.031 1461.83L280.531 1476.83L281.469 1477.17ZM286.9 1462.3L289.9 1458.3L289.1 1457.7L286.1 1461.7L286.9 1462.3ZM289.958 1458.2L308.958 1414.7L308.042 1414.3L289.042 1457.8L289.958 1458.2ZM309 1414.5V1410H308V1414.5H309ZM308.812 1409.61L306.312 1407.61L305.688 1408.39L308.188 1410.39L308.812 1409.61ZM306.5 1408V1405H305.5V1408H306.5ZM306.257 1405.43L308.757 1403.93L308.243 1403.07L305.743 1404.57L306.257 1405.43ZM309 1403.5V1401H308V1403.5H309ZM308.5 1401.5H311.5V1400.5H308.5V1401.5ZM311 1401V1403.5H312V1401H311ZM311.5 1404H314.5V1403H311.5V1404ZM314 1403.5V1405H315V1403.5H314ZM314 1405V1408H315V1405H314ZM314.1 1407.7L312.6 1409.7L313.4 1410.3L314.9 1408.3L314.1 1407.7ZM312.5 1410V1546H313.5V1410H312.5ZM467.5 1563V1527.5H466.5V1563H467.5ZM312.945 1546.5L435.945 1560.07L436.055 1559.08L313.055 1545.5L312.945 1546.5ZM435.945 1560.07L466.945 1563.5L467.055 1562.5L436.055 1559.08L435.945 1560.07ZM466.64 1527.15L435.64 1559.23L436.36 1559.93L467.36 1527.85L466.64 1527.15ZM431.913 1480.78L471.913 1422.28L471.087 1421.72L431.087 1480.22L431.913 1480.78ZM472 1422V1416H471V1422H472ZM471.854 1415.65L469.354 1413.15L468.646 1413.85L471.146 1416.35L471.854 1415.65ZM469.5 1413.5V1411H468.5V1413.5H469.5ZM469.332 1411.37L473.832 1407.37L473.168 1406.63L468.668 1410.63L469.332 1411.37ZM473.146 1407.35L477.146 1411.35L477.854 1410.65L473.854 1406.65L473.146 1407.35ZM477 1411V1413.5H478V1411H477ZM477.11 1413.19L475.11 1415.69L475.89 1416.31L477.89 1413.81L477.11 1413.19ZM475 1416V1448H476V1416H475ZM475.004 1448.07L480.004 1485.57L480.996 1485.43L475.996 1447.93L475.004 1448.07ZM480 1485.48L478.5 1520.48L479.5 1520.52L481 1485.52L480 1485.48ZM478.616 1520.18L473.616 1526.18L474.384 1526.82L479.384 1520.82L478.616 1520.18ZM473.5 1526.5V1559.58H474.5V1526.5H473.5ZM616.5 1576V1527.5H615.5V1576H616.5ZM615.737 1527.07L605.237 1533.57L605.763 1534.43L616.263 1527.93L615.737 1527.07ZM605.092 1533.71L596.592 1545.71L597.408 1546.29L605.908 1534.29L605.092 1533.71ZM596.566 1545.75L590.566 1556.25L591.434 1556.75L597.434 1546.25L596.566 1545.75ZM590.5 1556.5V1563H591.5V1556.5H590.5ZM473.943 1560.07L580.443 1572.39L580.557 1571.4L474.057 1559.08L473.943 1560.07ZM580.443 1572.39L615.943 1576.5L616.057 1575.5L580.557 1571.4L580.443 1572.39ZM590.677 1562.62L580.177 1571.51L580.823 1572.28L591.323 1563.38L590.677 1562.62ZM578.492 1559.67L580.992 1546.09L580.008 1545.91L577.508 1559.49L578.492 1559.67ZM580.985 1546.12L583.985 1534.12L583.015 1533.88L580.015 1545.88L580.985 1546.12ZM583.969 1534.17L588.969 1520.67L588.031 1520.33L583.031 1533.83L583.969 1534.17ZM588.985 1520.62L597.485 1487.12L596.515 1486.88L588.015 1520.38L588.985 1520.62ZM597.486 1487.12L605.986 1452.12L605.014 1451.88L596.514 1486.88L597.486 1487.12ZM605.96 1452.2L616.46 1427.7L615.54 1427.3L605.04 1451.8L605.96 1452.2ZM616.46 1427.7L617.96 1424.2L617.04 1423.8L615.54 1427.3L616.46 1427.7ZM618 1424V1420H617V1424H618ZM617.777 1419.58L614.777 1417.58L614.223 1418.42L617.223 1420.42L617.777 1419.58ZM614.964 1417.81L613.964 1415.31L613.036 1415.69L614.036 1418.19L614.964 1417.81ZM613.82 1415.88L616.82 1413.38L616.18 1412.62L613.18 1415.12L613.82 1415.88ZM616.947 1413.22L617.947 1411.22L617.053 1410.78L616.053 1412.78L616.947 1413.22ZM617.5 1411.5H619.5V1410.5H617.5V1411.5ZM619.053 1411.22L620.053 1413.22L620.947 1412.78L619.947 1410.78L619.053 1411.22ZM620.188 1413.39L622.688 1415.39L623.312 1414.61L620.812 1412.61L620.188 1413.39ZM622.5 1415V1418H623.5V1415H622.5ZM622.646 1417.65L620.646 1419.65L621.354 1420.35L623.354 1418.35L622.646 1417.65ZM620.5 1420L621.5 1578L622.5 1578L621.5 1420L620.5 1420ZM621.933 1578.5L647.933 1582L648.067 1581L622.067 1577.5L621.933 1578.5ZM648 1582H659V1581H648V1582ZM658.5 1581.5V1595H659.5V1581.5H658.5ZM658.776 1594.55L656.776 1595.55L657.224 1596.45L659.224 1595.45L658.776 1594.55ZM656.5 1596L655.5 1700L656.5 1700L657.5 1596L656.5 1596ZM656 1700.5H697.5V1699.5H656V1700.5ZM697.997 1700.06L699.997 1683.06L699.003 1682.94L697.003 1699.94L697.997 1700.06ZM699.947 1682.78L697.947 1678.78L697.053 1679.22L699.053 1683.22L699.947 1682.78ZM698 1679V1672.5H697V1679H698ZM697.993 1672.58L699.993 1660.58L699.007 1660.42L697.007 1672.42L697.993 1672.58ZM699.907 1660.21L694.907 1653.21L694.093 1653.79L699.093 1660.79L699.907 1660.21ZM695 1653.5V1650.5H694V1653.5H695ZM694.724 1650.95L702.724 1646.95L702.276 1646.05L694.276 1650.05L694.724 1650.95ZM702.971 1646.67L705.471 1639.67L704.529 1639.33L702.029 1646.33L702.971 1646.67ZM705.447 1639.28L702.947 1634.28L702.053 1634.72L704.553 1639.72L705.447 1639.28ZM703 1634.5V1631H702V1634.5H703ZM702.947 1631.22L705.447 1626.22L704.553 1625.78L702.053 1630.78L702.947 1631.22ZM705.158 1626.47L709.658 1624.97L709.342 1624.03L704.842 1625.53L705.158 1626.47ZM709.324 1624.97L713.324 1626.47L713.676 1625.53L709.676 1624.03L709.324 1624.97ZM713.11 1626.31L717.11 1631.31L717.89 1630.69L713.89 1625.69L713.11 1626.31ZM717 1631V1634.5H718V1631H717ZM717.11 1634.19L713.11 1639.19L713.89 1639.81L717.89 1634.81L717.11 1634.19ZM713 1639.5V1642.5H714V1639.5H713ZM713.146 1642.85L717.146 1646.85L717.854 1646.15L713.854 1642.15L713.146 1642.85ZM717.146 1646.85L724.146 1653.85L724.854 1653.15L717.854 1646.15L717.146 1646.85ZM724.1 1653.2L721.1 1657.2L721.9 1657.8L724.9 1653.8L724.1 1653.2ZM721 1657.5V1660.5H722V1657.5H721ZM721.5 1661H729.5V1660H721.5V1661ZM729.957 1660.3L727.957 1655.8L727.043 1656.2L729.043 1660.7L729.957 1660.3ZM727.791 1656.41L731.291 1653.91L730.709 1653.09L727.209 1655.59L727.791 1656.41ZM731.5 1653.5V1650.5H730.5V1653.5H731.5ZM731.468 1650.32L729.968 1646.32L729.032 1646.68L730.532 1650.68L731.468 1650.32ZM729.82 1646.88L732.82 1644.38L732.18 1643.62L729.18 1646.12L729.82 1646.88ZM732.235 1644.42L736.235 1646.92L736.765 1646.08L732.765 1643.58L732.235 1644.42ZM736.032 1646.32L734.532 1650.32L735.468 1650.68L736.968 1646.68L736.032 1646.32ZM734.5 1650.5V1653.5H735.5V1650.5H734.5ZM734.709 1653.91L738.209 1656.41L738.791 1655.59L735.291 1653.09L734.709 1653.91ZM738.043 1655.8L736.043 1660.3L736.957 1660.7L738.957 1656.2L738.043 1655.8ZM736.91 1660.79L743.91 1650.79L743.09 1650.21L736.09 1660.21L736.91 1660.79ZM743.985 1650.62L745.985 1642.62L745.015 1642.38L743.015 1650.38L743.985 1650.62ZM746 1642.5V1636.5H745V1642.5H746ZM745.939 1636.74L748.939 1631.24L748.061 1630.76L745.061 1636.26L745.939 1636.74ZM748.978 1631.15L750.978 1624.65L750.022 1624.35L748.022 1630.85L748.978 1631.15ZM750.707 1624.96L756.207 1622.46L755.793 1621.54L750.293 1624.04L750.707 1624.96ZM756 1622.5H761V1621.5H756V1622.5ZM761.436 1622.24L780.436 1588.24L779.564 1587.76L760.564 1621.76L761.436 1622.24ZM780.257 1587.57L777.757 1586.07L777.243 1586.93L779.743 1588.43L780.257 1587.57ZM777.947 1586.72L780.447 1581.72L779.553 1581.28L777.053 1586.28L777.947 1586.72ZM780.497 1581.55L782.497 1563.05L781.503 1562.95L779.503 1581.45L780.497 1581.55ZM782.248 1562.57L775.248 1558.57L774.752 1559.43L781.752 1563.43L782.248 1562.57ZM775.111 1558.51L764.111 1556.01L763.889 1556.99L774.889 1559.49L775.111 1558.51ZM764.5 1556.5V1541H763.5V1556.5H764.5ZM763.713 1541.41L768.713 1544.91L769.287 1544.09L764.287 1540.59L763.713 1541.41ZM769 1545H777.5V1544H769V1545ZM778 1544.5V1538H777V1544.5H778ZM777.703 1538.46L782.203 1536.46L781.797 1535.54L777.297 1537.54L777.703 1538.46ZM781.752 1536.43L785.252 1538.43L785.748 1537.57L782.248 1535.57L781.752 1536.43ZM785.5 1538.5H789V1537.5H785.5V1538.5ZM788.761 1538.44L794.261 1541.44L794.739 1540.56L789.239 1537.56L788.761 1538.44ZM794.937 1541.24L802.437 1527.74L801.563 1527.26L794.063 1540.76L794.937 1541.24ZM802.496 1527.56L805.496 1504.06L804.504 1503.94L801.504 1527.44L802.496 1527.56ZM805.474 1504.16L812.474 1483.16L811.526 1482.84L804.526 1503.84L805.474 1504.16ZM812.4 1483.3L828.9 1461.3L828.1 1460.7L811.6 1482.7L812.4 1483.3ZM828.892 1461.31L843.892 1442.31L843.108 1441.69L828.108 1460.69L828.892 1461.31ZM843.976 1442.15L848.976 1426.65L848.024 1426.35L843.024 1441.85L843.976 1442.15ZM848.995 1426.57L853.495 1395.57L852.505 1395.43L848.005 1426.43L848.995 1426.57ZM853 1396H909.5V1395H853V1396ZM909 1395.5V1417H910V1395.5H909ZM909.014 1417.12L915.014 1442.12L915.986 1441.88L909.986 1416.88L909.014 1417.12ZM915.077 1442.27L932.077 1469.27L932.923 1468.73L915.923 1441.73L915.077 1442.27ZM932.071 1469.26L950.071 1499.26L950.929 1498.74L932.929 1468.74L932.071 1469.26ZM950.006 1499.08L954.506 1527.58L955.494 1527.42L950.994 1498.92L950.006 1499.08ZM954.529 1527.67L960.529 1544.67L961.471 1544.33L955.471 1527.33L954.529 1527.67ZM960.711 1544.91L981.211 1559.41L981.789 1558.59L961.289 1544.09L960.711 1544.91ZM981.168 1558.63L976.668 1562.63L977.332 1563.37L981.832 1559.37L981.168 1558.63ZM976.5 1563V1586.5H977.5V1563H976.5ZM976.5 1586.5V1588H977.5V1586.5H976.5ZM976.646 1588.35L978.646 1590.35L979.354 1589.65L977.354 1587.65L976.646 1588.35ZM978.646 1589.65L976.646 1591.65L977.354 1592.35L979.354 1590.35L978.646 1589.65ZM976.513 1592.11L978.513 1600.61L979.487 1600.39L977.487 1591.89L976.513 1592.11ZM978.549 1600.72L984.049 1612.22L984.951 1611.78L979.451 1600.28L978.549 1600.72ZM984.056 1612.23L991.056 1625.73L991.944 1625.27L984.944 1611.77L984.056 1612.23ZM991.054 1625.73L1006.05 1655.23L1006.95 1654.77L991.946 1625.27L991.054 1625.73ZM1006.39 1655.49L1031.89 1660.99L1032.11 1660.01L1006.61 1654.51L1006.39 1655.49ZM1032.43 1660.75L1046.43 1636.75L1045.57 1636.25L1031.57 1660.25L1032.43 1660.75ZM1045.68 1636.88L1070.68 1657.88L1071.32 1657.12L1046.32 1636.12L1045.68 1636.88ZM1071.34 1657.87L1085.84 1644.37L1085.16 1643.63L1070.66 1657.13L1071.34 1657.87ZM1085.5 1644.5H1117.5V1643.5H1085.5V1644.5ZM1117.14 1644.35L1127.64 1655.35L1128.36 1654.65L1117.86 1643.65L1117.14 1644.35ZM1127.7 1655.4L1143.2 1666.9L1143.8 1666.1L1128.3 1654.6L1127.7 1655.4ZM1143.5 1667H1161.5V1666H1143.5V1667ZM1161.97 1666.67L1169.97 1644.17L1169.03 1643.83L1161.03 1666.33L1161.97 1666.67ZM1169.92 1644.28L1174.92 1636.78L1174.08 1636.22L1169.08 1643.72L1169.92 1644.28ZM1174.5 1637H1181V1636H1174.5V1637ZM1180.54 1636.69L1188.04 1655.19L1188.96 1654.81L1181.46 1636.31L1180.54 1636.69ZM1188 1655V1680.5H1189V1655H1188ZM1188.41 1680.99L1207.41 1684.49L1207.59 1683.51L1188.59 1680.01L1188.41 1680.99ZM1208 1684V1575H1207V1684H1208ZM1207.5 1575.5H1223V1574.5H1207.5V1575.5ZM1223.3 1575.4L1233.8 1567.4L1233.2 1566.6L1222.7 1574.6L1223.3 1575.4ZM1233.11 1567.32L1239.61 1575.32L1240.39 1574.68L1233.89 1566.68L1233.11 1567.32ZM1239.83 1575.47L1249.83 1578.97L1250.17 1578.03L1240.17 1574.53L1239.83 1575.47ZM1249.5 1578.5V1612H1250.5V1578.5H1249.5ZM1250 1612.5H1268V1611.5H1250V1612.5ZM1268.49 1612.12L1273.49 1592.12L1272.51 1591.88L1267.51 1611.88L1268.49 1612.12ZM1273.5 1592V1559H1272.5V1592H1273.5ZM1273.44 1559.23L1278.44 1549.73L1277.56 1549.27L1272.56 1558.77L1273.44 1559.23ZM1278.16 1549.97L1293.16 1544.97L1292.84 1544.03L1277.84 1549.03L1278.16 1549.97ZM1292.75 1544.93L1301.25 1549.93L1301.75 1549.07L1293.25 1544.07L1292.75 1544.93ZM1301.01 1549.58L1305.01 1575.08L1305.99 1574.92L1301.99 1549.42L1301.01 1549.58ZM1305.5 1575.5H1322V1574.5H1305.5V1575.5ZM1321.89 1575.49L1337.89 1578.99L1338.11 1578.01L1322.11 1574.51L1321.89 1575.49ZM1338.5 1578.5V1556.5H1337.5V1578.5H1338.5ZM1338 1557H1359V1556H1338V1557ZM1358.5 1556.5V1559H1359.5V1556.5H1358.5ZM1359.12 1559.49L1369.62 1556.99L1369.38 1556.01L1358.88 1558.51L1359.12 1559.49ZM1370 1556.5V1549.5H1369V1556.5H1370ZM1369.5 1550H1377.5V1549H1369.5V1550ZM1377 1549.5V1556.5H1378V1549.5H1377ZM1377.5 1557H1385.5V1556H1377.5V1557ZM1385 1556.5V1582H1386V1556.5H1385ZM1385.48 1582.5L1486.98 1586.5L1487.02 1585.5L1385.52 1581.5L1385.48 1582.5ZM1487.5 1586V1562.5H1486.5V1586H1487.5ZM1487.18 1562.97L1496.18 1559.47L1495.82 1558.53L1486.82 1562.03L1487.18 1562.97ZM1496 1559.5H1520V1558.5H1496V1559.5ZM1519.5 1559V1586H1520.5V1559H1519.5ZM1520 1586.5H1537.5V1585.5H1520V1586.5ZM1537.5 1586.5H1565V1585.5H1537.5V1586.5ZM1565.5 1586V1559H1564.5V1586H1565.5ZM1565 1559.5H1584V1558.5H1565V1559.5ZM1584.5 1559V1544.5H1583.5V1559H1584.5ZM1584.47 1544.33L1578.47 1527.83L1577.53 1528.17L1583.53 1544.67L1584.47 1544.33ZM1578.47 1528.17L1584.47 1511.17L1583.53 1510.83L1577.53 1527.83L1578.47 1528.17ZM1584 1511.5H1590V1510.5H1584V1511.5ZM1590.5 1511V1503H1589.5V1511H1590.5ZM1590 1503.5H1593.5V1502.5H1590V1503.5ZM1593 1503V1511H1594V1503H1593ZM1593.5 1511.5H1602V1510.5H1593.5V1511.5ZM1601.55 1511.21L1609.55 1528.21L1610.45 1527.79L1602.45 1510.79L1601.55 1511.21ZM1609.55 1527.78L1601.55 1544.28L1602.45 1544.72L1610.45 1528.22L1609.55 1527.78ZM1601.5 1544.5V1559H1602.5V1544.5H1601.5ZM1602.04 1559.5L1783.54 1545L1783.46 1544L1601.96 1558.5L1602.04 1559.5ZM1783.5 1545H1890V1544H1783.5V1545ZM1890.4 1544.79L1974.4 1429.29L1973.6 1428.71L1889.6 1544.21L1890.4 1544.79ZM1973.6 1429.3L2000.6 1465.3L2001.4 1464.7L1974.4 1428.7L1973.6 1429.3ZM2000.5 1465V1700H2001.5V1465H2000.5ZM2001 1699.5H697.5V1700.5H2001V1699.5ZM656 1699.5H1V1700.5H656V1699.5ZM1.5 1700V1515H0.5V1700H1.5ZM577.51 1559.68L580.01 1571.99L580.99 1571.8L578.49 1559.48L577.51 1559.68ZM431.001 1480.53L435.501 1559.61L436.499 1559.55L431.999 1480.47L431.001 1480.53ZM294.495 1544.07L299.495 1510.07L298.505 1509.93L293.505 1543.93L294.495 1544.07ZM299.224 1510.45L306.224 1506.95L305.776 1506.05L298.776 1509.55L299.224 1510.45ZM305.5 1506.5V1545H306.5V1506.5H305.5ZM306.042 1544.5L294.042 1543.5L293.958 1544.5L305.958 1545.5L306.042 1544.5ZM161.499 1531.03L162.999 1503.03L162.001 1502.97L160.501 1530.97L161.499 1531.03ZM162.964 1502.81L161.964 1500.31L161.036 1500.69L162.036 1503.19L162.964 1502.81ZM161.402 1500.01L158.902 1500.51L159.098 1501.49L161.598 1500.99L161.402 1500.01ZM158.732 1500.58L147.732 1507.58L148.268 1508.42L159.268 1501.42L158.732 1500.58ZM147.693 1507.61L143.193 1511.11L143.807 1511.89L148.307 1508.39L147.693 1507.61ZM143.071 1511.24L141.571 1513.74L142.429 1514.26L143.929 1511.76L143.071 1511.24ZM141.512 1513.89L140.512 1518.39L141.488 1518.61L142.488 1514.11L141.512 1513.89ZM140.6 1518.2L139.1 1520.2L139.9 1520.8L141.4 1518.8L140.6 1518.2ZM139.002 1520.45L138.502 1525.45L139.498 1525.55L139.998 1520.55L139.002 1520.45ZM138.5 1525.5V1527.5H139.5V1525.5H138.5ZM138.5 1527.5V1529H139.5V1527.5H138.5ZM138.955 1529.5L160.955 1531.5L161.045 1530.5L139.045 1528.5L138.955 1529.5Z" fill="#9A9A9A"/>
</svg>
