<svg width="2002" height="1501" viewBox="0 0 2002 1501" fill="none" xmlns="http://www.w3.org/2000/svg">
<path d="M1057 714.5L1052 720L1031.5 738V789.5V805.5L1057 818.5L1072 809.5L1087.5 816L1106 821L1119 814.5L1125.5 818.5L1142 812.5V796.5L1147 795.5L1152 788.5L1158 799V809.5L1161 814.5L1173 816L1178 809.5L1189.5 812.5L1206.5 823.5L1216 812.5H1222.5L1227 816L1243 818.5L1249.5 828.5H1274L1283.5 834V842H1292V832L1295.5 828.5L1307.5 844L1317.5 825L1322.5 823.5L1315.5 847L1353 853.5H1363.5L1360.5 836.5H1367.5V821H1375.5V809.5L1383.5 799L1406 796.5V781.5H1427.5L1429 795.5L1451.5 784.5L1472.37 770L1473.5 728.5H1467.5L1454.5 725V716.5L1448.5 715.5V712.5L1446 710.5L1443.5 707.5L1445 706.5V705L1442.5 702.5L1441.5 680.5V677L1436.5 671H1431.5L1429 673.5L1426.5 677V682.5L1427.5 683.5L1426.5 702.5H1424L1421 701.5L1413.5 703.5H1410.5V699H1406V702L1400 705L1392 704L1391.5 700H1390L1389 699H1388V704H1386.5L1383.5 702.5L1378 710.5L1372.5 706.5L1371.73 702.5L1370 702L1369 706L1367.5 704L1363.5 699H1360.5L1359.5 700.5H1357V702.5H1353V707.5H1348.5V702.5L1346 700.5L1345.5 703.5V707.5H1343L1342.5 702.5H1339.5H1336.5L1335.5 685L1335 702.5H1330V707.5H1324V703.5L1322.5 702V694.5L1322 693.5H1320L1318.5 694.5V703.5H1320V707.5H1315.5V701.5H1314.5V704.5H1311V702.5L1310.5 701.5H1309L1308.5 702.5V707.5H1306V704.5L1303 705.5V701.5H1300V699L1295.5 696.5L1294.5 694L1292.77 696.5L1293 705.5L1291 705L1290 701.5V697.5L1287 696.5H1286L1284 697.5V699.5L1283.5 701L1278 700L1274 701L1273 705.5L1269 708L1267.5 707L1265.5 704L1265 696.5H1259V703L1258 705.5H1256.5L1256 698L1254.5 696.5L1251.5 697.5V706L1250.5 707.5L1249 703H1241.5V707.5H1227V703.5L1222.5 703L1221.5 703.5L1217 704.5H1216V707.5H1204.5V703L1203.5 701L1202 700.5L1200.5 702L1195 710H1192.5L1189.5 711V713L1178 718.5L1173 720L1168.5 716.5L1165.5 718H1164.5L1161 716L1153 717.5H1146L1137 720L1135.5 718.5L1135 714H1132L1131 717L1128 713H1125.5V714V716H1123.5V714.5L1122.5 713L1119 712.5L1116 714.5H1114L1113 712L1111.5 712.5L1110.5 714.5L1109.5 716L1106 711L1102 714.5L1098 711L1095 712.5L1096 717L1095 717.5H1083V712L1080.5 708.5L1070 710.5V714.5H1063.5V704.5H1057V714.5Z" fill="#505050"/>
<path d="M163.5 866L1 848.5V1499.5H2001V751H1962.5L1953 741L1950.5 744L1936 744.5L1914.5 717H1884.5H1874L1873.5 714.5H1868L1867.5 716.5L1830.5 716H1820.5L1817 712.5L1813 716L1809 716.5L1808.5 713H1806L1805 716H1796L1795 714H1789V715.5H1756V714H1751V715.5H1739L1728.5 730L1728 968.5L1762 970L1765.5 959V956.5V951.5L1763 950.5L1762 947.5L1762.5 944.5L1767.5 947.5V944.5L1768.5 943L1771.5 944V946.5L1775.5 950V953H1771.5V957.5V962.5L1772 964V965L1771.5 966.5V968.5L1772.5 970L1889 975.5L1888.5 973V972H1889V969.5L1888.5 968L1890 966.5L1891.5 965L1895 963.5L1898.5 961.5L1902.5 959L1905 955.5V950.5L1903.5 949.5V947L1904 944L1905 942.5V941L1905.5 937H1905L1903.5 936.5V933.5V931L1904 929L1905 927.5H1906.5L1908 928.5L1909 930.5V933.5L1908.5 936.5V942.5L1910 944V957L1913 958L1914 960.5L1917.5 963.5L1921 967.5L1923.5 970V974L1922.5 976.5H1929L1932.5 974V972V968L1934.5 963.5V961.5L1933 959.5V957L1934 954L1936 952L1936.5 948H1938.5V952L1940 953.5V959V962.5L1945 975.5L1999 978.5V992.5L1299.5 971H1250.5V966.5V963L1248.5 959L1249.5 953L1252 950V948L1248.5 947L1249.5 943L1246.5 938.5L1245 935L1243 938.5V943L1241.5 947V954.5V963V977L1208 1011L1178 1032.5V951L1184.5 943H1178L1168.5 935L1173 931.5L1168.5 917L1161 913L1164.5 907.5L1156.5 902.5V890L1161 886L1156.5 876L1153 859L1146 834L1142 859L1132 886L1135 890V902.5L1131 907.5V917L1122.5 922V938.5L1106 947L1116 954.5L1109.5 1057L1096 1070L1109.5 1078V1117.5L1096 1130.5H1052L1037.5 1117.5H1010.5L996 1130.5H978.5V1153H959.5L942 1130.5L894.5 1078V954.5L901.5 951L810 917L727.5 915H673.5L630 897L624.5 870.5V804.5H730.5V912L806 910L868 931.5V801.5L928.5 799H978.5L1031.5 789.5V738L1052 720L968 724L959.5 658L948.5 731L921.5 733.5V740L948.5 742V763.5L942 768.5V775L945 777.5V789.5H868L861 784.5L858.5 775L847 768.5H830V767L820 763.5V757.5H818V755.5L822 753.5V751H818L816.5 748.5L803.5 744L794.5 746L782.5 751L778.5 753.5V762.5L723.5 762V760L721 754.5L723.5 752.5L700 749L690 751V753.5H694L695 762L650.5 762.5V764.5H648L642 762L638 760V756.5L636.5 752.5L634 756.5V744L632 740L627.5 738H599.5L591.5 740L590.5 744L591.5 764.5L598 768V776.5L591.5 777.5H579.5V787L576 790V799L596 804.5V863.5L585.5 870.5L569.5 863.5L555.5 867L547 863.5L531.5 867L516 870.5L513 867L507.5 852V780.5H482.5V790V796L485 799L489 801L488.5 803L485.5 804.5V835.5L491.5 843V910L434.5 929L366.5 917L368.5 880.5V845.5L366.5 843L375 835.5L373.5 804.5L371 801.5V799.5L376.5 796.5V790L378 784V777.5H351L348 786H298L301.5 776.5H263L261.5 777.5L242 759.5H230.5L233 755.5L232.5 751L229.5 747.5L229 739L226 737L223 739V744L220 741L221 739L223 737V735.5L221.5 732L217.5 730H213L209.5 733.5V737L211 739.5V742L206 747L205 745.5V742.5V739.5L201 737L199 742V747L201 750L199 754.5L200 759.5H180.5L163.5 821V866Z" fill="#505050"/>
<path d="M1052 720L968 724L959.5 658L948.5 731L921.5 733.5V740L948.5 742V763.5L942 768.5V775L945 777.5V789.5H868L861 784.5L858.5 775L847 768.5H830V767L820 763.5V757.5H818V755.5L822 753.5V751H818L816.5 748.5L803.5 744L794.5 746L782.5 751L778.5 753.5V762.5L723.5 762V760L721 754.5L723.5 752.5L700 749L690 751V753.5H694L695 762L650.5 762.5V764.5H648L642 762L638 760V756.5L636.5 752.5L634 756.5V744L632 740L627.5 738H599.5L591.5 740L590.5 744L591.5 764.5L598 768V776.5L591.5 777.5H579.5V787L576 790V799L596 804.5V863.5L585.5 870.5L569.5 863.5L555.5 867L547 863.5L531.5 867L516 870.5L513 867L507.5 852V780.5H482.5V790V796L485 799L489 801L488.5 803L485.5 804.5V835.5L491.5 843V910L434.5 929L366.5 917L368.5 880.5V845.5L366.5 843L375 835.5L373.5 804.5L371 801.5V799.5L376.5 796.5V790L378 784V777.5H351L348 786H298L301.5 776.5H263L261.5 777.5L242 759.5H230.5L233 755.5L232.5 751L229.5 747.5L229 739L226 737L223 739V744L220 741L221 739L223 737V735.5L221.5 732L217.5 730H213L209.5 733.5V737L211 739.5V742L206 747L205 745.5V742.5V739.5L201 737L199 742V747L201 750L199 754.5L200 759.5H180.5L163.5 821V866L1 848.5V1499.5H2001V751H1962.5L1953 741L1950.5 744L1936 744.5L1914.5 717H1884.5H1874L1873.5 714.5H1868L1867.5 716.5L1830.5 716H1820.5L1817 712.5L1813 716L1809 716.5L1808.5 713H1806L1805 716H1796L1795 714H1789V715.5H1756V714H1751V715.5H1739L1728.5 730L1728 968.5L1762 970L1765.5 959V956.5V951.5L1763 950.5L1762 947.5L1762.5 944.5L1767.5 947.5V944.5L1768.5 943L1771.5 944V946.5L1775.5 950V953H1771.5V957.5V962.5L1772 964V965L1771.5 966.5V968.5L1772.5 970L1889 975.5L1888.5 973V972H1889V969.5L1888.5 968L1890 966.5L1891.5 965L1895 963.5L1898.5 961.5L1902.5 959L1905 955.5V950.5L1903.5 949.5V947L1904 944L1905 942.5V941L1905.5 937H1905L1903.5 936.5V933.5V931L1904 929L1905 927.5H1906.5L1908 928.5L1909 930.5V933.5L1908.5 936.5V942.5L1910 944V957L1913 958L1914 960.5L1917.5 963.5L1921 967.5L1923.5 970V974L1922.5 976.5H1929L1932.5 974V972V968L1934.5 963.5V961.5L1933 959.5V957L1934 954L1936 952L1936.5 948H1938.5V952L1940 953.5V959V962.5L1945 975.5L1999 978.5V992.5L1299.5 971M1052 720L1057 714.5V704.5H1063.5V714.5H1070V710.5L1080.5 708.5L1083 712V717.5H1095L1096 717L1095 712.5L1098 711L1102 714.5L1106 711L1109.5 716L1110.5 714.5L1111.5 712.5L1113 712L1114 714.5H1116L1119 712.5L1122.5 713L1123.5 714.5V716H1125.5V714V713H1128L1131 717L1132 714H1135L1135.5 718.5L1137 720L1146 717.5H1153L1161 716L1164.5 718H1165.5L1168.5 716.5L1173 720L1178 718.5L1189.5 713V711L1192.5 710H1195L1200.5 702L1202 700.5L1203.5 701L1204.5 703V707.5H1216V704.5H1217L1221.5 703.5L1222.5 703L1227 703.5V707.5H1241.5V703H1249L1250.5 707.5L1251.5 706V697.5L1254.5 696.5L1256 698L1256.5 705.5H1258L1259 703V696.5H1265L1265.5 704L1267.5 707L1269 708L1273 705.5L1274 701L1278 700L1283.5 701L1284 699.5V697.5L1286 696.5H1287L1290 697.5V701.5L1291 705L1293 705.5L1292.77 696.5L1294.5 694L1295.5 696.5L1300 699V701.5H1303V705.5L1306 704.5V707.5H1308.5V702.5L1309 701.5H1310.5L1311 702.5V704.5H1314.5V701.5H1315.5V707.5H1320V703.5H1318.5V694.5L1320 693.5H1322L1322.5 694.5V702L1324 703.5V707.5H1330V702.5H1335L1335.5 685L1336.5 702.5H1339.5H1342.5L1343 707.5H1345.5V703.5L1346 700.5L1348.5 702.5V707.5H1353V702.5H1357V700.5H1359.5L1360.5 699H1363.5L1367.5 704L1369 706L1370 702L1371.73 702.5L1372.5 706.5L1378 710.5L1383.5 702.5L1386.5 704H1388V699H1389L1390 700H1391.5L1392 704L1400 705L1406 702V699H1410.5V703.5H1413.5L1421 701.5L1424 702.5H1426.5L1427.5 683.5L1426.5 682.5V677L1429 673.5L1431.5 671H1436.5L1441.5 677V680.5L1442.5 702.5L1445 705V706.5L1443.5 707.5L1446 710.5L1448.5 712.5V715.5L1454.5 716.5V725L1467.5 728.5H1473.5L1472.37 770M1052 720L1031.5 738V789.5M1299.5 971L1467 967.5L1472.37 770M1299.5 971H1250.5V966.5V963L1248.5 959L1249.5 953L1252 950V948L1248.5 947L1249.5 943L1246.5 938.5L1245 935L1243 938.5V943L1241.5 947V954.5V963V977L1208 1011L1178 1032.5V951L1184.5 943H1178L1168.5 935L1173 931.5L1168.5 917L1161 913L1164.5 907.5L1156.5 902.5V890L1161 886L1156.5 876L1153 859L1146 834L1142 859L1132 886L1135 890V902.5L1131 907.5V917L1122.5 922V938.5L1106 947L1116 954.5L1109.5 1057L1096 1070L1109.5 1078V1117.5L1096 1130.5H1052L1037.5 1117.5H1010.5L996 1130.5H978.5V1153H959.5L942 1130.5L894.5 1078V954.5L901.5 951L810 917L727.5 915H673.5L630 897L624.5 870.5V804.5M624.5 804.5H634H730.5M624.5 804.5H730.5M730.5 804.5V912L806 910L868 931.5V801.5L928.5 799H978.5L1031.5 789.5M1031.5 789.5V805.5L1057 818.5L1072 809.5L1087.5 816L1106 821L1119 814.5L1125.5 818.5L1142 812.5V796.5L1147 795.5L1152 788.5L1158 799V809.5L1161 814.5L1173 816L1178 809.5L1189.5 812.5L1206.5 823.5L1216 812.5H1222.5L1227 816L1243 818.5L1249.5 828.5H1274L1283.5 834V842H1292V832L1295.5 828.5L1307.5 844L1317.5 825L1322.5 823.5L1315.5 847L1353 853.5H1363.5L1360.5 836.5H1367.5V821H1375.5V809.5L1383.5 799L1406 796.5V781.5H1427.5L1429 795.5L1451.5 784.5L1472.37 770" stroke="#505050"/>
<path d="M1 944H10.5L42 926.5L64.5 907H80L83.5 890L88 883V857.5L94.5 842.5L100 778.5L104.5 842.5L109.5 857.5V880L115.5 886.5V904L121.5 900.5H127V907H135.5L134.5 898.5H150.5V904L163.5 907V833.5L165 907H176.5V900.5L180.5 898.5L182.25 902.75H187.5L190.5 907L198 900.5L202 904L206 911.5H218.5L237 907V900.5H244.5L251 914.5V904H261.5L265 911.5H272.5L278 902.75L281.5 904V931L316.5 926.5L333.5 939L361 922L371 923L374.5 916.5V905L371 902L374.5 895.5L383.5 889.5L384.5 880.5L382.5 877L386 871L389.5 877L388 880.5L389.5 889.5L398 895.5L400.5 902L399 905V916.5V921L406 923V925L410.5 929.5L424.5 925H459.5L461 915.5L459.5 914V912H467L470.5 916.5L475 918.5L482 921H486V912H484.5V909.5L489.5 906L496 902L504.5 899V888L501.5 884.5L508.5 876.5V874L506.5 872V870L508.5 868.5H512.5L514 870V872L512.5 874V876.5L519 879.5V886L517.5 890V899L526 902L531 906L534.5 912H533V918.5L538 923L545.5 927.5L548.5 925L562 923V915.5L566.5 914L571 916.5V914L584 916.5H586L586.5 914L593 914.5L594.5 916.5H601.5L602.5 914.5L609.5 914L610 916.5L611.5 918L612.5 916V912L617 909.5L617.5 907L618 903L621 901H622.5L624.5 905L626 908.5L626.5 912L626 914L624.5 914.5L624 915.5L624.5 916H626L631 916.5L635 923L633.5 927.5L637.5 933L640 939L652.5 947.5V931L649.5 925L652.5 923V916.5L656.5 909.5H660L662 915.5L664 918V923V925L670 921.5V918L677 912L681 914V909.5L679.5 907L696.5 892.5V883L702.5 874L699 867L704.5 864L709.5 867L707 874L713.5 883V892.5L729.5 907L726.5 914L812.5 918L900.5 947.5L893 955.5V1080.5V1146L967.5 1167V1146L990.5 1122.5H1005.5V1133.5H1054H1092L1099 1125.5L1151 1129V1122.5L1181 1118.5V1129H1193.5V1122.5H1250.5V1133.5L1309.5 1137V1125.5L1323 1121.5V1108.5H1328L1329.5 1123L1332.5 1118.5V1106H1337V1118.5H1346.5L1358 1115L1354.5 1104L1358 1098.5H1373.5L1379 1087.5V1081.5L1384.5 1078.5L1417.5 1070V1059.5L1415.5 1057L1458 1046L1465 1043.5V1042L1461.5 1040.5L1466 1017H1478L1482.5 1026.5V1038L1479.5 1042H1482.5L1532.5 1032L1565 1030.5L1567 1013H1586.5V1030.5H1594.5L1598 1035.5H1636.5L1639 1024.5H1646.5L1659.5 1017L1670 1026.5L1681.5 1017L1693 1024.5L1706 1017L1716 1026.5L1729.5 1017L1739.5 1026.5L1752 1017L1763 1026.5V1030.5L1771.5 1032L1775 1042H1795.5L1804 1048L1814.5 1042V1030.5V1024.5L1820 1008H1839.5L1841.5 1013H1854L1857 1024.5L1864.5 1035.5L1866.5 1042L1878 1048L1885 1040L1891 1046L1897.5 1042V1035.5V1030.5H1907L1910 1035.5V1040V1046H1920V1037.5L1924.5 1035.5H1939V1030.5V1026.5L1942.5 1024.5H1958.5L1960.5 1046L1973 1037.5L2001 1048V1500H1V944Z" fill="#808080"/>
<path d="M184 907L182.25 902.75M182.25 902.75L180.5 898.5L176.5 900.5V907H165L163.5 833.5V907L150.5 904V898.5H134.5L135.5 907H127V900.5H121.5L115.5 904V886.5L109.5 880V857.5L104.5 842.5L100 778.5L94.5 842.5L88 857.5V883L83.5 890L80 907H64.5L42 926.5L10.5 944H1V1500H2001V1048L1973 1037.5L1960.5 1046L1958.5 1024.5H1942.5L1939 1026.5V1030.5V1035.5H1924.5L1920 1037.5V1046H1910V1040V1035.5L1907 1030.5H1897.5V1035.5V1042L1891 1046L1885 1040L1878 1048L1866.5 1042L1864.5 1035.5L1857 1024.5L1854 1013H1841.5L1839.5 1008H1820L1814.5 1024.5V1030.5V1042L1804 1048L1795.5 1042H1775L1771.5 1032L1763 1030.5V1026.5L1752 1017L1739.5 1026.5L1729.5 1017L1716 1026.5L1706 1017L1693 1024.5L1681.5 1017L1670 1026.5L1659.5 1017L1646.5 1024.5H1639L1636.5 1035.5H1598L1594.5 1030.5H1586.5V1013H1567L1565 1030.5L1532.5 1032L1482.5 1042H1479.5L1482.5 1038V1026.5L1478 1017H1466L1461.5 1040.5L1465 1042V1043.5L1458 1046L1415.5 1057L1417.5 1059.5V1070L1384.5 1078.5L1379 1081.5V1087.5L1373.5 1098.5H1358L1354.5 1104L1358 1115L1346.5 1118.5H1337V1106H1332.5V1118.5L1329.5 1123L1328 1108.5H1323V1121.5L1309.5 1125.5V1137L1250.5 1133.5V1122.5H1193.5V1129H1181V1118.5L1151 1122.5V1129L1099 1125.5L1092 1133.5H1054H1005.5V1122.5H990.5L967.5 1146V1167L893 1146V1080.5V955.5L900.5 947.5L812.5 918L726.5 914L729.5 907L713.5 892.5V883L707 874L709.5 867L704.5 864L699 867L702.5 874L696.5 883V892.5L679.5 907L681 909.5V914L677 912L670 918V921.5L664 925V923V918L662 915.5L660 909.5H656.5L652.5 916.5V923L649.5 925L652.5 931V947.5L640 939L637.5 933L633.5 927.5L635 923L631 916.5L626 916H624.5L624 915.5L624.5 914.5L626 914L626.5 912L626 908.5L624.5 905L622.5 901H621L618 903L617.5 907L617 909.5L612.5 912V916L611.5 918L610 916.5L609.5 914L602.5 914.5L601.5 916.5H594.5L593 914.5L586.5 914L586 916.5H584L571 914V916.5L566.5 914L562 915.5V923L548.5 925L545.5 927.5L538 923L533 918.5V912H534.5L531 906L526 902L517.5 899V890L519 886V879.5L512.5 876.5V874L514 872V870L512.5 868.5H508.5L506.5 870V872L508.5 874V876.5L501.5 884.5L504.5 888V899L496 902L489.5 906L484.5 909.5V912H486V921H482L475 918.5L470.5 916.5L467 912H459.5V914L461 915.5L459.5 925H424.5L410.5 929.5L406 925V923L399 921V916.5V905L400.5 902L398 895.5L389.5 889.5L388 880.5L389.5 877L386 871L382.5 877L384.5 880.5L383.5 889.5L374.5 895.5L371 902L374.5 905V916.5L371 923L361 922L333.5 939L316.5 926.5L281.5 931V904L278 902.75L272.5 911.5H265L261.5 904H251V914.5L244.5 900.5H237V907L218.5 911.5H206L202 904L198 900.5L190.5 907L187.5 902.75H182.25Z" stroke="#808080"/>
<path fill-rule="evenodd" clip-rule="evenodd" d="M10 1316L1 1315V1500H656L657 1396L659 1395V1381.5H648L622 1378L621 1220L623 1218V1215L620.5 1213L619.5 1211H617.5L616.5 1213L613.5 1215.5L614.5 1218L617.5 1220V1224L616 1227.5L605.5 1252L597 1287L588.5 1320.5L583.5 1334L580.5 1346L578 1359.58L580.5 1371.89L591 1363V1356.5L597 1346L605.5 1334L616 1327.5V1376L580.5 1371.89L474 1359.58V1326.5L479 1320.5L480.5 1285.5L475.5 1248V1216L477.5 1213.5V1211L473.5 1207L469 1211V1213.5L471.5 1216V1222L431.5 1280.5L436 1359.58L467 1327.5V1363L436 1359.58L313 1346V1210L314.5 1208V1205V1203.5H311.5V1201H308.5V1203.5L306 1205V1208L308.5 1210V1214.5L289.5 1258L286.5 1262L281 1277L278 1281L276.5 1287L275 1291.5L272.5 1294.5L271.5 1297.5L269.5 1299.5L268.5 1302.5H267V1305L265 1306.5L262.5 1313L256.5 1325V1330.5L258 1334V1340.5L168 1332L170.5 1204.5L172.5 1202.5V1199L170 1196.5L168 1194L166 1197L163.5 1199.5V1202.5L166 1204.5V1211.5L160.5 1220L156.5 1228.5L152 1240.5L144 1259.5L140.5 1264.5L142.5 1268.5L140 1271.5L139.5 1277L138.5 1281.5L136.5 1283L135.5 1285.5L135 1291.5V1296L132 1301.5L129.5 1306L127 1308L125 1309V1313.5L123.5 1315V1318.5L122 1322H120.5L120 1327.5L16 1317L16.5 1201L18.5 1199V1197.5L16 1194H15L12.5 1197.5V1199L14 1201L13.5 1213L12 1211L1 1226V1293L10 1296V1316ZM299 1310L294 1344L306 1345V1306.5L299 1310ZM162.5 1303L161 1331L139 1329V1327.5V1325.5L139.5 1320.5L141 1318.5L142 1314L143.5 1311.5L148 1308L159 1301L161.5 1300.5L162.5 1303Z" fill="#9A9A9A"/>
<path d="M699.5 1483L697.5 1500H2001V1265L1974 1229L1890 1344.5H1783.5L1602 1359V1344.5L1610 1328L1602 1311H1593.5V1303H1590V1311H1584L1578 1328L1584 1344.5V1359H1565V1386H1537.5H1520V1359H1496L1487 1362.5V1386L1385.5 1382V1356.5H1377.5V1349.5H1369.5V1356.5L1359 1359V1356.5H1338V1378.5L1322 1375H1305.5L1301.5 1349.5L1293 1344.5L1278 1349.5L1273 1359V1392L1268 1412H1250V1378.5L1240 1375L1233.5 1367L1223 1375H1207.5V1484L1188.5 1480.5V1455L1181 1436.5H1174.5L1169.5 1444L1161.5 1466.5H1143.5L1128 1455L1117.5 1444H1085.5L1071 1457.5L1046 1436.5L1032 1460.5L1006.5 1455L991.5 1425.5L984.5 1412L979 1400.5L977 1392L979 1390L977 1388V1386.5V1363L981.5 1359L961 1344.5L955 1327.5L950.5 1299L932.5 1269L915.5 1242L909.5 1217V1195.5H853L848.5 1226.5L843.5 1242L828.5 1261L812 1283L805 1304L802 1327.5L794.5 1341L789 1338H785.5L782 1336L777.5 1338V1344.5H769L764 1341V1356.5L775 1359L782 1363L780 1381.5L777.5 1386.5L780 1388L761 1422H756L750.5 1424.5L748.5 1431L745.5 1436.5V1442.5L743.5 1450.5L736.5 1460.5L738.5 1456L735 1453.5V1450.5L736.5 1446.5L732.5 1444L729.5 1446.5L731 1450.5V1453.5L727.5 1456L729.5 1460.5H721.5V1457.5L724.5 1453.5L717.5 1446.5L713.5 1442.5V1439.5L717.5 1434.5V1431L713.5 1426L709.5 1424.5L705 1426L702.5 1431V1434.5L705 1439.5L702.5 1446.5L694.5 1450.5V1453.5L699.5 1460.5L697.5 1472.5V1479L699.5 1483Z" fill="#9A9A9A"/>
<path d="M1 1315L1.05522 1314.5L0.5 1314.44V1315H1ZM10 1316L9.94478 1316.5L10.5 1316.56V1316H10ZM10 1296H10.5V1295.64L10.1581 1295.53L10 1296ZM1 1293H0.5V1293.36L0.841886 1293.47L1 1293ZM1 1226L0.596798 1225.7L0.5 1225.84V1226H1ZM12 1211L12.4 1210.7L11.9955 1210.16L11.5968 1210.7L12 1211ZM13.5 1213L13.1 1213.3L13.9412 1214.42L13.9996 1213.02L13.5 1213ZM14 1201L14.4996 1201.02L14.507 1200.84L14.4 1200.7L14 1201ZM12.5 1199H12V1199.17L12.1 1199.3L12.5 1199ZM12.5 1197.5L12.0931 1197.21L12 1197.34V1197.5H12.5ZM15 1194V1193.5H14.7427L14.5931 1193.71L15 1194ZM16 1194L16.4069 1193.71L16.2573 1193.5H16V1194ZM18.5 1197.5H19V1197.34L18.9069 1197.21L18.5 1197.5ZM18.5 1199L18.8536 1199.35L19 1199.21V1199H18.5ZM16.5 1201L16.1464 1200.65L16.0009 1200.79L16 1201L16.5 1201ZM16 1317L15.5 1317L15.498 1317.45L15.9498 1317.5L16 1317ZM120 1327.5L119.95 1328L120.452 1328.05L120.498 1327.55L120 1327.5ZM120.5 1322V1321.5H120.043L120.002 1321.95L120.5 1322ZM122 1322V1322.5H122.33L122.46 1322.2L122 1322ZM123.5 1318.5L123.96 1318.7L124 1318.6V1318.5H123.5ZM123.5 1315L123.146 1314.65L123 1314.79V1315H123.5ZM125 1313.5L125.354 1313.85L125.5 1313.71V1313.5H125ZM125 1309L124.776 1308.55L124.5 1308.69V1309H125ZM127 1308L127.224 1308.45L127.271 1308.42L127.312 1308.39L127 1308ZM129.5 1306L129.812 1306.39L129.889 1306.33L129.937 1306.24L129.5 1306ZM132 1301.5L132.437 1301.74L132.439 1301.74L132 1301.5ZM135 1296L135.439 1296.24L135.5 1296.13V1296H135ZM135 1291.5L134.502 1291.46L134.5 1291.48V1291.5H135ZM135.5 1285.5L135.036 1285.31L135.008 1285.38L135.002 1285.46L135.5 1285.5ZM136.5 1283L136.2 1282.6L136.088 1282.68L136.036 1282.81L136.5 1283ZM138.5 1281.5L138.8 1281.9L138.948 1281.79L138.988 1281.61L138.5 1281.5ZM139.5 1277L139.988 1277.11L139.995 1277.08L139.998 1277.05L139.5 1277ZM140 1271.5L139.616 1271.18L139.516 1271.3L139.502 1271.45L140 1271.5ZM142.5 1268.5L142.884 1268.82L143.093 1268.57L142.947 1268.28L142.5 1268.5ZM140.5 1264.5L140.09 1264.21L139.92 1264.46L140.053 1264.72L140.5 1264.5ZM144 1259.5L144.41 1259.79L144.44 1259.74L144.461 1259.69L144 1259.5ZM152 1240.5L152.461 1240.69L152.465 1240.68L152.468 1240.68L152 1240.5ZM156.5 1228.5L156.048 1228.29L156.039 1228.31L156.032 1228.32L156.5 1228.5ZM160.5 1220L160.08 1219.73L160.062 1219.76L160.048 1219.79L160.5 1220ZM166 1211.5L166.42 1211.77L166.5 1211.65V1211.5H166ZM166 1204.5H166.5V1204.26L166.312 1204.11L166 1204.5ZM163.5 1202.5H163V1202.74L163.188 1202.89L163.5 1202.5ZM163.5 1199.5L163.146 1199.15L163 1199.29V1199.5H163.5ZM166 1197L166.354 1197.35L166.389 1197.32L166.416 1197.28L166 1197ZM168 1194L168.39 1193.69L167.963 1193.15L167.584 1193.72L168 1194ZM170 1196.5L169.61 1196.81L169.627 1196.83L169.646 1196.85L170 1196.5ZM172.5 1199H173V1198.79L172.854 1198.65L172.5 1199ZM172.5 1202.5L172.854 1202.85L173 1202.71V1202.5H172.5ZM170.5 1204.5L170.146 1204.15L170.004 1204.29L170 1204.49L170.5 1204.5ZM168 1332L167.5 1331.99L167.491 1332.45L167.953 1332.5L168 1332ZM258 1340.5L257.953 1341L258.5 1341.05V1340.5H258ZM258 1334H258.5V1333.9L258.46 1333.8L258 1334ZM256.5 1330.5H256V1330.6L256.04 1330.7L256.5 1330.5ZM256.5 1325L256.053 1324.78L256 1324.88V1325H256.5ZM262.5 1313L262.947 1313.22L262.958 1313.2L262.967 1313.18L262.5 1313ZM265 1306.5L264.7 1306.1L264.585 1306.19L264.533 1306.32L265 1306.5ZM267 1305L267.3 1305.4L267.5 1305.25V1305H267ZM267 1302.5V1302H266.5V1302.5H267ZM268.5 1302.5V1303H268.86L268.974 1302.66L268.5 1302.5ZM269.5 1299.5L269.146 1299.15L269.063 1299.23L269.026 1299.34L269.5 1299.5ZM271.5 1297.5L271.854 1297.85L271.937 1297.77L271.974 1297.66L271.5 1297.5ZM272.5 1294.5L272.116 1294.18L272.055 1294.25L272.026 1294.34L272.5 1294.5ZM275 1291.5L275.384 1291.82L275.445 1291.75L275.474 1291.66L275 1291.5ZM276.5 1287L276.974 1287.16L276.98 1287.14L276.985 1287.12L276.5 1287ZM278 1281L277.6 1280.7L277.539 1280.78L277.515 1280.88L278 1281ZM281 1277L281.4 1277.3L281.444 1277.24L281.469 1277.17L281 1277ZM286.5 1262L286.1 1261.7L286.056 1261.76L286.031 1261.83L286.5 1262ZM289.5 1258L289.9 1258.3L289.935 1258.25L289.958 1258.2L289.5 1258ZM308.5 1214.5L308.958 1214.7L309 1214.6V1214.5H308.5ZM308.5 1210H309V1209.76L308.812 1209.61L308.5 1210ZM306 1208H305.5V1208.24L305.688 1208.39L306 1208ZM306 1205L305.743 1204.57L305.5 1204.72V1205H306ZM308.5 1203.5L308.757 1203.93L309 1203.78V1203.5H308.5ZM308.5 1201V1200.5H308V1201H308.5ZM311.5 1201H312V1200.5H311.5V1201ZM311.5 1203.5H311V1204H311.5V1203.5ZM314.5 1203.5H315V1203H314.5V1203.5ZM314.5 1208L314.9 1208.3L315 1208.17V1208H314.5ZM313 1210L312.6 1209.7L312.5 1209.83V1210H313ZM313 1346H312.5V1346.45L312.945 1346.5L313 1346ZM467 1363L466.945 1363.5L467.5 1363.56V1363H467ZM467 1327.5H467.5V1326.26L466.64 1327.15L467 1327.5ZM436 1359.58L435.945 1360.07L435.945 1360.07L436 1359.58ZM431.5 1280.5L431.087 1280.22L430.991 1280.36L431.001 1280.53L431.5 1280.5ZM471.5 1222L471.913 1222.28L472 1222.15V1222H471.5ZM471.5 1216H472V1215.79L471.854 1215.65L471.5 1216ZM469 1213.5H468.5V1213.71L468.646 1213.85L469 1213.5ZM469 1211L468.668 1210.63L468.5 1210.78V1211H469ZM473.5 1207L473.854 1206.65L473.52 1206.31L473.168 1206.63L473.5 1207ZM477.5 1211H478V1210.79L477.854 1210.65L477.5 1211ZM477.5 1213.5L477.89 1213.81L478 1213.68V1213.5H477.5ZM475.5 1216L475.11 1215.69L475 1215.82V1216H475.5ZM475.5 1248H475V1248.03L475.004 1248.07L475.5 1248ZM480.5 1285.5L481 1285.52L481.001 1285.48L480.996 1285.43L480.5 1285.5ZM479 1320.5L479.384 1320.82L479.492 1320.69L479.5 1320.52L479 1320.5ZM474 1326.5L473.616 1326.18L473.5 1326.32V1326.5H474ZM474 1359.58H473.5V1360.02L473.943 1360.07L474 1359.58ZM616 1376L615.943 1376.5L616.5 1376.56V1376H616ZM616 1327.5H616.5V1326.6L615.737 1327.07L616 1327.5ZM605.5 1334L605.237 1333.57L605.151 1333.63L605.092 1333.71L605.5 1334ZM597 1346L596.592 1345.71L596.578 1345.73L596.566 1345.75L597 1346ZM591 1356.5L590.566 1356.25L590.5 1356.37V1356.5H591ZM591 1363L591.323 1363.38L591.5 1363.23V1363H591ZM580.5 1371.89L580.443 1372.39L580.443 1372.39L580.5 1371.89ZM578 1359.58L577.508 1359.49L577.491 1359.58L577.51 1359.68L578 1359.58ZM580.5 1346L580.015 1345.88L580.011 1345.89L580.008 1345.91L580.5 1346ZM583.5 1334L583.031 1333.83L583.022 1333.85L583.015 1333.88L583.5 1334ZM588.5 1320.5L588.969 1320.67L588.978 1320.65L588.985 1320.62L588.5 1320.5ZM597 1287L597.485 1287.12L597.486 1287.12L597 1287ZM605.5 1252L605.04 1251.8L605.024 1251.84L605.014 1251.88L605.5 1252ZM617.5 1224L617.96 1224.2L618 1224.1V1224H617.5ZM617.5 1220H618V1219.73L617.777 1219.58L617.5 1220ZM614.5 1218L614.036 1218.19L614.093 1218.33L614.223 1218.42L614.5 1218ZM613.5 1215.5L613.18 1215.12L612.901 1215.35L613.036 1215.69L613.5 1215.5ZM616.5 1213L616.82 1213.38L616.9 1213.32L616.947 1213.22L616.5 1213ZM617.5 1211V1210.5H617.191L617.053 1210.78L617.5 1211ZM619.5 1211L619.947 1210.78L619.809 1210.5H619.5V1211ZM620.5 1213L620.053 1213.22L620.102 1213.32L620.188 1213.39L620.5 1213ZM623 1215H623.5V1214.76L623.312 1214.61L623 1215ZM623 1218L623.354 1218.35L623.5 1218.21V1218H623ZM621 1220L620.646 1219.65L620.499 1219.79L620.5 1220L621 1220ZM622 1378L621.5 1378L621.503 1378.44L621.933 1378.5L622 1378ZM648 1381.5L647.933 1382L647.966 1382H648V1381.5ZM659 1381.5H659.5V1381H659V1381.5ZM659 1395L659.224 1395.45L659.5 1395.31V1395H659ZM657 1396L656.776 1395.55L656.503 1395.69L656.5 1396L657 1396ZM699.5 1483L699.997 1483.06L700.014 1482.91L699.947 1482.78L699.5 1483ZM697.5 1479H697V1479.12L697.053 1479.22L697.5 1479ZM697.5 1472.5L697.007 1472.42L697 1472.46V1472.5H697.5ZM699.5 1460.5L699.993 1460.58L700.027 1460.38L699.907 1460.21L699.5 1460.5ZM694.5 1453.5H694V1453.66L694.093 1453.79L694.5 1453.5ZM694.5 1450.5L694.276 1450.05L694 1450.19V1450.5H694.5ZM702.5 1446.5L702.724 1446.95L702.903 1446.86L702.971 1446.67L702.5 1446.5ZM705 1439.5L705.471 1439.67L705.543 1439.47L705.447 1439.28L705 1439.5ZM702.5 1434.5H702V1434.62L702.053 1434.72L702.5 1434.5ZM702.5 1431L702.053 1430.78L702 1430.88V1431H702.5ZM705 1426L704.842 1425.53L704.645 1425.59L704.553 1425.78L705 1426ZM709.5 1424.5L709.676 1424.03L709.51 1423.97L709.342 1424.03L709.5 1424.5ZM713.5 1426L713.89 1425.69L713.804 1425.58L713.676 1425.53L713.5 1426ZM717.5 1431H718V1430.82L717.89 1430.69L717.5 1431ZM717.5 1434.5L717.89 1434.81L718 1434.68V1434.5H717.5ZM713.5 1439.5L713.11 1439.19L713 1439.32V1439.5H713.5ZM713.5 1442.5H713V1442.71L713.146 1442.85L713.5 1442.5ZM724.5 1453.5L724.9 1453.8L725.16 1453.45L724.854 1453.15L724.5 1453.5ZM721.5 1457.5L721.1 1457.2L721 1457.33V1457.5H721.5ZM721.5 1460.5H721V1461H721.5V1460.5ZM729.5 1460.5V1461H730.269L729.957 1460.3L729.5 1460.5ZM727.5 1456L727.209 1455.59L726.877 1455.83L727.043 1456.2L727.5 1456ZM731 1453.5L731.291 1453.91L731.5 1453.76V1453.5H731ZM731 1450.5H731.5V1450.41L731.468 1450.32L731 1450.5ZM729.5 1446.5L729.18 1446.12L728.907 1446.34L729.032 1446.68L729.5 1446.5ZM732.5 1444L732.765 1443.58L732.458 1443.38L732.18 1443.62L732.5 1444ZM736.5 1446.5L736.968 1446.68L737.112 1446.29L736.765 1446.08L736.5 1446.5ZM735 1450.5L734.532 1450.32L734.5 1450.41V1450.5H735ZM735 1453.5H734.5V1453.76L734.709 1453.91L735 1453.5ZM738.5 1456L738.957 1456.2L739.123 1455.83L738.791 1455.59L738.5 1456ZM736.5 1460.5L736.043 1460.3L736.91 1460.79L736.5 1460.5ZM743.5 1450.5L743.91 1450.79L743.963 1450.71L743.985 1450.62L743.5 1450.5ZM745.5 1442.5L745.985 1442.62L746 1442.56V1442.5H745.5ZM745.5 1436.5L745.061 1436.26L745 1436.37V1436.5H745.5ZM748.5 1431L748.939 1431.24L748.963 1431.2L748.978 1431.15L748.5 1431ZM750.5 1424.5L750.293 1424.04L750.088 1424.14L750.022 1424.35L750.5 1424.5ZM756 1422V1421.5H755.892L755.793 1421.54L756 1422ZM761 1422V1422.5H761.293L761.436 1422.24L761 1422ZM780 1388L780.436 1388.24L780.673 1387.82L780.257 1387.57L780 1388ZM777.5 1386.5L777.053 1386.28L776.846 1386.69L777.243 1386.93L777.5 1386.5ZM780 1381.5L780.447 1381.72L780.487 1381.64L780.497 1381.55L780 1381.5ZM782 1363L782.497 1363.05L782.532 1362.73L782.248 1362.57L782 1363ZM775 1359L775.248 1358.57L775.183 1358.53L775.111 1358.51L775 1359ZM764 1356.5H763.5V1356.9L763.889 1356.99L764 1356.5ZM764 1341L764.287 1340.59L763.5 1340.04V1341H764ZM769 1344.5L768.713 1344.91L768.842 1345H769V1344.5ZM777.5 1344.5V1345H778V1344.5H777.5ZM777.5 1338L777.297 1337.54L777 1337.68V1338H777.5ZM782 1336L782.248 1335.57L782.028 1335.44L781.797 1335.54L782 1336ZM785.5 1338L785.252 1338.43L785.367 1338.5H785.5V1338ZM789 1338L789.239 1337.56L789.127 1337.5H789V1338ZM794.5 1341L794.261 1341.44L794.696 1341.68L794.937 1341.24L794.5 1341ZM802 1327.5L802.437 1327.74L802.484 1327.66L802.496 1327.56L802 1327.5ZM805 1304L804.526 1303.84L804.51 1303.89L804.504 1303.94L805 1304ZM812 1283L811.6 1282.7L811.551 1282.76L811.526 1282.84L812 1283ZM828.5 1261L828.107 1260.69L828.1 1260.7L828.5 1261ZM843.5 1242L843.892 1242.31L843.948 1242.24L843.976 1242.15L843.5 1242ZM848.5 1226.5L848.976 1226.65L848.989 1226.61L848.995 1226.57L848.5 1226.5ZM853 1195.5V1195H852.567L852.505 1195.43L853 1195.5ZM909.5 1195.5H910V1195H909.5V1195.5ZM909.5 1217H909V1217.06L909.014 1217.12L909.5 1217ZM915.5 1242L915.014 1242.12L915.033 1242.2L915.077 1242.27L915.5 1242ZM932.5 1269L932.929 1268.74L932.923 1268.73L932.5 1269ZM950.5 1299L950.994 1298.92L950.979 1298.83L950.929 1298.74L950.5 1299ZM955 1327.5L954.506 1327.58L954.513 1327.62L954.529 1327.67L955 1327.5ZM961 1344.5L960.529 1344.67L960.581 1344.82L960.711 1344.91L961 1344.5ZM981.5 1359L981.832 1359.37L982.303 1358.96L981.789 1358.59L981.5 1359ZM977 1363L976.668 1362.63L976.5 1362.78V1363H977ZM977 1388H976.5V1388.21L976.646 1388.35L977 1388ZM979 1390L979.354 1390.35L979.707 1390L979.354 1389.65L979 1390ZM977 1392L976.646 1391.65L976.449 1391.84L976.513 1392.11L977 1392ZM979 1400.5L978.513 1400.61L978.526 1400.67L978.549 1400.72L979 1400.5ZM984.5 1412L984.049 1412.22L984.052 1412.22L984.056 1412.23L984.5 1412ZM991.5 1425.5L991.946 1425.27L991.944 1425.27L991.5 1425.5ZM1006.5 1455L1006.05 1455.23L1006.16 1455.44L1006.39 1455.49L1006.5 1455ZM1032 1460.5L1031.89 1460.99L1032.25 1461.07L1032.43 1460.75L1032 1460.5ZM1046 1436.5L1046.32 1436.12L1045.87 1435.74L1045.57 1436.25L1046 1436.5ZM1071 1457.5L1070.68 1457.88L1071.02 1458.17L1071.34 1457.87L1071 1457.5ZM1085.5 1444V1443.5H1085.3L1085.16 1443.63L1085.5 1444ZM1117.5 1444L1117.86 1443.65L1117.71 1443.5H1117.5V1444ZM1128 1455L1127.64 1455.35L1127.67 1455.38L1127.7 1455.4L1128 1455ZM1143.5 1466.5L1143.2 1466.9L1143.33 1467H1143.5V1466.5ZM1161.5 1466.5V1467H1161.85L1161.97 1466.67L1161.5 1466.5ZM1169.5 1444L1169.08 1443.72L1169.05 1443.77L1169.03 1443.83L1169.5 1444ZM1174.5 1436.5V1436H1174.23L1174.08 1436.22L1174.5 1436.5ZM1181 1436.5L1181.46 1436.31L1181.34 1436H1181V1436.5ZM1188.5 1455H1189V1454.9L1188.96 1454.81L1188.5 1455ZM1188.5 1480.5H1188V1480.92L1188.41 1480.99L1188.5 1480.5ZM1207.5 1484L1207.41 1484.49L1208 1484.6V1484H1207.5ZM1207.5 1375V1374.5H1207V1375H1207.5ZM1223 1375V1375.5H1223.17L1223.3 1375.4L1223 1375ZM1233.5 1367L1233.89 1366.68L1233.58 1366.31L1233.2 1366.6L1233.5 1367ZM1240 1375L1239.61 1375.32L1239.7 1375.43L1239.83 1375.47L1240 1375ZM1250 1378.5H1250.5V1378.15L1250.17 1378.03L1250 1378.5ZM1250 1412H1249.5V1412.5H1250V1412ZM1268 1412V1412.5H1268.39L1268.49 1412.12L1268 1412ZM1273 1392L1273.49 1392.12L1273.5 1392.06V1392H1273ZM1273 1359L1272.56 1358.77L1272.5 1358.88V1359H1273ZM1278 1349.5L1277.84 1349.03L1277.65 1349.09L1277.56 1349.27L1278 1349.5ZM1293 1344.5L1293.25 1344.07L1293.06 1343.95L1292.84 1344.03L1293 1344.5ZM1301.5 1349.5L1301.99 1349.42L1301.96 1349.19L1301.75 1349.07L1301.5 1349.5ZM1305.5 1375L1305.01 1375.08L1305.07 1375.5H1305.5V1375ZM1322 1375L1322.11 1374.51L1322.05 1374.5H1322V1375ZM1338 1378.5L1337.89 1378.99L1338.5 1379.12V1378.5H1338ZM1338 1356.5V1356H1337.5V1356.5H1338ZM1359 1356.5H1359.5V1356H1359V1356.5ZM1359 1359H1358.5V1359.63L1359.12 1359.49L1359 1359ZM1369.5 1356.5L1369.62 1356.99L1370 1356.89V1356.5H1369.5ZM1369.5 1349.5V1349H1369V1349.5H1369.5ZM1377.5 1349.5H1378V1349H1377.5V1349.5ZM1377.5 1356.5H1377V1357H1377.5V1356.5ZM1385.5 1356.5H1386V1356H1385.5V1356.5ZM1385.5 1382H1385V1382.48L1385.48 1382.5L1385.5 1382ZM1487 1386L1486.98 1386.5L1487.5 1386.52V1386H1487ZM1487 1362.5L1486.82 1362.03L1486.5 1362.16V1362.5H1487ZM1496 1359V1358.5H1495.91L1495.82 1358.53L1496 1359ZM1520 1359H1520.5V1358.5H1520V1359ZM1520 1386H1519.5V1386.5H1520V1386ZM1565 1386V1386.5H1565.5V1386H1565ZM1565 1359V1358.5H1564.5V1359H1565ZM1584 1359V1359.5H1584.5V1359H1584ZM1584 1344.5H1584.5V1344.41L1584.47 1344.33L1584 1344.5ZM1578 1328L1577.53 1327.83L1577.47 1328L1577.53 1328.17L1578 1328ZM1584 1311V1310.5H1583.65L1583.53 1310.83L1584 1311ZM1590 1311V1311.5H1590.5V1311H1590ZM1590 1303V1302.5H1589.5V1303H1590ZM1593.5 1303H1594V1302.5H1593.5V1303ZM1593.5 1311H1593V1311.5H1593.5V1311ZM1602 1311L1602.45 1310.79L1602.32 1310.5H1602V1311ZM1610 1328L1610.45 1328.22L1610.55 1328L1610.45 1327.79L1610 1328ZM1602 1344.5L1601.55 1344.28L1601.5 1344.39V1344.5H1602ZM1602 1359H1601.5V1359.54L1602.04 1359.5L1602 1359ZM1783.5 1344.5V1344H1783.48L1783.46 1344L1783.5 1344.5ZM1890 1344.5V1345H1890.25L1890.4 1344.79L1890 1344.5ZM1974 1229L1974.4 1228.7L1973.99 1228.16L1973.6 1228.71L1974 1229ZM2001 1265H2001.5V1264.83L2001.4 1264.7L2001 1265ZM2001 1500V1500.5H2001.5V1500H2001ZM1 1500H0.5V1500.5H1V1500ZM294 1344L293.505 1343.93L293.428 1344.45L293.958 1344.5L294 1344ZM299 1310L298.776 1309.55L298.543 1309.67L298.505 1309.93L299 1310ZM306 1306.5H306.5V1305.69L305.776 1306.05L306 1306.5ZM306 1345L305.958 1345.5L306.5 1345.54V1345H306ZM161 1331L160.955 1331.5L161.472 1331.54L161.499 1331.03L161 1331ZM162.5 1303L162.999 1303.03L163.005 1302.92L162.964 1302.81L162.5 1303ZM161.5 1300.5L161.964 1300.31L161.81 1299.93L161.402 1300.01L161.5 1300.5ZM159 1301L158.902 1300.51L158.81 1300.53L158.732 1300.58L159 1301ZM148 1308L147.732 1307.58L147.712 1307.59L147.693 1307.61L148 1308ZM143.5 1311.5L143.193 1311.11L143.119 1311.16L143.071 1311.24L143.5 1311.5ZM142 1314L141.571 1313.74L141.53 1313.81L141.512 1313.89L142 1314ZM141 1318.5L141.4 1318.8L141.465 1318.71L141.488 1318.61L141 1318.5ZM139.5 1320.5L139.1 1320.2L139.016 1320.31L139.002 1320.45L139.5 1320.5ZM139 1325.5L138.502 1325.45L138.5 1325.48V1325.5H139ZM139 1329H138.5V1329.46L138.955 1329.5L139 1329ZM0.944784 1315.5L9.94478 1316.5L10.0552 1315.5L1.05522 1314.5L0.944784 1315.5ZM10.5 1316V1296H9.5V1316H10.5ZM10.1581 1295.53L1.15811 1292.53L0.841886 1293.47L9.84189 1296.47L10.1581 1295.53ZM1.5 1293V1226H0.5V1293H1.5ZM1.4032 1226.3L12.4032 1211.3L11.5968 1210.7L0.596798 1225.7L1.4032 1226.3ZM11.6 1211.3L13.1 1213.3L13.9 1212.7L12.4 1210.7L11.6 1211.3ZM13.9996 1213.02L14.4996 1201.02L13.5004 1200.98L13.0004 1212.98L13.9996 1213.02ZM14.4 1200.7L12.9 1198.7L12.1 1199.3L13.6 1201.3L14.4 1200.7ZM13 1199V1197.5H12V1199H13ZM12.9069 1197.79L15.4069 1194.29L14.5931 1193.71L12.0931 1197.21L12.9069 1197.79ZM15 1194.5H16V1193.5H15V1194.5ZM15.5931 1194.29L18.0931 1197.79L18.9069 1197.21L16.4069 1193.71L15.5931 1194.29ZM18 1197.5V1199H19V1197.5H18ZM18.1464 1198.65L16.1464 1200.65L16.8536 1201.35L18.8536 1199.35L18.1464 1198.65ZM16 1201L15.5 1317L16.5 1317L17 1201L16 1201ZM15.9498 1317.5L119.95 1328L120.05 1327L16.0502 1316.5L15.9498 1317.5ZM120.498 1327.55L120.998 1322.05L120.002 1321.95L119.502 1327.45L120.498 1327.55ZM120.5 1322.5H122V1321.5H120.5V1322.5ZM122.46 1322.2L123.96 1318.7L123.04 1318.3L121.54 1321.8L122.46 1322.2ZM124 1318.5V1315H123V1318.5H124ZM123.854 1315.35L125.354 1313.85L124.646 1313.15L123.146 1314.65L123.854 1315.35ZM125.5 1313.5V1309H124.5V1313.5H125.5ZM125.224 1309.45L127.224 1308.45L126.776 1307.55L124.776 1308.55L125.224 1309.45ZM127.312 1308.39L129.812 1306.39L129.188 1305.61L126.688 1307.61L127.312 1308.39ZM129.937 1306.24L132.437 1301.74L131.563 1301.26L129.063 1305.76L129.937 1306.24ZM132.439 1301.74L135.439 1296.24L134.561 1295.76L131.561 1301.26L132.439 1301.74ZM135.5 1296V1291.5H134.5V1296H135.5ZM135.498 1291.54L135.998 1285.54L135.002 1285.46L134.502 1291.46L135.498 1291.54ZM135.964 1285.69L136.964 1283.19L136.036 1282.81L135.036 1285.31L135.964 1285.69ZM136.8 1283.4L138.8 1281.9L138.2 1281.1L136.2 1282.6L136.8 1283.4ZM138.988 1281.61L139.988 1277.11L139.012 1276.89L138.012 1281.39L138.988 1281.61ZM139.998 1277.05L140.498 1271.55L139.502 1271.45L139.002 1276.95L139.998 1277.05ZM140.384 1271.82L142.884 1268.82L142.116 1268.18L139.616 1271.18L140.384 1271.82ZM142.947 1268.28L140.947 1264.28L140.053 1264.72L142.053 1268.72L142.947 1268.28ZM140.91 1264.79L144.41 1259.79L143.59 1259.21L140.09 1264.21L140.91 1264.79ZM144.461 1259.69L152.461 1240.69L151.539 1240.31L143.539 1259.31L144.461 1259.69ZM152.468 1240.68L156.968 1228.68L156.032 1228.32L151.532 1240.32L152.468 1240.68ZM156.952 1228.71L160.952 1220.21L160.048 1219.79L156.048 1228.29L156.952 1228.71ZM160.92 1220.27L166.42 1211.77L165.58 1211.23L160.08 1219.73L160.92 1220.27ZM166.5 1211.5V1204.5H165.5V1211.5H166.5ZM166.312 1204.11L163.812 1202.11L163.188 1202.89L165.688 1204.89L166.312 1204.11ZM164 1202.5V1199.5H163V1202.5H164ZM163.854 1199.85L166.354 1197.35L165.646 1196.65L163.146 1199.15L163.854 1199.85ZM166.416 1197.28L168.416 1194.28L167.584 1193.72L165.584 1196.72L166.416 1197.28ZM167.61 1194.31L169.61 1196.81L170.39 1196.19L168.39 1193.69L167.61 1194.31ZM169.646 1196.85L172.146 1199.35L172.854 1198.65L170.354 1196.15L169.646 1196.85ZM172 1199V1202.5H173V1199H172ZM172.146 1202.15L170.146 1204.15L170.854 1204.85L172.854 1202.85L172.146 1202.15ZM170 1204.49L167.5 1331.99L168.5 1332.01L171 1204.51L170 1204.49ZM167.953 1332.5L257.953 1341L258.047 1340L168.047 1331.5L167.953 1332.5ZM258.5 1340.5V1334H257.5V1340.5H258.5ZM258.46 1333.8L256.96 1330.3L256.04 1330.7L257.54 1334.2L258.46 1333.8ZM257 1330.5V1325H256V1330.5H257ZM256.947 1325.22L262.947 1313.22L262.053 1312.78L256.053 1324.78L256.947 1325.22ZM262.967 1313.18L265.467 1306.68L264.533 1306.32L262.033 1312.82L262.967 1313.18ZM265.3 1306.9L267.3 1305.4L266.7 1304.6L264.7 1306.1L265.3 1306.9ZM267.5 1305V1302.5H266.5V1305H267.5ZM267 1303H268.5V1302H267V1303ZM268.974 1302.66L269.974 1299.66L269.026 1299.34L268.026 1302.34L268.974 1302.66ZM269.854 1299.85L271.854 1297.85L271.146 1297.15L269.146 1299.15L269.854 1299.85ZM271.974 1297.66L272.974 1294.66L272.026 1294.34L271.026 1297.34L271.974 1297.66ZM272.884 1294.82L275.384 1291.82L274.616 1291.18L272.116 1294.18L272.884 1294.82ZM275.474 1291.66L276.974 1287.16L276.026 1286.84L274.526 1291.34L275.474 1291.66ZM276.985 1287.12L278.485 1281.12L277.515 1280.88L276.015 1286.88L276.985 1287.12ZM278.4 1281.3L281.4 1277.3L280.6 1276.7L277.6 1280.7L278.4 1281.3ZM281.469 1277.17L286.969 1262.17L286.031 1261.83L280.531 1276.83L281.469 1277.17ZM286.9 1262.3L289.9 1258.3L289.1 1257.7L286.1 1261.7L286.9 1262.3ZM289.958 1258.2L308.958 1214.7L308.042 1214.3L289.042 1257.8L289.958 1258.2ZM309 1214.5V1210H308V1214.5H309ZM308.812 1209.61L306.312 1207.61L305.688 1208.39L308.188 1210.39L308.812 1209.61ZM306.5 1208V1205H305.5V1208H306.5ZM306.257 1205.43L308.757 1203.93L308.243 1203.07L305.743 1204.57L306.257 1205.43ZM309 1203.5V1201H308V1203.5H309ZM308.5 1201.5H311.5V1200.5H308.5V1201.5ZM311 1201V1203.5H312V1201H311ZM311.5 1204H314.5V1203H311.5V1204ZM314 1203.5V1205H315V1203.5H314ZM314 1205V1208H315V1205H314ZM314.1 1207.7L312.6 1209.7L313.4 1210.3L314.9 1208.3L314.1 1207.7ZM312.5 1210V1346H313.5V1210H312.5ZM467.5 1363V1327.5H466.5V1363H467.5ZM312.945 1346.5L435.945 1360.07L436.055 1359.08L313.055 1345.5L312.945 1346.5ZM435.945 1360.07L466.945 1363.5L467.055 1362.5L436.055 1359.08L435.945 1360.07ZM466.64 1327.15L435.64 1359.23L436.36 1359.93L467.36 1327.85L466.64 1327.15ZM431.913 1280.78L471.913 1222.28L471.087 1221.72L431.087 1280.22L431.913 1280.78ZM472 1222V1216H471V1222H472ZM471.854 1215.65L469.354 1213.15L468.646 1213.85L471.146 1216.35L471.854 1215.65ZM469.5 1213.5V1211H468.5V1213.5H469.5ZM469.332 1211.37L473.832 1207.37L473.168 1206.63L468.668 1210.63L469.332 1211.37ZM473.146 1207.35L477.146 1211.35L477.854 1210.65L473.854 1206.65L473.146 1207.35ZM477 1211V1213.5H478V1211H477ZM477.11 1213.19L475.11 1215.69L475.89 1216.31L477.89 1213.81L477.11 1213.19ZM475 1216V1248H476V1216H475ZM475.004 1248.07L480.004 1285.57L480.996 1285.43L475.996 1247.93L475.004 1248.07ZM480 1285.48L478.5 1320.48L479.5 1320.52L481 1285.52L480 1285.48ZM478.616 1320.18L473.616 1326.18L474.384 1326.82L479.384 1320.82L478.616 1320.18ZM473.5 1326.5V1359.58H474.5V1326.5H473.5ZM616.5 1376V1327.5H615.5V1376H616.5ZM615.737 1327.07L605.237 1333.57L605.763 1334.43L616.263 1327.93L615.737 1327.07ZM605.092 1333.71L596.592 1345.71L597.408 1346.29L605.908 1334.29L605.092 1333.71ZM596.566 1345.75L590.566 1356.25L591.434 1356.75L597.434 1346.25L596.566 1345.75ZM590.5 1356.5V1363H591.5V1356.5H590.5ZM473.943 1360.07L580.443 1372.39L580.557 1371.4L474.057 1359.08L473.943 1360.07ZM580.443 1372.39L615.943 1376.5L616.057 1375.5L580.557 1371.4L580.443 1372.39ZM590.677 1362.62L580.177 1371.51L580.823 1372.28L591.323 1363.38L590.677 1362.62ZM578.492 1359.67L580.992 1346.09L580.008 1345.91L577.508 1359.49L578.492 1359.67ZM580.985 1346.12L583.985 1334.12L583.015 1333.88L580.015 1345.88L580.985 1346.12ZM583.969 1334.17L588.969 1320.67L588.031 1320.33L583.031 1333.83L583.969 1334.17ZM588.985 1320.62L597.485 1287.12L596.515 1286.88L588.015 1320.38L588.985 1320.62ZM597.486 1287.12L605.986 1252.12L605.014 1251.88L596.514 1286.88L597.486 1287.12ZM605.96 1252.2L616.46 1227.7L615.54 1227.3L605.04 1251.8L605.96 1252.2ZM616.46 1227.7L617.96 1224.2L617.04 1223.8L615.54 1227.3L616.46 1227.7ZM618 1224V1220H617V1224H618ZM617.777 1219.58L614.777 1217.58L614.223 1218.42L617.223 1220.42L617.777 1219.58ZM614.964 1217.81L613.964 1215.31L613.036 1215.69L614.036 1218.19L614.964 1217.81ZM613.82 1215.88L616.82 1213.38L616.18 1212.62L613.18 1215.12L613.82 1215.88ZM616.947 1213.22L617.947 1211.22L617.053 1210.78L616.053 1212.78L616.947 1213.22ZM617.5 1211.5H619.5V1210.5H617.5V1211.5ZM619.053 1211.22L620.053 1213.22L620.947 1212.78L619.947 1210.78L619.053 1211.22ZM620.188 1213.39L622.688 1215.39L623.312 1214.61L620.812 1212.61L620.188 1213.39ZM622.5 1215V1218H623.5V1215H622.5ZM622.646 1217.65L620.646 1219.65L621.354 1220.35L623.354 1218.35L622.646 1217.65ZM620.5 1220L621.5 1378L622.5 1378L621.5 1220L620.5 1220ZM621.933 1378.5L647.933 1382L648.067 1381L622.067 1377.5L621.933 1378.5ZM648 1382H659V1381H648V1382ZM658.5 1381.5V1395H659.5V1381.5H658.5ZM658.776 1394.55L656.776 1395.55L657.224 1396.45L659.224 1395.45L658.776 1394.55ZM656.5 1396L655.5 1500L656.5 1500L657.5 1396L656.5 1396ZM656 1500.5H697.5V1499.5H656V1500.5ZM697.997 1500.06L699.997 1483.06L699.003 1482.94L697.003 1499.94L697.997 1500.06ZM699.947 1482.78L697.947 1478.78L697.053 1479.22L699.053 1483.22L699.947 1482.78ZM698 1479V1472.5H697V1479H698ZM697.993 1472.58L699.993 1460.58L699.007 1460.42L697.007 1472.42L697.993 1472.58ZM699.907 1460.21L694.907 1453.21L694.093 1453.79L699.093 1460.79L699.907 1460.21ZM695 1453.5V1450.5H694V1453.5H695ZM694.724 1450.95L702.724 1446.95L702.276 1446.05L694.276 1450.05L694.724 1450.95ZM702.971 1446.67L705.471 1439.67L704.529 1439.33L702.029 1446.33L702.971 1446.67ZM705.447 1439.28L702.947 1434.28L702.053 1434.72L704.553 1439.72L705.447 1439.28ZM703 1434.5V1431H702V1434.5H703ZM702.947 1431.22L705.447 1426.22L704.553 1425.78L702.053 1430.78L702.947 1431.22ZM705.158 1426.47L709.658 1424.97L709.342 1424.03L704.842 1425.53L705.158 1426.47ZM709.324 1424.97L713.324 1426.47L713.676 1425.53L709.676 1424.03L709.324 1424.97ZM713.11 1426.31L717.11 1431.31L717.89 1430.69L713.89 1425.69L713.11 1426.31ZM717 1431V1434.5H718V1431H717ZM717.11 1434.19L713.11 1439.19L713.89 1439.81L717.89 1434.81L717.11 1434.19ZM713 1439.5V1442.5H714V1439.5H713ZM713.146 1442.85L717.146 1446.85L717.854 1446.15L713.854 1442.15L713.146 1442.85ZM717.146 1446.85L724.146 1453.85L724.854 1453.15L717.854 1446.15L717.146 1446.85ZM724.1 1453.2L721.1 1457.2L721.9 1457.8L724.9 1453.8L724.1 1453.2ZM721 1457.5V1460.5H722V1457.5H721ZM721.5 1461H729.5V1460H721.5V1461ZM729.957 1460.3L727.957 1455.8L727.043 1456.2L729.043 1460.7L729.957 1460.3ZM727.791 1456.41L731.291 1453.91L730.709 1453.09L727.209 1455.59L727.791 1456.41ZM731.5 1453.5V1450.5H730.5V1453.5H731.5ZM731.468 1450.32L729.968 1446.32L729.032 1446.68L730.532 1450.68L731.468 1450.32ZM729.82 1446.88L732.82 1444.38L732.18 1443.62L729.18 1446.12L729.82 1446.88ZM732.235 1444.42L736.235 1446.92L736.765 1446.08L732.765 1443.58L732.235 1444.42ZM736.032 1446.32L734.532 1450.32L735.468 1450.68L736.968 1446.68L736.032 1446.32ZM734.5 1450.5V1453.5H735.5V1450.5H734.5ZM734.709 1453.91L738.209 1456.41L738.791 1455.59L735.291 1453.09L734.709 1453.91ZM738.043 1455.8L736.043 1460.3L736.957 1460.7L738.957 1456.2L738.043 1455.8ZM736.91 1460.79L743.91 1450.79L743.09 1450.21L736.09 1460.21L736.91 1460.79ZM743.985 1450.62L745.985 1442.62L745.015 1442.38L743.015 1450.38L743.985 1450.62ZM746 1442.5V1436.5H745V1442.5H746ZM745.939 1436.74L748.939 1431.24L748.061 1430.76L745.061 1436.26L745.939 1436.74ZM748.978 1431.15L750.978 1424.65L750.022 1424.35L748.022 1430.85L748.978 1431.15ZM750.707 1424.96L756.207 1422.46L755.793 1421.54L750.293 1424.04L750.707 1424.96ZM756 1422.5H761V1421.5H756V1422.5ZM761.436 1422.24L780.436 1388.24L779.564 1387.76L760.564 1421.76L761.436 1422.24ZM780.257 1387.57L777.757 1386.07L777.243 1386.93L779.743 1388.43L780.257 1387.57ZM777.947 1386.72L780.447 1381.72L779.553 1381.28L777.053 1386.28L777.947 1386.72ZM780.497 1381.55L782.497 1363.05L781.503 1362.95L779.503 1381.45L780.497 1381.55ZM782.248 1362.57L775.248 1358.57L774.752 1359.43L781.752 1363.43L782.248 1362.57ZM775.111 1358.51L764.111 1356.01L763.889 1356.99L774.889 1359.49L775.111 1358.51ZM764.5 1356.5V1341H763.5V1356.5H764.5ZM763.713 1341.41L768.713 1344.91L769.287 1344.09L764.287 1340.59L763.713 1341.41ZM769 1345H777.5V1344H769V1345ZM778 1344.5V1338H777V1344.5H778ZM777.703 1338.46L782.203 1336.46L781.797 1335.54L777.297 1337.54L777.703 1338.46ZM781.752 1336.43L785.252 1338.43L785.748 1337.57L782.248 1335.57L781.752 1336.43ZM785.5 1338.5H789V1337.5H785.5V1338.5ZM788.761 1338.44L794.261 1341.44L794.739 1340.56L789.239 1337.56L788.761 1338.44ZM794.937 1341.24L802.437 1327.74L801.563 1327.26L794.063 1340.76L794.937 1341.24ZM802.496 1327.56L805.496 1304.06L804.504 1303.94L801.504 1327.44L802.496 1327.56ZM805.474 1304.16L812.474 1283.16L811.526 1282.84L804.526 1303.84L805.474 1304.16ZM812.4 1283.3L828.9 1261.3L828.1 1260.7L811.6 1282.7L812.4 1283.3ZM828.892 1261.31L843.892 1242.31L843.108 1241.69L828.108 1260.69L828.892 1261.31ZM843.976 1242.15L848.976 1226.65L848.024 1226.35L843.024 1241.85L843.976 1242.15ZM848.995 1226.57L853.495 1195.57L852.505 1195.43L848.005 1226.43L848.995 1226.57ZM853 1196H909.5V1195H853V1196ZM909 1195.5V1217H910V1195.5H909ZM909.014 1217.12L915.014 1242.12L915.986 1241.88L909.986 1216.88L909.014 1217.12ZM915.077 1242.27L932.077 1269.27L932.923 1268.73L915.923 1241.73L915.077 1242.27ZM932.071 1269.26L950.071 1299.26L950.929 1298.74L932.929 1268.74L932.071 1269.26ZM950.006 1299.08L954.506 1327.58L955.494 1327.42L950.994 1298.92L950.006 1299.08ZM954.529 1327.67L960.529 1344.67L961.471 1344.33L955.471 1327.33L954.529 1327.67ZM960.711 1344.91L981.211 1359.41L981.789 1358.59L961.289 1344.09L960.711 1344.91ZM981.168 1358.63L976.668 1362.63L977.332 1363.37L981.832 1359.37L981.168 1358.63ZM976.5 1363V1386.5H977.5V1363H976.5ZM976.5 1386.5V1388H977.5V1386.5H976.5ZM976.646 1388.35L978.646 1390.35L979.354 1389.65L977.354 1387.65L976.646 1388.35ZM978.646 1389.65L976.646 1391.65L977.354 1392.35L979.354 1390.35L978.646 1389.65ZM976.513 1392.11L978.513 1400.61L979.487 1400.39L977.487 1391.89L976.513 1392.11ZM978.549 1400.72L984.049 1412.22L984.951 1411.78L979.451 1400.28L978.549 1400.72ZM984.056 1412.23L991.056 1425.73L991.944 1425.27L984.944 1411.77L984.056 1412.23ZM991.054 1425.73L1006.05 1455.23L1006.95 1454.77L991.946 1425.27L991.054 1425.73ZM1006.39 1455.49L1031.89 1460.99L1032.11 1460.01L1006.61 1454.51L1006.39 1455.49ZM1032.43 1460.75L1046.43 1436.75L1045.57 1436.25L1031.57 1460.25L1032.43 1460.75ZM1045.68 1436.88L1070.68 1457.88L1071.32 1457.12L1046.32 1436.12L1045.68 1436.88ZM1071.34 1457.87L1085.84 1444.37L1085.16 1443.63L1070.66 1457.13L1071.34 1457.87ZM1085.5 1444.5H1117.5V1443.5H1085.5V1444.5ZM1117.14 1444.35L1127.64 1455.35L1128.36 1454.65L1117.86 1443.65L1117.14 1444.35ZM1127.7 1455.4L1143.2 1466.9L1143.8 1466.1L1128.3 1454.6L1127.7 1455.4ZM1143.5 1467H1161.5V1466H1143.5V1467ZM1161.97 1466.67L1169.97 1444.17L1169.03 1443.83L1161.03 1466.33L1161.97 1466.67ZM1169.92 1444.28L1174.92 1436.78L1174.08 1436.22L1169.08 1443.72L1169.92 1444.28ZM1174.5 1437H1181V1436H1174.5V1437ZM1180.54 1436.69L1188.04 1455.19L1188.96 1454.81L1181.46 1436.31L1180.54 1436.69ZM1188 1455V1480.5H1189V1455H1188ZM1188.41 1480.99L1207.41 1484.49L1207.59 1483.51L1188.59 1480.01L1188.41 1480.99ZM1208 1484V1375H1207V1484H1208ZM1207.5 1375.5H1223V1374.5H1207.5V1375.5ZM1223.3 1375.4L1233.8 1367.4L1233.2 1366.6L1222.7 1374.6L1223.3 1375.4ZM1233.11 1367.32L1239.61 1375.32L1240.39 1374.68L1233.89 1366.68L1233.11 1367.32ZM1239.83 1375.47L1249.83 1378.97L1250.17 1378.03L1240.17 1374.53L1239.83 1375.47ZM1249.5 1378.5V1412H1250.5V1378.5H1249.5ZM1250 1412.5H1268V1411.5H1250V1412.5ZM1268.49 1412.12L1273.49 1392.12L1272.51 1391.88L1267.51 1411.88L1268.49 1412.12ZM1273.5 1392V1359H1272.5V1392H1273.5ZM1273.44 1359.23L1278.44 1349.73L1277.56 1349.27L1272.56 1358.77L1273.44 1359.23ZM1278.16 1349.97L1293.16 1344.97L1292.84 1344.03L1277.84 1349.03L1278.16 1349.97ZM1292.75 1344.93L1301.25 1349.93L1301.75 1349.07L1293.25 1344.07L1292.75 1344.93ZM1301.01 1349.58L1305.01 1375.08L1305.99 1374.92L1301.99 1349.42L1301.01 1349.58ZM1305.5 1375.5H1322V1374.5H1305.5V1375.5ZM1321.89 1375.49L1337.89 1378.99L1338.11 1378.01L1322.11 1374.51L1321.89 1375.49ZM1338.5 1378.5V1356.5H1337.5V1378.5H1338.5ZM1338 1357H1359V1356H1338V1357ZM1358.5 1356.5V1359H1359.5V1356.5H1358.5ZM1359.12 1359.49L1369.62 1356.99L1369.38 1356.01L1358.88 1358.51L1359.12 1359.49ZM1370 1356.5V1349.5H1369V1356.5H1370ZM1369.5 1350H1377.5V1349H1369.5V1350ZM1377 1349.5V1356.5H1378V1349.5H1377ZM1377.5 1357H1385.5V1356H1377.5V1357ZM1385 1356.5V1382H1386V1356.5H1385ZM1385.48 1382.5L1486.98 1386.5L1487.02 1385.5L1385.52 1381.5L1385.48 1382.5ZM1487.5 1386V1362.5H1486.5V1386H1487.5ZM1487.18 1362.97L1496.18 1359.47L1495.82 1358.53L1486.82 1362.03L1487.18 1362.97ZM1496 1359.5H1520V1358.5H1496V1359.5ZM1519.5 1359V1386H1520.5V1359H1519.5ZM1520 1386.5H1537.5V1385.5H1520V1386.5ZM1537.5 1386.5H1565V1385.5H1537.5V1386.5ZM1565.5 1386V1359H1564.5V1386H1565.5ZM1565 1359.5H1584V1358.5H1565V1359.5ZM1584.5 1359V1344.5H1583.5V1359H1584.5ZM1584.47 1344.33L1578.47 1327.83L1577.53 1328.17L1583.53 1344.67L1584.47 1344.33ZM1578.47 1328.17L1584.47 1311.17L1583.53 1310.83L1577.53 1327.83L1578.47 1328.17ZM1584 1311.5H1590V1310.5H1584V1311.5ZM1590.5 1311V1303H1589.5V1311H1590.5ZM1590 1303.5H1593.5V1302.5H1590V1303.5ZM1593 1303V1311H1594V1303H1593ZM1593.5 1311.5H1602V1310.5H1593.5V1311.5ZM1601.55 1311.21L1609.55 1328.21L1610.45 1327.79L1602.45 1310.79L1601.55 1311.21ZM1609.55 1327.78L1601.55 1344.28L1602.45 1344.72L1610.45 1328.22L1609.55 1327.78ZM1601.5 1344.5V1359H1602.5V1344.5H1601.5ZM1602.04 1359.5L1783.54 1345L1783.46 1344L1601.96 1358.5L1602.04 1359.5ZM1783.5 1345H1890V1344H1783.5V1345ZM1890.4 1344.79L1974.4 1229.29L1973.6 1228.71L1889.6 1344.21L1890.4 1344.79ZM1973.6 1229.3L2000.6 1265.3L2001.4 1264.7L1974.4 1228.7L1973.6 1229.3ZM2000.5 1265V1500H2001.5V1265H2000.5ZM2001 1499.5H697.5V1500.5H2001V1499.5ZM656 1499.5H1V1500.5H656V1499.5ZM1.5 1500V1315H0.5V1500H1.5ZM577.51 1359.68L580.01 1371.99L580.99 1371.8L578.49 1359.48L577.51 1359.68ZM431.001 1280.53L435.501 1359.61L436.499 1359.55L431.999 1280.47L431.001 1280.53ZM294.495 1344.07L299.495 1310.07L298.505 1309.93L293.505 1343.93L294.495 1344.07ZM299.224 1310.45L306.224 1306.95L305.776 1306.05L298.776 1309.55L299.224 1310.45ZM305.5 1306.5V1345H306.5V1306.5H305.5ZM306.042 1344.5L294.042 1343.5L293.958 1344.5L305.958 1345.5L306.042 1344.5ZM161.499 1331.03L162.999 1303.03L162.001 1302.97L160.501 1330.97L161.499 1331.03ZM162.964 1302.81L161.964 1300.31L161.036 1300.69L162.036 1303.19L162.964 1302.81ZM161.402 1300.01L158.902 1300.51L159.098 1301.49L161.598 1300.99L161.402 1300.01ZM158.732 1300.58L147.732 1307.58L148.268 1308.42L159.268 1301.42L158.732 1300.58ZM147.693 1307.61L143.193 1311.11L143.807 1311.89L148.307 1308.39L147.693 1307.61ZM143.071 1311.24L141.571 1313.74L142.429 1314.26L143.929 1311.76L143.071 1311.24ZM141.512 1313.89L140.512 1318.39L141.488 1318.61L142.488 1314.11L141.512 1313.89ZM140.6 1318.2L139.1 1320.2L139.9 1320.8L141.4 1318.8L140.6 1318.2ZM139.002 1320.45L138.502 1325.45L139.498 1325.55L139.998 1320.55L139.002 1320.45ZM138.5 1325.5V1327.5H139.5V1325.5H138.5ZM138.5 1327.5V1329H139.5V1327.5H138.5ZM138.955 1329.5L160.955 1331.5L161.045 1330.5L139.045 1328.5L138.955 1329.5Z" fill="#9A9A9A"/>
</svg>
