<svg width="128" height="128" viewBox="0 0 128 128" fill="none" xmlns="http://www.w3.org/2000/svg">
<path d="M18.1875 44.3125C18.1875 38.2292 19.1042 32.9167 20.9375 28.375C22.7292 23.875 25.5208 20.125 29.3125 17.125C33.0625 14.125 37.8333 11.875 43.625 10.375C49.375 8.91667 56.2083 8.1875 64.125 8.1875C72.0417 8.1875 78.8958 8.91667 84.6875 10.375C90.4375 11.875 95.1875 14.125 98.9375 17.125C102.687 20.125 105.479 23.875 107.312 28.375C109.104 32.9167 110 38.2292 110 44.3125C110 50.3958 109.104 55.6875 107.312 60.1875C105.479 64.7292 102.687 68.5 98.9375 71.5C95.1875 74.5 90.2573 76.8027 84.6875 80.1875C58.821 95.9066 18.1875 120 18.1875 120L18.1875 105L18.1875 76.3125L18.1875 60.1875C18.1875 60.1875 18.1875 50.3958 18.1875 44.3125ZM104.687 44.3125C104.687 38.4792 103.854 33.5417 102.187 29.5C100.521 25.4583 98.0208 22.1458 94.6875 19.5625C91.3125 17.0208 87.0833 15.1667 82 14C76.9167 12.875 70.9583 12.3125 64.125 12.3125C57.2917 12.3125 51.3333 12.875 46.25 14C41.1667 15.1667 36.9375 17.0208 33.5625 19.5625C30.1875 22.1458 27.6667 25.4583 26 29.5C24.3333 33.5417 23.5 38.4792 23.5 44.3125C23.5 50.1042 24.3333 55.0208 26 59.0625C27.6667 63.1458 30.1875 66.4583 33.5625 69C36.9375 71.5833 41.1667 73.4375 46.25 74.5625C51.3333 75.7292 57.2917 76.3125 64.125 76.3125C70.9583 76.3125 76.9167 75.7292 82 74.5625C87.0833 73.4375 91.3125 71.5833 94.6875 69C98.0208 66.4583 100.521 63.1458 102.187 59.0625C103.854 55.0208 104.687 50.1042 104.687 44.3125Z" fill="white"/>
<path d="M66 85L62 85L62 3L66 3L66 85Z" fill="#EF5A51"/>
<path d="M116 47L15 47L15 43L116 43L116 47Z" fill="#EF5A51"/>
</svg>
